0
SECTION
2
HEADER
9
$INSUNITS
70
4
9
$ACADVER
1
AC1014
9
$HANDSEED
5
FFFF
0
ENDSEC
0
SECTION
2
TABLES
0
TABLE
2
VPORT
5
8
100
AcDbSymbolTable
0
ENDTAB
0
TABLE
2
LTYPE
5
5
100
AcDbSymbolTable
0
LTYPE
5
14
100
AcDbSymbolTableRecord
100
AcDbLinetypeTableRecord
2
BYBLOCK
70
0
0
LTYPE
5
15
100
AcDbSymbolTableRecord
100
AcDbLinetypeTableRecord
2
BYLAYER
70
0
0
ENDTAB
0
TABLE
2
LAYER
5
2
100
AcDbSymbolTable
70
2
0
LAYER
5
50
100
AcDbSymbolTableRecord
100
AcDbLayerTableRecord
2
0
70
0
6
CONTINUOUS
0
ENDTAB
0
TABLE
2
STYLE
5
3
100
AcDbSymbolTable
70
1
0
STYLE
5
11
100
AcDbSymbolTableRecord
100
AcDbTextStyleTableRecord
2
STANDARD
70
0
0
ENDTAB
0
TABLE
2
VIEW
5
6
100
AcDbSymbolTable
70
0
0
ENDTAB
0
TABLE
2
UCS
5
7
100
AcDbSymbolTable
70
0
0
ENDTAB
0
TABLE
2
APPID
5
9
100
AcDbSymbolTable
70
2
0
APPID
5
12
100
AcDbSymbolTableRecord
100
AcDbRegAppTableRecord
2
ACAD
70
0
0
ENDTAB
0
TABLE
2
DIMSTYLE
5
A
100
AcDbSymbolTable
70
1
0
ENDTAB
0
TABLE
2
BLOCK_RECORD
5
1
100
AcDbSymbolTable
70
1
0
BLOCK_RECORD
5
1F
100
AcDbSymbolTableRecord
100
AcDbBlockTableRecord
2
*MODEL_SPACE
0
BLOCK_RECORD
5
1B
100
AcDbSymbolTableRecord
100
AcDbBlockTableRecord
2
*PAPER_SPACE
0
ENDTAB
0
ENDSEC
0
SECTION
2
BLOCKS
0
BLOCK
5
20
100
AcDbEntity
100
AcDbBlockBegin
2
*MODEL_SPACE
0
ENDBLK
5
21
100
AcDbEntity
100
AcDbBlockEnd
0
BLOCK
5
1C
100
AcDbEntity
100
AcDbBlockBegin
2
*PAPER_SPACE
0
ENDBLK
5
1D
100
AcDbEntity
100
AcDbBlockEnd
0
ENDSEC
0
SECTION
2
ENTITIES
0
LWPOLYLINE
5
100
100
AcDbEntity
8
0
100
AcDbPolyline
90
28
70
1
43
0.0
10
7.0000001043081284
20
-90.000001341104507
10
7.0000001043081284
20
-87
10
1.0000000149011612
20
-87
10
1.0000000149011612
20
-90.000001341104507
10
-5.000000000000008
20
-90
42
-0.41421356237309509
10
-19.999999999999993
20
-75
10
-19.999999999999993
20
-60
42
0.41421356237309481
10
-50
20
-30
10
-69.999999999999972
20
-30.000000000000036
42
-0.99999999999999989
10
-69.999999999999986
20
30
10
-50
20
30
42
0.41421356237309515
10
-19.999999999999993
20
60
10
-19.999999999999996
20
75
42
-0.41421356237309515
10
-5
20
90
10
1.1058822771784971
20
90
10
1.1058822771784971
20
87.282352191878147
10
7.1058823665854494
20
87.282352191878147
10
7.105882366585452
20
90
10
27.500000000000007
20
90
42
-0.41014178825717168
10
49.997819570576361
20
67.813232453285551
42
-0.40739148931992963
10
42
20
60
10
42.5
20
60
42
0.41421356237309526
10
20
20
37.500000000000014
10
20
20
-37.500000000000007
42
0.4142135623730952
10
42.5
20
-60
10
42
20
-60.000000000000242
42
-0.40739148932016706
10
49.997819570576276
20
-67.813232453292073
42
-0.41014178825708686
10
27.500000000000004
20
-90
0
LWPOLYLINE
5
101
100
AcDbEntity
8
0
100
AcDbPolyline
90
4
70
1
43
0.0
10
1.0000001043081275
20
-60
10
1.0000001043081275
20
-63
10
7.0000001043081284
20
-63
10
7.0000001043081284
20
-60
0
LWPOLYLINE
5
102
100
AcDbEntity
8
0
100
AcDbPolyline
90
4
70
1
43
0.0
10
10.000000149011612
20
-68.000001102685928
10
10.000000149011612
20
-74.000001102685928
10
13.000000000000023
20
-74.000001102685928
10
13.000000000000023
20
-68.000001102685928
0
LWPOLYLINE
5
103
100
AcDbEntity
8
0
100
AcDbPolyline
90
4
70
1
43
0.0
10
-4.9999998509883881
20
-68.000001102685928
10
-4.9999998509883881
20
-74.000001102685928
10
-1.9999999999999774
20
-74.000001102685928
10
-1.9999999999999774
20
-68.000001102685928
0
LWPOLYLINE
5
104
100
AcDbEntity
8
0
100
AcDbPolyline
90
4
70
1
43
0.0
10
10.000000149011612
20
-79.000001266598701
10
10.000000149011612
20
-85.000001266598701
10
13.000000193715096
20
-85.000001266598701
10
13.000000193715096
20
-79.000001266598701
0
LWPOLYLINE
5
105
100
AcDbEntity
8
0
100
AcDbPolyline
90
4
70
1
43
0.0
10
-4.9999998509883881
20
-79.000001266598701
10
-4.9999998509883881
20
-85.000001266598701
10
-1.9999998062849045
20
-85.000001266598701
10
-1.9999998062849045
20
-79.000001266598701
0
LWPOLYLINE
5
106
100
AcDbEntity
8
0
100
AcDbPolyline
90
8
70
1
43
0.0
10
-15.000000000000002
20
48
10
-15
20
47
42
0.41421356237309148
10
-13.000000000000004
20
45
10
12.999999999999993
20
45
42
0.41421356237309009
10
14.999999999999998
20
47
10
15.000000000000002
20
48
42
0.41421356237309209
10
13
20
50
10
-13
20
50
42
0.41421356237309209
0
LWPOLYLINE
5
107
100
AcDbEntity
8
0
100
AcDbPolyline
90
8
70
1
43
0.0
10
-15.000000000000002
20
-47
10
-15
20
-48
42
0.41421356237309176
10
-13
20
-50
10
12.999999999999996
20
-50
42
0.41421356237309209
10
14.999999999999998
20
-48
10
15.000000000000002
20
-47
42
0.41421356237309209
10
13
20
-45
10
-13
20
-45
42
0.41421356237309209
0
LWPOLYLINE
5
108
100
AcDbEntity
8
0
100
AcDbPolyline
90
4
70
1
43
0.0
10
-15.000000000000027
20
-30.000000000000004
10
-14.999999999999998
20
29.999999999999996
42
0.99999999999999989
10
-25
20
30.000000000000004
10
-25
20
-30.000000000000004
42
0.99999999999999989
0
LWPOLYLINE
5
109
100
AcDbEntity
8
0
100
AcDbPolyline
90
4
70
1
43
0.0
10
-60
20
-28.000000000000007
10
-60
20
-25.000000000000014
10
-70
20
-25.000000000000014
10
-70
20
-28.000000000000007
0
LWPOLYLINE
5
110
100
AcDbEntity
8
0
100
AcDbPolyline
90
4
70
1
43
0.0
10
-40
20
-28.000000000000007
10
-40
20
-25.000000000000014
10
-50
20
-25.000000000000014
10
-50
20
-28.000000000000007
0
LWPOLYLINE
5
111
100
AcDbEntity
8
0
100
AcDbPolyline
90
4
70
1
43
0.0
10
-70
20
27.999999999999993
10
-70
20
25
10
-60
20
25
10
-60
20
27.999999999999993
0
LWPOLYLINE
5
112
100
AcDbEntity
8
0
100
AcDbPolyline
90
4
70
1
43
0.0
10
-50
20
27.999999999999993
10
-50
20
25
10
-40
20
25
10
-40
20
27.999999999999993
0
LWPOLYLINE
5
113
100
AcDbEntity
8
0
100
AcDbPolyline
90
4
70
1
43
0.0
10
-4.8941176185135209
20
74.282353294564075
10
-4.8941176185135209
20
68.282353294564075
10
-1.8941177675250764
20
68.282353294564075
10
-1.8941177675250764
20
74.282353294564075
0
LWPOLYLINE
5
114
100
AcDbEntity
8
0
100
AcDbPolyline
90
4
70
1
43
0.0
10
10.105882381486488
20
74.282353294564004
10
10.105882381486488
20
68.282353294564018
10
13.105882232474929
20
68.282353294564018
10
13.105882232474929
20
74.282353294564004
0
LWPOLYLINE
5
115
100
AcDbEntity
8
0
100
AcDbPolyline
90
4
70
1
43
0.0
10
10.105882187771469
20
85.282353458476777
10
10.105882187771469
20
79.282353458476791
10
13.105882232474983
20
79.282353458476791
10
13.105882232474983
20
85.282353458476777
0
LWPOLYLINE
5
116
100
AcDbEntity
8
0
100
AcDbPolyline
90
4
70
1
43
0.0
10
-4.8941178122285383
20
85.282353458476848
10
-4.8941178122285383
20
79.282353458476862
10
-1.8941177675250231
20
79.282353458476862
10
-1.8941177675250231
20
85.282353458476848
0
LWPOLYLINE
5
117
100
AcDbEntity
8
0
100
AcDbPolyline
90
4
70
1
43
0.0
10
1.1058822771783461
20
63.282352191878118
10
1.1058822771783461
20
60.282352191878147
10
7.1058822771783667
20
60.282352191878147
10
7.1058822771783667
20
63.282352191878118
0
ENDSEC
0
SECTION
2
OBJECTS
0
DICTIONARY
5
C
100
AcDbDictionary
3
ACAD_GROUP
350
D
3
ACAD_MLINESTYLE
350
17
0
DICTIONARY
5
D
100
AcDbDictionary
0
DICTIONARY
5
1A
330
C
100
AcDbDictionary
0
DICTIONARY
5
17
100
AcDbDictionary
0
ENDSEC
0
EOF
