%
M48
M72
T01C0.02756
T02C0.03200
T03C0.03937
T04C0.04000
T05C0.12598
%
T01
X61800Y48000
X71800Y48000
X39300Y50500
X39300Y60500
X144300Y45500
X154300Y45500
X204300Y172823
X204300Y177941
X204300Y183059
X204300Y188177
T02
X186300Y193000
X186300Y180500
X186300Y168000
X146300Y168000
X146300Y180500
X146300Y193000
X161800Y142500
X161800Y102500
X161800Y96000
X161800Y56000
X241800Y56000
X259300Y56000
X259300Y96000
X259300Y102500
X241800Y102500
X241800Y96000
X241800Y142500
X259300Y142500
X339300Y142500
X339300Y102500
X339300Y96000
X339300Y56000
X54800Y90500
X54800Y105500
X14800Y105500
X14800Y90500
T03
X136800Y25500
X146800Y25500
X156800Y25500
T04
X196800Y25500
X206800Y25500
X226800Y68000
X226800Y78000
X226800Y88000
X226800Y113000
X226800Y123000
X226800Y133000
X274300Y133000
X274300Y123000
X274300Y113000
X274300Y88000
X274300Y78000
X274300Y68000
X324300Y68000
X324300Y78000
X324300Y88000
X324300Y113000
X324300Y123000
X324300Y133000
X176800Y133000
X176800Y123000
X176800Y113000
X176800Y88000
X176800Y78000
X176800Y68000
X131800Y68000
X131800Y58000
X131800Y78000
X131800Y88000
X131800Y98000
X121800Y98000
X131800Y108000
X131800Y118000
X131800Y128000
X131800Y138000
X131800Y148000
X131800Y158000
X131800Y168000
X121800Y168000
X111800Y168000
X101800Y168000
X91800Y168000
X81800Y168000
X71800Y168000
X71800Y158000
X71800Y148000
X71800Y138000
X71800Y128000
X71800Y118000
X71800Y108000
X71800Y98000
X81800Y98000
X71800Y88000
X71800Y78000
X71800Y68000
X71800Y58000
X71800Y30500
X61800Y30500
X51800Y30500
X41800Y30500
X41800Y20500
X51800Y20500
X61800Y20500
X71800Y20500
X19300Y35500
X19300Y45500
X19300Y65500
X19300Y75500
X26800Y123000
X36800Y123000
X36800Y133000
X26800Y133000
X26800Y143000
X36800Y143000
X36800Y153000
X26800Y153000
X26800Y163000
X36800Y163000
X294300Y25500
X304300Y25500
T05
X13611Y14811
X13611Y188039
X344320Y188039
X344320Y14811
M30
