G75*
%MOIN*%
%OFA0B0*%
%FSLAX25Y25*%
%IPPOS*%
%LPD*%
%AMOC8*
5,1,8,0,0,1.08239X$1,22.5*
%
%ADD10C,0.00000*%
%ADD11C,0.06000*%
%ADD12OC8,0.05200*%
%ADD13R,0.07400X0.07400*%
%ADD14C,0.07400*%
%ADD15OC8,0.06000*%
%ADD16C,0.06500*%
%ADD17R,0.06500X0.06500*%
%ADD18R,0.04756X0.04756*%
%ADD19C,0.04756*%
%ADD20C,0.01600*%
D10*
X0001800Y0003000D02*
X0001800Y0199850D01*
X0356131Y0199850D01*
X0356131Y0003000D01*
X0001800Y0003000D01*
X0007312Y0014811D02*
X0007314Y0014969D01*
X0007320Y0015127D01*
X0007330Y0015285D01*
X0007344Y0015443D01*
X0007362Y0015600D01*
X0007383Y0015757D01*
X0007409Y0015913D01*
X0007439Y0016069D01*
X0007472Y0016224D01*
X0007510Y0016377D01*
X0007551Y0016530D01*
X0007596Y0016682D01*
X0007645Y0016833D01*
X0007698Y0016982D01*
X0007754Y0017130D01*
X0007814Y0017276D01*
X0007878Y0017421D01*
X0007946Y0017564D01*
X0008017Y0017706D01*
X0008091Y0017846D01*
X0008169Y0017983D01*
X0008251Y0018119D01*
X0008335Y0018253D01*
X0008424Y0018384D01*
X0008515Y0018513D01*
X0008610Y0018640D01*
X0008707Y0018765D01*
X0008808Y0018887D01*
X0008912Y0019006D01*
X0009019Y0019123D01*
X0009129Y0019237D01*
X0009242Y0019348D01*
X0009357Y0019457D01*
X0009475Y0019562D01*
X0009596Y0019664D01*
X0009719Y0019764D01*
X0009845Y0019860D01*
X0009973Y0019953D01*
X0010103Y0020043D01*
X0010236Y0020129D01*
X0010371Y0020213D01*
X0010507Y0020292D01*
X0010646Y0020369D01*
X0010787Y0020441D01*
X0010929Y0020511D01*
X0011073Y0020576D01*
X0011219Y0020638D01*
X0011366Y0020696D01*
X0011515Y0020751D01*
X0011665Y0020802D01*
X0011816Y0020849D01*
X0011968Y0020892D01*
X0012121Y0020931D01*
X0012276Y0020967D01*
X0012431Y0020998D01*
X0012587Y0021026D01*
X0012743Y0021050D01*
X0012900Y0021070D01*
X0013058Y0021086D01*
X0013215Y0021098D01*
X0013374Y0021106D01*
X0013532Y0021110D01*
X0013690Y0021110D01*
X0013848Y0021106D01*
X0014007Y0021098D01*
X0014164Y0021086D01*
X0014322Y0021070D01*
X0014479Y0021050D01*
X0014635Y0021026D01*
X0014791Y0020998D01*
X0014946Y0020967D01*
X0015101Y0020931D01*
X0015254Y0020892D01*
X0015406Y0020849D01*
X0015557Y0020802D01*
X0015707Y0020751D01*
X0015856Y0020696D01*
X0016003Y0020638D01*
X0016149Y0020576D01*
X0016293Y0020511D01*
X0016435Y0020441D01*
X0016576Y0020369D01*
X0016715Y0020292D01*
X0016851Y0020213D01*
X0016986Y0020129D01*
X0017119Y0020043D01*
X0017249Y0019953D01*
X0017377Y0019860D01*
X0017503Y0019764D01*
X0017626Y0019664D01*
X0017747Y0019562D01*
X0017865Y0019457D01*
X0017980Y0019348D01*
X0018093Y0019237D01*
X0018203Y0019123D01*
X0018310Y0019006D01*
X0018414Y0018887D01*
X0018515Y0018765D01*
X0018612Y0018640D01*
X0018707Y0018513D01*
X0018798Y0018384D01*
X0018887Y0018253D01*
X0018971Y0018119D01*
X0019053Y0017983D01*
X0019131Y0017846D01*
X0019205Y0017706D01*
X0019276Y0017564D01*
X0019344Y0017421D01*
X0019408Y0017276D01*
X0019468Y0017130D01*
X0019524Y0016982D01*
X0019577Y0016833D01*
X0019626Y0016682D01*
X0019671Y0016530D01*
X0019712Y0016377D01*
X0019750Y0016224D01*
X0019783Y0016069D01*
X0019813Y0015913D01*
X0019839Y0015757D01*
X0019860Y0015600D01*
X0019878Y0015443D01*
X0019892Y0015285D01*
X0019902Y0015127D01*
X0019908Y0014969D01*
X0019910Y0014811D01*
X0019908Y0014653D01*
X0019902Y0014495D01*
X0019892Y0014337D01*
X0019878Y0014179D01*
X0019860Y0014022D01*
X0019839Y0013865D01*
X0019813Y0013709D01*
X0019783Y0013553D01*
X0019750Y0013398D01*
X0019712Y0013245D01*
X0019671Y0013092D01*
X0019626Y0012940D01*
X0019577Y0012789D01*
X0019524Y0012640D01*
X0019468Y0012492D01*
X0019408Y0012346D01*
X0019344Y0012201D01*
X0019276Y0012058D01*
X0019205Y0011916D01*
X0019131Y0011776D01*
X0019053Y0011639D01*
X0018971Y0011503D01*
X0018887Y0011369D01*
X0018798Y0011238D01*
X0018707Y0011109D01*
X0018612Y0010982D01*
X0018515Y0010857D01*
X0018414Y0010735D01*
X0018310Y0010616D01*
X0018203Y0010499D01*
X0018093Y0010385D01*
X0017980Y0010274D01*
X0017865Y0010165D01*
X0017747Y0010060D01*
X0017626Y0009958D01*
X0017503Y0009858D01*
X0017377Y0009762D01*
X0017249Y0009669D01*
X0017119Y0009579D01*
X0016986Y0009493D01*
X0016851Y0009409D01*
X0016715Y0009330D01*
X0016576Y0009253D01*
X0016435Y0009181D01*
X0016293Y0009111D01*
X0016149Y0009046D01*
X0016003Y0008984D01*
X0015856Y0008926D01*
X0015707Y0008871D01*
X0015557Y0008820D01*
X0015406Y0008773D01*
X0015254Y0008730D01*
X0015101Y0008691D01*
X0014946Y0008655D01*
X0014791Y0008624D01*
X0014635Y0008596D01*
X0014479Y0008572D01*
X0014322Y0008552D01*
X0014164Y0008536D01*
X0014007Y0008524D01*
X0013848Y0008516D01*
X0013690Y0008512D01*
X0013532Y0008512D01*
X0013374Y0008516D01*
X0013215Y0008524D01*
X0013058Y0008536D01*
X0012900Y0008552D01*
X0012743Y0008572D01*
X0012587Y0008596D01*
X0012431Y0008624D01*
X0012276Y0008655D01*
X0012121Y0008691D01*
X0011968Y0008730D01*
X0011816Y0008773D01*
X0011665Y0008820D01*
X0011515Y0008871D01*
X0011366Y0008926D01*
X0011219Y0008984D01*
X0011073Y0009046D01*
X0010929Y0009111D01*
X0010787Y0009181D01*
X0010646Y0009253D01*
X0010507Y0009330D01*
X0010371Y0009409D01*
X0010236Y0009493D01*
X0010103Y0009579D01*
X0009973Y0009669D01*
X0009845Y0009762D01*
X0009719Y0009858D01*
X0009596Y0009958D01*
X0009475Y0010060D01*
X0009357Y0010165D01*
X0009242Y0010274D01*
X0009129Y0010385D01*
X0009019Y0010499D01*
X0008912Y0010616D01*
X0008808Y0010735D01*
X0008707Y0010857D01*
X0008610Y0010982D01*
X0008515Y0011109D01*
X0008424Y0011238D01*
X0008335Y0011369D01*
X0008251Y0011503D01*
X0008169Y0011639D01*
X0008091Y0011776D01*
X0008017Y0011916D01*
X0007946Y0012058D01*
X0007878Y0012201D01*
X0007814Y0012346D01*
X0007754Y0012492D01*
X0007698Y0012640D01*
X0007645Y0012789D01*
X0007596Y0012940D01*
X0007551Y0013092D01*
X0007510Y0013245D01*
X0007472Y0013398D01*
X0007439Y0013553D01*
X0007409Y0013709D01*
X0007383Y0013865D01*
X0007362Y0014022D01*
X0007344Y0014179D01*
X0007330Y0014337D01*
X0007320Y0014495D01*
X0007314Y0014653D01*
X0007312Y0014811D01*
X0007312Y0188039D02*
X0007314Y0188197D01*
X0007320Y0188355D01*
X0007330Y0188513D01*
X0007344Y0188671D01*
X0007362Y0188828D01*
X0007383Y0188985D01*
X0007409Y0189141D01*
X0007439Y0189297D01*
X0007472Y0189452D01*
X0007510Y0189605D01*
X0007551Y0189758D01*
X0007596Y0189910D01*
X0007645Y0190061D01*
X0007698Y0190210D01*
X0007754Y0190358D01*
X0007814Y0190504D01*
X0007878Y0190649D01*
X0007946Y0190792D01*
X0008017Y0190934D01*
X0008091Y0191074D01*
X0008169Y0191211D01*
X0008251Y0191347D01*
X0008335Y0191481D01*
X0008424Y0191612D01*
X0008515Y0191741D01*
X0008610Y0191868D01*
X0008707Y0191993D01*
X0008808Y0192115D01*
X0008912Y0192234D01*
X0009019Y0192351D01*
X0009129Y0192465D01*
X0009242Y0192576D01*
X0009357Y0192685D01*
X0009475Y0192790D01*
X0009596Y0192892D01*
X0009719Y0192992D01*
X0009845Y0193088D01*
X0009973Y0193181D01*
X0010103Y0193271D01*
X0010236Y0193357D01*
X0010371Y0193441D01*
X0010507Y0193520D01*
X0010646Y0193597D01*
X0010787Y0193669D01*
X0010929Y0193739D01*
X0011073Y0193804D01*
X0011219Y0193866D01*
X0011366Y0193924D01*
X0011515Y0193979D01*
X0011665Y0194030D01*
X0011816Y0194077D01*
X0011968Y0194120D01*
X0012121Y0194159D01*
X0012276Y0194195D01*
X0012431Y0194226D01*
X0012587Y0194254D01*
X0012743Y0194278D01*
X0012900Y0194298D01*
X0013058Y0194314D01*
X0013215Y0194326D01*
X0013374Y0194334D01*
X0013532Y0194338D01*
X0013690Y0194338D01*
X0013848Y0194334D01*
X0014007Y0194326D01*
X0014164Y0194314D01*
X0014322Y0194298D01*
X0014479Y0194278D01*
X0014635Y0194254D01*
X0014791Y0194226D01*
X0014946Y0194195D01*
X0015101Y0194159D01*
X0015254Y0194120D01*
X0015406Y0194077D01*
X0015557Y0194030D01*
X0015707Y0193979D01*
X0015856Y0193924D01*
X0016003Y0193866D01*
X0016149Y0193804D01*
X0016293Y0193739D01*
X0016435Y0193669D01*
X0016576Y0193597D01*
X0016715Y0193520D01*
X0016851Y0193441D01*
X0016986Y0193357D01*
X0017119Y0193271D01*
X0017249Y0193181D01*
X0017377Y0193088D01*
X0017503Y0192992D01*
X0017626Y0192892D01*
X0017747Y0192790D01*
X0017865Y0192685D01*
X0017980Y0192576D01*
X0018093Y0192465D01*
X0018203Y0192351D01*
X0018310Y0192234D01*
X0018414Y0192115D01*
X0018515Y0191993D01*
X0018612Y0191868D01*
X0018707Y0191741D01*
X0018798Y0191612D01*
X0018887Y0191481D01*
X0018971Y0191347D01*
X0019053Y0191211D01*
X0019131Y0191074D01*
X0019205Y0190934D01*
X0019276Y0190792D01*
X0019344Y0190649D01*
X0019408Y0190504D01*
X0019468Y0190358D01*
X0019524Y0190210D01*
X0019577Y0190061D01*
X0019626Y0189910D01*
X0019671Y0189758D01*
X0019712Y0189605D01*
X0019750Y0189452D01*
X0019783Y0189297D01*
X0019813Y0189141D01*
X0019839Y0188985D01*
X0019860Y0188828D01*
X0019878Y0188671D01*
X0019892Y0188513D01*
X0019902Y0188355D01*
X0019908Y0188197D01*
X0019910Y0188039D01*
X0019908Y0187881D01*
X0019902Y0187723D01*
X0019892Y0187565D01*
X0019878Y0187407D01*
X0019860Y0187250D01*
X0019839Y0187093D01*
X0019813Y0186937D01*
X0019783Y0186781D01*
X0019750Y0186626D01*
X0019712Y0186473D01*
X0019671Y0186320D01*
X0019626Y0186168D01*
X0019577Y0186017D01*
X0019524Y0185868D01*
X0019468Y0185720D01*
X0019408Y0185574D01*
X0019344Y0185429D01*
X0019276Y0185286D01*
X0019205Y0185144D01*
X0019131Y0185004D01*
X0019053Y0184867D01*
X0018971Y0184731D01*
X0018887Y0184597D01*
X0018798Y0184466D01*
X0018707Y0184337D01*
X0018612Y0184210D01*
X0018515Y0184085D01*
X0018414Y0183963D01*
X0018310Y0183844D01*
X0018203Y0183727D01*
X0018093Y0183613D01*
X0017980Y0183502D01*
X0017865Y0183393D01*
X0017747Y0183288D01*
X0017626Y0183186D01*
X0017503Y0183086D01*
X0017377Y0182990D01*
X0017249Y0182897D01*
X0017119Y0182807D01*
X0016986Y0182721D01*
X0016851Y0182637D01*
X0016715Y0182558D01*
X0016576Y0182481D01*
X0016435Y0182409D01*
X0016293Y0182339D01*
X0016149Y0182274D01*
X0016003Y0182212D01*
X0015856Y0182154D01*
X0015707Y0182099D01*
X0015557Y0182048D01*
X0015406Y0182001D01*
X0015254Y0181958D01*
X0015101Y0181919D01*
X0014946Y0181883D01*
X0014791Y0181852D01*
X0014635Y0181824D01*
X0014479Y0181800D01*
X0014322Y0181780D01*
X0014164Y0181764D01*
X0014007Y0181752D01*
X0013848Y0181744D01*
X0013690Y0181740D01*
X0013532Y0181740D01*
X0013374Y0181744D01*
X0013215Y0181752D01*
X0013058Y0181764D01*
X0012900Y0181780D01*
X0012743Y0181800D01*
X0012587Y0181824D01*
X0012431Y0181852D01*
X0012276Y0181883D01*
X0012121Y0181919D01*
X0011968Y0181958D01*
X0011816Y0182001D01*
X0011665Y0182048D01*
X0011515Y0182099D01*
X0011366Y0182154D01*
X0011219Y0182212D01*
X0011073Y0182274D01*
X0010929Y0182339D01*
X0010787Y0182409D01*
X0010646Y0182481D01*
X0010507Y0182558D01*
X0010371Y0182637D01*
X0010236Y0182721D01*
X0010103Y0182807D01*
X0009973Y0182897D01*
X0009845Y0182990D01*
X0009719Y0183086D01*
X0009596Y0183186D01*
X0009475Y0183288D01*
X0009357Y0183393D01*
X0009242Y0183502D01*
X0009129Y0183613D01*
X0009019Y0183727D01*
X0008912Y0183844D01*
X0008808Y0183963D01*
X0008707Y0184085D01*
X0008610Y0184210D01*
X0008515Y0184337D01*
X0008424Y0184466D01*
X0008335Y0184597D01*
X0008251Y0184731D01*
X0008169Y0184867D01*
X0008091Y0185004D01*
X0008017Y0185144D01*
X0007946Y0185286D01*
X0007878Y0185429D01*
X0007814Y0185574D01*
X0007754Y0185720D01*
X0007698Y0185868D01*
X0007645Y0186017D01*
X0007596Y0186168D01*
X0007551Y0186320D01*
X0007510Y0186473D01*
X0007472Y0186626D01*
X0007439Y0186781D01*
X0007409Y0186937D01*
X0007383Y0187093D01*
X0007362Y0187250D01*
X0007344Y0187407D01*
X0007330Y0187565D01*
X0007320Y0187723D01*
X0007314Y0187881D01*
X0007312Y0188039D01*
X0338021Y0188039D02*
X0338023Y0188197D01*
X0338029Y0188355D01*
X0338039Y0188513D01*
X0338053Y0188671D01*
X0338071Y0188828D01*
X0338092Y0188985D01*
X0338118Y0189141D01*
X0338148Y0189297D01*
X0338181Y0189452D01*
X0338219Y0189605D01*
X0338260Y0189758D01*
X0338305Y0189910D01*
X0338354Y0190061D01*
X0338407Y0190210D01*
X0338463Y0190358D01*
X0338523Y0190504D01*
X0338587Y0190649D01*
X0338655Y0190792D01*
X0338726Y0190934D01*
X0338800Y0191074D01*
X0338878Y0191211D01*
X0338960Y0191347D01*
X0339044Y0191481D01*
X0339133Y0191612D01*
X0339224Y0191741D01*
X0339319Y0191868D01*
X0339416Y0191993D01*
X0339517Y0192115D01*
X0339621Y0192234D01*
X0339728Y0192351D01*
X0339838Y0192465D01*
X0339951Y0192576D01*
X0340066Y0192685D01*
X0340184Y0192790D01*
X0340305Y0192892D01*
X0340428Y0192992D01*
X0340554Y0193088D01*
X0340682Y0193181D01*
X0340812Y0193271D01*
X0340945Y0193357D01*
X0341080Y0193441D01*
X0341216Y0193520D01*
X0341355Y0193597D01*
X0341496Y0193669D01*
X0341638Y0193739D01*
X0341782Y0193804D01*
X0341928Y0193866D01*
X0342075Y0193924D01*
X0342224Y0193979D01*
X0342374Y0194030D01*
X0342525Y0194077D01*
X0342677Y0194120D01*
X0342830Y0194159D01*
X0342985Y0194195D01*
X0343140Y0194226D01*
X0343296Y0194254D01*
X0343452Y0194278D01*
X0343609Y0194298D01*
X0343767Y0194314D01*
X0343924Y0194326D01*
X0344083Y0194334D01*
X0344241Y0194338D01*
X0344399Y0194338D01*
X0344557Y0194334D01*
X0344716Y0194326D01*
X0344873Y0194314D01*
X0345031Y0194298D01*
X0345188Y0194278D01*
X0345344Y0194254D01*
X0345500Y0194226D01*
X0345655Y0194195D01*
X0345810Y0194159D01*
X0345963Y0194120D01*
X0346115Y0194077D01*
X0346266Y0194030D01*
X0346416Y0193979D01*
X0346565Y0193924D01*
X0346712Y0193866D01*
X0346858Y0193804D01*
X0347002Y0193739D01*
X0347144Y0193669D01*
X0347285Y0193597D01*
X0347424Y0193520D01*
X0347560Y0193441D01*
X0347695Y0193357D01*
X0347828Y0193271D01*
X0347958Y0193181D01*
X0348086Y0193088D01*
X0348212Y0192992D01*
X0348335Y0192892D01*
X0348456Y0192790D01*
X0348574Y0192685D01*
X0348689Y0192576D01*
X0348802Y0192465D01*
X0348912Y0192351D01*
X0349019Y0192234D01*
X0349123Y0192115D01*
X0349224Y0191993D01*
X0349321Y0191868D01*
X0349416Y0191741D01*
X0349507Y0191612D01*
X0349596Y0191481D01*
X0349680Y0191347D01*
X0349762Y0191211D01*
X0349840Y0191074D01*
X0349914Y0190934D01*
X0349985Y0190792D01*
X0350053Y0190649D01*
X0350117Y0190504D01*
X0350177Y0190358D01*
X0350233Y0190210D01*
X0350286Y0190061D01*
X0350335Y0189910D01*
X0350380Y0189758D01*
X0350421Y0189605D01*
X0350459Y0189452D01*
X0350492Y0189297D01*
X0350522Y0189141D01*
X0350548Y0188985D01*
X0350569Y0188828D01*
X0350587Y0188671D01*
X0350601Y0188513D01*
X0350611Y0188355D01*
X0350617Y0188197D01*
X0350619Y0188039D01*
X0350617Y0187881D01*
X0350611Y0187723D01*
X0350601Y0187565D01*
X0350587Y0187407D01*
X0350569Y0187250D01*
X0350548Y0187093D01*
X0350522Y0186937D01*
X0350492Y0186781D01*
X0350459Y0186626D01*
X0350421Y0186473D01*
X0350380Y0186320D01*
X0350335Y0186168D01*
X0350286Y0186017D01*
X0350233Y0185868D01*
X0350177Y0185720D01*
X0350117Y0185574D01*
X0350053Y0185429D01*
X0349985Y0185286D01*
X0349914Y0185144D01*
X0349840Y0185004D01*
X0349762Y0184867D01*
X0349680Y0184731D01*
X0349596Y0184597D01*
X0349507Y0184466D01*
X0349416Y0184337D01*
X0349321Y0184210D01*
X0349224Y0184085D01*
X0349123Y0183963D01*
X0349019Y0183844D01*
X0348912Y0183727D01*
X0348802Y0183613D01*
X0348689Y0183502D01*
X0348574Y0183393D01*
X0348456Y0183288D01*
X0348335Y0183186D01*
X0348212Y0183086D01*
X0348086Y0182990D01*
X0347958Y0182897D01*
X0347828Y0182807D01*
X0347695Y0182721D01*
X0347560Y0182637D01*
X0347424Y0182558D01*
X0347285Y0182481D01*
X0347144Y0182409D01*
X0347002Y0182339D01*
X0346858Y0182274D01*
X0346712Y0182212D01*
X0346565Y0182154D01*
X0346416Y0182099D01*
X0346266Y0182048D01*
X0346115Y0182001D01*
X0345963Y0181958D01*
X0345810Y0181919D01*
X0345655Y0181883D01*
X0345500Y0181852D01*
X0345344Y0181824D01*
X0345188Y0181800D01*
X0345031Y0181780D01*
X0344873Y0181764D01*
X0344716Y0181752D01*
X0344557Y0181744D01*
X0344399Y0181740D01*
X0344241Y0181740D01*
X0344083Y0181744D01*
X0343924Y0181752D01*
X0343767Y0181764D01*
X0343609Y0181780D01*
X0343452Y0181800D01*
X0343296Y0181824D01*
X0343140Y0181852D01*
X0342985Y0181883D01*
X0342830Y0181919D01*
X0342677Y0181958D01*
X0342525Y0182001D01*
X0342374Y0182048D01*
X0342224Y0182099D01*
X0342075Y0182154D01*
X0341928Y0182212D01*
X0341782Y0182274D01*
X0341638Y0182339D01*
X0341496Y0182409D01*
X0341355Y0182481D01*
X0341216Y0182558D01*
X0341080Y0182637D01*
X0340945Y0182721D01*
X0340812Y0182807D01*
X0340682Y0182897D01*
X0340554Y0182990D01*
X0340428Y0183086D01*
X0340305Y0183186D01*
X0340184Y0183288D01*
X0340066Y0183393D01*
X0339951Y0183502D01*
X0339838Y0183613D01*
X0339728Y0183727D01*
X0339621Y0183844D01*
X0339517Y0183963D01*
X0339416Y0184085D01*
X0339319Y0184210D01*
X0339224Y0184337D01*
X0339133Y0184466D01*
X0339044Y0184597D01*
X0338960Y0184731D01*
X0338878Y0184867D01*
X0338800Y0185004D01*
X0338726Y0185144D01*
X0338655Y0185286D01*
X0338587Y0185429D01*
X0338523Y0185574D01*
X0338463Y0185720D01*
X0338407Y0185868D01*
X0338354Y0186017D01*
X0338305Y0186168D01*
X0338260Y0186320D01*
X0338219Y0186473D01*
X0338181Y0186626D01*
X0338148Y0186781D01*
X0338118Y0186937D01*
X0338092Y0187093D01*
X0338071Y0187250D01*
X0338053Y0187407D01*
X0338039Y0187565D01*
X0338029Y0187723D01*
X0338023Y0187881D01*
X0338021Y0188039D01*
X0338021Y0014811D02*
X0338023Y0014969D01*
X0338029Y0015127D01*
X0338039Y0015285D01*
X0338053Y0015443D01*
X0338071Y0015600D01*
X0338092Y0015757D01*
X0338118Y0015913D01*
X0338148Y0016069D01*
X0338181Y0016224D01*
X0338219Y0016377D01*
X0338260Y0016530D01*
X0338305Y0016682D01*
X0338354Y0016833D01*
X0338407Y0016982D01*
X0338463Y0017130D01*
X0338523Y0017276D01*
X0338587Y0017421D01*
X0338655Y0017564D01*
X0338726Y0017706D01*
X0338800Y0017846D01*
X0338878Y0017983D01*
X0338960Y0018119D01*
X0339044Y0018253D01*
X0339133Y0018384D01*
X0339224Y0018513D01*
X0339319Y0018640D01*
X0339416Y0018765D01*
X0339517Y0018887D01*
X0339621Y0019006D01*
X0339728Y0019123D01*
X0339838Y0019237D01*
X0339951Y0019348D01*
X0340066Y0019457D01*
X0340184Y0019562D01*
X0340305Y0019664D01*
X0340428Y0019764D01*
X0340554Y0019860D01*
X0340682Y0019953D01*
X0340812Y0020043D01*
X0340945Y0020129D01*
X0341080Y0020213D01*
X0341216Y0020292D01*
X0341355Y0020369D01*
X0341496Y0020441D01*
X0341638Y0020511D01*
X0341782Y0020576D01*
X0341928Y0020638D01*
X0342075Y0020696D01*
X0342224Y0020751D01*
X0342374Y0020802D01*
X0342525Y0020849D01*
X0342677Y0020892D01*
X0342830Y0020931D01*
X0342985Y0020967D01*
X0343140Y0020998D01*
X0343296Y0021026D01*
X0343452Y0021050D01*
X0343609Y0021070D01*
X0343767Y0021086D01*
X0343924Y0021098D01*
X0344083Y0021106D01*
X0344241Y0021110D01*
X0344399Y0021110D01*
X0344557Y0021106D01*
X0344716Y0021098D01*
X0344873Y0021086D01*
X0345031Y0021070D01*
X0345188Y0021050D01*
X0345344Y0021026D01*
X0345500Y0020998D01*
X0345655Y0020967D01*
X0345810Y0020931D01*
X0345963Y0020892D01*
X0346115Y0020849D01*
X0346266Y0020802D01*
X0346416Y0020751D01*
X0346565Y0020696D01*
X0346712Y0020638D01*
X0346858Y0020576D01*
X0347002Y0020511D01*
X0347144Y0020441D01*
X0347285Y0020369D01*
X0347424Y0020292D01*
X0347560Y0020213D01*
X0347695Y0020129D01*
X0347828Y0020043D01*
X0347958Y0019953D01*
X0348086Y0019860D01*
X0348212Y0019764D01*
X0348335Y0019664D01*
X0348456Y0019562D01*
X0348574Y0019457D01*
X0348689Y0019348D01*
X0348802Y0019237D01*
X0348912Y0019123D01*
X0349019Y0019006D01*
X0349123Y0018887D01*
X0349224Y0018765D01*
X0349321Y0018640D01*
X0349416Y0018513D01*
X0349507Y0018384D01*
X0349596Y0018253D01*
X0349680Y0018119D01*
X0349762Y0017983D01*
X0349840Y0017846D01*
X0349914Y0017706D01*
X0349985Y0017564D01*
X0350053Y0017421D01*
X0350117Y0017276D01*
X0350177Y0017130D01*
X0350233Y0016982D01*
X0350286Y0016833D01*
X0350335Y0016682D01*
X0350380Y0016530D01*
X0350421Y0016377D01*
X0350459Y0016224D01*
X0350492Y0016069D01*
X0350522Y0015913D01*
X0350548Y0015757D01*
X0350569Y0015600D01*
X0350587Y0015443D01*
X0350601Y0015285D01*
X0350611Y0015127D01*
X0350617Y0014969D01*
X0350619Y0014811D01*
X0350617Y0014653D01*
X0350611Y0014495D01*
X0350601Y0014337D01*
X0350587Y0014179D01*
X0350569Y0014022D01*
X0350548Y0013865D01*
X0350522Y0013709D01*
X0350492Y0013553D01*
X0350459Y0013398D01*
X0350421Y0013245D01*
X0350380Y0013092D01*
X0350335Y0012940D01*
X0350286Y0012789D01*
X0350233Y0012640D01*
X0350177Y0012492D01*
X0350117Y0012346D01*
X0350053Y0012201D01*
X0349985Y0012058D01*
X0349914Y0011916D01*
X0349840Y0011776D01*
X0349762Y0011639D01*
X0349680Y0011503D01*
X0349596Y0011369D01*
X0349507Y0011238D01*
X0349416Y0011109D01*
X0349321Y0010982D01*
X0349224Y0010857D01*
X0349123Y0010735D01*
X0349019Y0010616D01*
X0348912Y0010499D01*
X0348802Y0010385D01*
X0348689Y0010274D01*
X0348574Y0010165D01*
X0348456Y0010060D01*
X0348335Y0009958D01*
X0348212Y0009858D01*
X0348086Y0009762D01*
X0347958Y0009669D01*
X0347828Y0009579D01*
X0347695Y0009493D01*
X0347560Y0009409D01*
X0347424Y0009330D01*
X0347285Y0009253D01*
X0347144Y0009181D01*
X0347002Y0009111D01*
X0346858Y0009046D01*
X0346712Y0008984D01*
X0346565Y0008926D01*
X0346416Y0008871D01*
X0346266Y0008820D01*
X0346115Y0008773D01*
X0345963Y0008730D01*
X0345810Y0008691D01*
X0345655Y0008655D01*
X0345500Y0008624D01*
X0345344Y0008596D01*
X0345188Y0008572D01*
X0345031Y0008552D01*
X0344873Y0008536D01*
X0344716Y0008524D01*
X0344557Y0008516D01*
X0344399Y0008512D01*
X0344241Y0008512D01*
X0344083Y0008516D01*
X0343924Y0008524D01*
X0343767Y0008536D01*
X0343609Y0008552D01*
X0343452Y0008572D01*
X0343296Y0008596D01*
X0343140Y0008624D01*
X0342985Y0008655D01*
X0342830Y0008691D01*
X0342677Y0008730D01*
X0342525Y0008773D01*
X0342374Y0008820D01*
X0342224Y0008871D01*
X0342075Y0008926D01*
X0341928Y0008984D01*
X0341782Y0009046D01*
X0341638Y0009111D01*
X0341496Y0009181D01*
X0341355Y0009253D01*
X0341216Y0009330D01*
X0341080Y0009409D01*
X0340945Y0009493D01*
X0340812Y0009579D01*
X0340682Y0009669D01*
X0340554Y0009762D01*
X0340428Y0009858D01*
X0340305Y0009958D01*
X0340184Y0010060D01*
X0340066Y0010165D01*
X0339951Y0010274D01*
X0339838Y0010385D01*
X0339728Y0010499D01*
X0339621Y0010616D01*
X0339517Y0010735D01*
X0339416Y0010857D01*
X0339319Y0010982D01*
X0339224Y0011109D01*
X0339133Y0011238D01*
X0339044Y0011369D01*
X0338960Y0011503D01*
X0338878Y0011639D01*
X0338800Y0011776D01*
X0338726Y0011916D01*
X0338655Y0012058D01*
X0338587Y0012201D01*
X0338523Y0012346D01*
X0338463Y0012492D01*
X0338407Y0012640D01*
X0338354Y0012789D01*
X0338305Y0012940D01*
X0338260Y0013092D01*
X0338219Y0013245D01*
X0338181Y0013398D01*
X0338148Y0013553D01*
X0338118Y0013709D01*
X0338092Y0013865D01*
X0338071Y0014022D01*
X0338053Y0014179D01*
X0338039Y0014337D01*
X0338029Y0014495D01*
X0338023Y0014653D01*
X0338021Y0014811D01*
D11*
X0304300Y0022500D02*
X0304300Y0028500D01*
X0294300Y0028500D02*
X0294300Y0022500D01*
X0277300Y0068000D02*
X0271300Y0068000D01*
X0271300Y0078000D02*
X0277300Y0078000D01*
X0277300Y0088000D02*
X0271300Y0088000D01*
X0229800Y0088000D02*
X0223800Y0088000D01*
X0223800Y0078000D02*
X0229800Y0078000D01*
X0229800Y0068000D02*
X0223800Y0068000D01*
X0179800Y0068000D02*
X0173800Y0068000D01*
X0173800Y0078000D02*
X0179800Y0078000D01*
X0179800Y0088000D02*
X0173800Y0088000D01*
X0173800Y0113000D02*
X0179800Y0113000D01*
X0179800Y0123000D02*
X0173800Y0123000D01*
X0173800Y0133000D02*
X0179800Y0133000D01*
X0223800Y0133000D02*
X0229800Y0133000D01*
X0229800Y0123000D02*
X0223800Y0123000D01*
X0223800Y0113000D02*
X0229800Y0113000D01*
X0271300Y0113000D02*
X0277300Y0113000D01*
X0277300Y0123000D02*
X0271300Y0123000D01*
X0271300Y0133000D02*
X0277300Y0133000D01*
X0321300Y0133000D02*
X0327300Y0133000D01*
X0327300Y0123000D02*
X0321300Y0123000D01*
X0321300Y0113000D02*
X0327300Y0113000D01*
X0327300Y0088000D02*
X0321300Y0088000D01*
X0321300Y0078000D02*
X0327300Y0078000D01*
X0327300Y0068000D02*
X0321300Y0068000D01*
X0206800Y0028500D02*
X0206800Y0022500D01*
X0196800Y0022500D02*
X0196800Y0028500D01*
X0022300Y0035500D02*
X0016300Y0035500D01*
X0016300Y0045500D02*
X0022300Y0045500D01*
X0022300Y0065500D02*
X0016300Y0065500D01*
X0016300Y0075500D02*
X0022300Y0075500D01*
D12*
X0014800Y0090500D03*
X0014800Y0105500D03*
X0054800Y0105500D03*
X0054800Y0090500D03*
X0161800Y0096000D03*
X0161800Y0102500D03*
X0161800Y0142500D03*
X0146300Y0168000D03*
X0146300Y0180500D03*
X0146300Y0193000D03*
X0186300Y0193000D03*
X0186300Y0180500D03*
X0186300Y0168000D03*
X0241800Y0142500D03*
X0259300Y0142500D03*
X0259300Y0102500D03*
X0259300Y0096000D03*
X0241800Y0096000D03*
X0241800Y0102500D03*
X0241800Y0056000D03*
X0259300Y0056000D03*
X0339300Y0056000D03*
X0339300Y0096000D03*
X0339300Y0102500D03*
X0339300Y0142500D03*
X0161800Y0056000D03*
D13*
X0131800Y0058000D03*
X0156800Y0025500D03*
D14*
X0146800Y0025500D03*
X0136800Y0025500D03*
X0071800Y0058000D03*
X0071800Y0068000D03*
X0071800Y0078000D03*
X0071800Y0088000D03*
X0071800Y0098000D03*
X0081800Y0098000D03*
X0071800Y0108000D03*
X0071800Y0118000D03*
X0071800Y0128000D03*
X0071800Y0138000D03*
X0071800Y0148000D03*
X0071800Y0158000D03*
X0071800Y0168000D03*
X0081800Y0168000D03*
X0091800Y0168000D03*
X0101800Y0168000D03*
X0111800Y0168000D03*
X0121800Y0168000D03*
X0131800Y0168000D03*
X0131800Y0158000D03*
X0131800Y0148000D03*
X0131800Y0138000D03*
X0131800Y0128000D03*
X0131800Y0118000D03*
X0131800Y0108000D03*
X0131800Y0098000D03*
X0121800Y0098000D03*
X0131800Y0088000D03*
X0131800Y0078000D03*
X0131800Y0068000D03*
D15*
X0071800Y0030500D03*
X0061800Y0030500D03*
X0051800Y0030500D03*
X0041800Y0030500D03*
X0041800Y0020500D03*
X0051800Y0020500D03*
X0061800Y0020500D03*
X0071800Y0020500D03*
X0036800Y0123000D03*
X0026800Y0123000D03*
X0026800Y0133000D03*
X0036800Y0133000D03*
X0036800Y0143000D03*
X0026800Y0143000D03*
X0026800Y0153000D03*
X0036800Y0153000D03*
X0036800Y0163000D03*
X0026800Y0163000D03*
D16*
X0039300Y0050500D03*
X0061800Y0048000D03*
X0071800Y0048000D03*
X0154300Y0045500D03*
D17*
X0144300Y0045500D03*
X0039300Y0060500D03*
D18*
X0204300Y0177941D03*
D19*
X0204300Y0172823D03*
X0204300Y0183059D03*
X0204300Y0188177D03*
D20*
X0200553Y0186829D02*
X0024710Y0186829D01*
X0024710Y0186578D02*
X0024710Y0189501D01*
X0023954Y0192323D01*
X0022493Y0194854D01*
X0022297Y0195050D01*
X0142411Y0195050D01*
X0142100Y0194740D01*
X0142100Y0191260D01*
X0144560Y0188800D01*
X0148040Y0188800D01*
X0150500Y0191260D01*
X0150500Y0194740D01*
X0150189Y0195050D01*
X0182411Y0195050D01*
X0182100Y0194740D01*
X0182100Y0191260D01*
X0184560Y0188800D01*
X0188040Y0188800D01*
X0190500Y0191260D01*
X0190500Y0194740D01*
X0190189Y0195050D01*
X0335634Y0195050D01*
X0335438Y0194854D01*
X0333977Y0192323D01*
X0333220Y0189501D01*
X0333220Y0186578D01*
X0333977Y0183755D01*
X0335438Y0181224D01*
X0337505Y0179158D01*
X0340036Y0177697D01*
X0342858Y0176940D01*
X0345781Y0176940D01*
X0348604Y0177697D01*
X0351135Y0179158D01*
X0351331Y0179354D01*
X0351331Y0023497D01*
X0351135Y0023693D01*
X0348604Y0025154D01*
X0345781Y0025910D01*
X0342858Y0025910D01*
X0340036Y0025154D01*
X0337505Y0023693D01*
X0335438Y0021626D01*
X0333977Y0019095D01*
X0333220Y0016272D01*
X0333220Y0013350D01*
X0333977Y0010527D01*
X0335438Y0007996D01*
X0335634Y0007800D01*
X0022297Y0007800D01*
X0022493Y0007996D01*
X0023954Y0010527D01*
X0024710Y0013350D01*
X0024710Y0016272D01*
X0023954Y0019095D01*
X0022493Y0021626D01*
X0020426Y0023693D01*
X0017895Y0025154D01*
X0015072Y0025910D01*
X0012150Y0025910D01*
X0009327Y0025154D01*
X0006796Y0023693D01*
X0006600Y0023497D01*
X0006600Y0179354D01*
X0006796Y0179158D01*
X0009327Y0177697D01*
X0012150Y0176940D01*
X0015072Y0176940D01*
X0017895Y0177697D01*
X0020426Y0179158D01*
X0022493Y0181224D01*
X0023954Y0183755D01*
X0024710Y0186578D01*
X0024349Y0185230D02*
X0200894Y0185230D01*
X0200928Y0185312D02*
X0200322Y0183850D01*
X0200322Y0182268D01*
X0200616Y0181558D01*
X0200482Y0181424D01*
X0200245Y0181014D01*
X0200122Y0180556D01*
X0200122Y0177941D01*
X0204300Y0177941D01*
X0208478Y0177941D01*
X0208478Y0180556D01*
X0208355Y0181014D01*
X0208118Y0181424D01*
X0207984Y0181558D01*
X0208278Y0182268D01*
X0208278Y0183850D01*
X0207672Y0185312D01*
X0207367Y0185618D01*
X0207672Y0185924D01*
X0208278Y0187386D01*
X0208278Y0188968D01*
X0207672Y0190430D01*
X0206553Y0191549D01*
X0205091Y0192155D01*
X0203509Y0192155D01*
X0202047Y0191549D01*
X0200928Y0190430D01*
X0200322Y0188968D01*
X0200322Y0187386D01*
X0200928Y0185924D01*
X0201233Y0185618D01*
X0200928Y0185312D01*
X0200322Y0183632D02*
X0189108Y0183632D01*
X0188040Y0184700D02*
X0184560Y0184700D01*
X0182100Y0182240D01*
X0182100Y0178760D01*
X0184560Y0176300D01*
X0188040Y0176300D01*
X0190500Y0178760D01*
X0190500Y0182240D01*
X0188040Y0184700D01*
X0183492Y0183632D02*
X0149108Y0183632D01*
X0148040Y0184700D02*
X0150500Y0182240D01*
X0150500Y0178760D01*
X0148040Y0176300D01*
X0144560Y0176300D01*
X0142100Y0178760D01*
X0142100Y0182240D01*
X0144560Y0184700D01*
X0148040Y0184700D01*
X0143492Y0183632D02*
X0023883Y0183632D01*
X0022960Y0182033D02*
X0142100Y0182033D01*
X0142100Y0180435D02*
X0021703Y0180435D01*
X0019869Y0178836D02*
X0142100Y0178836D01*
X0143623Y0177238D02*
X0016183Y0177238D01*
X0011039Y0177238D02*
X0006600Y0177238D01*
X0006600Y0178836D02*
X0007353Y0178836D01*
X0006600Y0175639D02*
X0200122Y0175639D01*
X0200122Y0175326D02*
X0200245Y0174868D01*
X0200482Y0174458D01*
X0200616Y0174324D01*
X0200322Y0173614D01*
X0200322Y0172032D01*
X0200928Y0170570D01*
X0202047Y0169450D01*
X0203509Y0168845D01*
X0205091Y0168845D01*
X0206553Y0169450D01*
X0207672Y0170570D01*
X0208278Y0172032D01*
X0208278Y0173614D01*
X0207984Y0174324D01*
X0208118Y0174458D01*
X0208355Y0174868D01*
X0208478Y0175326D01*
X0208478Y0177941D01*
X0204300Y0177941D01*
X0204300Y0177941D01*
X0204300Y0177941D01*
X0200122Y0177941D01*
X0200122Y0175326D01*
X0200499Y0174041D02*
X0006600Y0174041D01*
X0006600Y0172442D02*
X0068747Y0172442D01*
X0068798Y0172493D02*
X0067307Y0171002D01*
X0066500Y0169054D01*
X0066500Y0166946D01*
X0067307Y0164998D01*
X0068798Y0163507D01*
X0070022Y0163000D01*
X0068798Y0162493D01*
X0067307Y0161002D01*
X0066500Y0159054D01*
X0066500Y0156946D01*
X0067307Y0154998D01*
X0068798Y0153507D01*
X0070022Y0153000D01*
X0068798Y0152493D01*
X0067307Y0151002D01*
X0066500Y0149054D01*
X0066500Y0146946D01*
X0066678Y0146516D01*
X0048835Y0164359D01*
X0048835Y0164359D01*
X0048159Y0165035D01*
X0047277Y0165400D01*
X0040905Y0165400D01*
X0038705Y0167600D01*
X0034895Y0167600D01*
X0032200Y0164905D01*
X0032200Y0161095D01*
X0032895Y0160400D01*
X0032794Y0160400D01*
X0031400Y0161794D01*
X0031400Y0164905D01*
X0028705Y0167600D01*
X0024895Y0167600D01*
X0022200Y0164905D01*
X0022200Y0161095D01*
X0024895Y0158400D01*
X0028006Y0158400D01*
X0029765Y0156641D01*
X0029765Y0156641D01*
X0030441Y0155965D01*
X0031323Y0155600D01*
X0032895Y0155600D01*
X0032200Y0154905D01*
X0032200Y0151095D01*
X0032895Y0150400D01*
X0032794Y0150400D01*
X0031400Y0151794D01*
X0031400Y0154905D01*
X0028705Y0157600D01*
X0024895Y0157600D01*
X0022200Y0154905D01*
X0022200Y0151095D01*
X0024895Y0148400D01*
X0028006Y0148400D01*
X0029765Y0146641D01*
X0029765Y0146641D01*
X0030441Y0145965D01*
X0031323Y0145600D01*
X0032895Y0145600D01*
X0032200Y0144905D01*
X0032200Y0141095D01*
X0034895Y0138400D01*
X0038705Y0138400D01*
X0040905Y0140600D01*
X0045806Y0140600D01*
X0066749Y0119656D01*
X0066500Y0119054D01*
X0066500Y0116946D01*
X0066678Y0116516D01*
X0048835Y0134359D01*
X0048159Y0135035D01*
X0047277Y0135400D01*
X0040905Y0135400D01*
X0038705Y0137600D01*
X0034895Y0137600D01*
X0032200Y0134905D01*
X0032200Y0131095D01*
X0034895Y0128400D01*
X0038705Y0128400D01*
X0040905Y0130600D01*
X0045806Y0130600D01*
X0066749Y0109656D01*
X0066500Y0109054D01*
X0066500Y0106946D01*
X0067307Y0104998D01*
X0068798Y0103507D01*
X0070022Y0103000D01*
X0068798Y0102493D01*
X0067307Y0101002D01*
X0066500Y0099054D01*
X0066500Y0096946D01*
X0067307Y0094998D01*
X0068798Y0093507D01*
X0070022Y0093000D01*
X0068798Y0092493D01*
X0067307Y0091002D01*
X0066500Y0089054D01*
X0066500Y0086946D01*
X0067307Y0084998D01*
X0068798Y0083507D01*
X0070022Y0083000D01*
X0068798Y0082493D01*
X0067307Y0081002D01*
X0066500Y0079054D01*
X0066500Y0076946D01*
X0067307Y0074998D01*
X0068798Y0073507D01*
X0070022Y0073000D01*
X0068798Y0072493D01*
X0067307Y0071002D01*
X0066500Y0069054D01*
X0066500Y0066946D01*
X0066678Y0066516D01*
X0024200Y0108994D01*
X0024200Y0118812D01*
X0024812Y0118200D01*
X0026600Y0118200D01*
X0026600Y0122800D01*
X0027000Y0122800D01*
X0027000Y0123200D01*
X0026600Y0123200D01*
X0026600Y0127800D01*
X0024812Y0127800D01*
X0024200Y0127188D01*
X0024200Y0129095D01*
X0024895Y0128400D01*
X0028705Y0128400D01*
X0031400Y0131095D01*
X0031400Y0134905D01*
X0028705Y0137600D01*
X0024895Y0137600D01*
X0024200Y0136905D01*
X0024200Y0137006D01*
X0025594Y0138400D01*
X0028705Y0138400D01*
X0031400Y0141095D01*
X0031400Y0144905D01*
X0028705Y0147600D01*
X0024895Y0147600D01*
X0022200Y0144905D01*
X0022200Y0141794D01*
X0019765Y0139359D01*
X0019400Y0138477D01*
X0019400Y0107523D01*
X0019765Y0106641D01*
X0020441Y0105965D01*
X0066749Y0059656D01*
X0066500Y0059054D01*
X0066500Y0056946D01*
X0067307Y0054998D01*
X0068798Y0053507D01*
X0070609Y0052756D01*
X0069053Y0052112D01*
X0067688Y0050747D01*
X0066950Y0048965D01*
X0066950Y0047035D01*
X0067627Y0045400D01*
X0066143Y0045400D01*
X0066480Y0046061D01*
X0066726Y0046817D01*
X0066850Y0047603D01*
X0066850Y0048000D01*
X0066850Y0048397D01*
X0066726Y0049183D01*
X0066480Y0049939D01*
X0066119Y0050647D01*
X0065652Y0051290D01*
X0065090Y0051852D01*
X0064447Y0052319D01*
X0063739Y0052680D01*
X0062983Y0052926D01*
X0062197Y0053050D01*
X0061800Y0053050D01*
X0061800Y0048000D01*
X0061800Y0048000D01*
X0066850Y0048000D01*
X0061800Y0048000D01*
X0061800Y0048000D01*
X0061800Y0048000D01*
X0056750Y0048000D01*
X0056750Y0048397D01*
X0056874Y0049183D01*
X0057120Y0049939D01*
X0057481Y0050647D01*
X0057948Y0051290D01*
X0058510Y0051852D01*
X0059153Y0052319D01*
X0059861Y0052680D01*
X0060617Y0052926D01*
X0061403Y0053050D01*
X0061800Y0053050D01*
X0061800Y0048000D01*
X0056750Y0048000D01*
X0056750Y0047603D01*
X0056874Y0046817D01*
X0057120Y0046061D01*
X0057457Y0045400D01*
X0046323Y0045400D01*
X0045441Y0045035D01*
X0040441Y0040035D01*
X0039765Y0039359D01*
X0039400Y0038477D01*
X0039400Y0034605D01*
X0037200Y0032405D01*
X0037200Y0028595D01*
X0039895Y0025900D01*
X0043705Y0025900D01*
X0044400Y0026595D01*
X0044400Y0026494D01*
X0043006Y0025100D01*
X0039895Y0025100D01*
X0037200Y0022405D01*
X0037200Y0018595D01*
X0039895Y0015900D01*
X0043705Y0015900D01*
X0046400Y0018595D01*
X0046400Y0021706D01*
X0048835Y0024141D01*
X0049200Y0025023D01*
X0049200Y0026595D01*
X0049895Y0025900D01*
X0053705Y0025900D01*
X0056400Y0028595D01*
X0056400Y0032405D01*
X0055500Y0033306D01*
X0057794Y0035600D01*
X0063506Y0035600D01*
X0063006Y0035100D01*
X0059895Y0035100D01*
X0057200Y0032405D01*
X0057200Y0028595D01*
X0059895Y0025900D01*
X0063705Y0025900D01*
X0066400Y0028595D01*
X0066400Y0031706D01*
X0067794Y0033100D01*
X0067895Y0033100D01*
X0067200Y0032405D01*
X0067200Y0028595D01*
X0067895Y0027900D01*
X0066323Y0027900D01*
X0065441Y0027535D01*
X0063006Y0025100D01*
X0059895Y0025100D01*
X0057200Y0022405D01*
X0057200Y0018595D01*
X0059895Y0015900D01*
X0063705Y0015900D01*
X0066400Y0018595D01*
X0066400Y0021706D01*
X0067000Y0022306D01*
X0067000Y0020700D01*
X0071600Y0020700D01*
X0071600Y0020300D01*
X0072000Y0020300D01*
X0072000Y0020700D01*
X0076600Y0020700D01*
X0076600Y0022488D01*
X0075988Y0023100D01*
X0079777Y0023100D01*
X0080659Y0023465D01*
X0093835Y0036641D01*
X0094200Y0037523D01*
X0094200Y0077006D01*
X0116678Y0099484D01*
X0116500Y0099054D01*
X0116500Y0096946D01*
X0117307Y0094998D01*
X0118798Y0093507D01*
X0120746Y0092700D01*
X0122854Y0092700D01*
X0124802Y0093507D01*
X0126293Y0094998D01*
X0126800Y0096222D01*
X0127307Y0094998D01*
X0128798Y0093507D01*
X0130022Y0093000D01*
X0128798Y0092493D01*
X0127307Y0091002D01*
X0126500Y0089054D01*
X0126500Y0086946D01*
X0127307Y0084998D01*
X0128798Y0083507D01*
X0130022Y0083000D01*
X0128798Y0082493D01*
X0127307Y0081002D01*
X0126500Y0079054D01*
X0126500Y0076946D01*
X0127307Y0074998D01*
X0128798Y0073507D01*
X0130022Y0073000D01*
X0128798Y0072493D01*
X0127307Y0071002D01*
X0126500Y0069054D01*
X0126500Y0066946D01*
X0127307Y0064998D01*
X0128798Y0063507D01*
X0128814Y0063500D01*
X0127863Y0063500D01*
X0127405Y0063377D01*
X0126995Y0063140D01*
X0126660Y0062805D01*
X0126423Y0062395D01*
X0126300Y0061937D01*
X0126300Y0058200D01*
X0131600Y0058200D01*
X0131600Y0057800D01*
X0132000Y0057800D01*
X0132000Y0058200D01*
X0137300Y0058200D01*
X0137300Y0061937D01*
X0137177Y0062395D01*
X0136940Y0062805D01*
X0136605Y0063140D01*
X0136195Y0063377D01*
X0135737Y0063500D01*
X0134786Y0063500D01*
X0134802Y0063507D01*
X0136293Y0064998D01*
X0137100Y0066946D01*
X0137100Y0069054D01*
X0136293Y0071002D01*
X0134802Y0072493D01*
X0133578Y0073000D01*
X0134802Y0073507D01*
X0136293Y0074998D01*
X0137100Y0076946D01*
X0137100Y0079054D01*
X0136293Y0081002D01*
X0134802Y0082493D01*
X0133578Y0083000D01*
X0134802Y0083507D01*
X0136293Y0084998D01*
X0137100Y0086946D01*
X0137100Y0089054D01*
X0136293Y0091002D01*
X0134802Y0092493D01*
X0133578Y0093000D01*
X0134802Y0093507D01*
X0136293Y0094998D01*
X0137100Y0096946D01*
X0137100Y0099054D01*
X0136293Y0101002D01*
X0134802Y0102493D01*
X0133578Y0103000D01*
X0134802Y0103507D01*
X0136293Y0104998D01*
X0137100Y0106946D01*
X0137100Y0109054D01*
X0136293Y0111002D01*
X0134802Y0112493D01*
X0133578Y0113000D01*
X0134802Y0113507D01*
X0136293Y0114998D01*
X0137100Y0116946D01*
X0137100Y0119054D01*
X0136293Y0121002D01*
X0134802Y0122493D01*
X0133578Y0123000D01*
X0134802Y0123507D01*
X0136293Y0124998D01*
X0137100Y0126946D01*
X0137100Y0129054D01*
X0136293Y0131002D01*
X0134802Y0132493D01*
X0133578Y0133000D01*
X0134802Y0133507D01*
X0136293Y0134998D01*
X0137100Y0136946D01*
X0137100Y0139054D01*
X0136293Y0141002D01*
X0134802Y0142493D01*
X0133578Y0143000D01*
X0134802Y0143507D01*
X0136293Y0144998D01*
X0137100Y0146946D01*
X0137100Y0149054D01*
X0136293Y0151002D01*
X0134802Y0152493D01*
X0133578Y0153000D01*
X0134802Y0153507D01*
X0136293Y0154998D01*
X0137100Y0156946D01*
X0137100Y0159054D01*
X0136293Y0161002D01*
X0134802Y0162493D01*
X0133578Y0163000D01*
X0134802Y0163507D01*
X0136293Y0164998D01*
X0137100Y0166946D01*
X0137100Y0169054D01*
X0136293Y0171002D01*
X0134802Y0172493D01*
X0132854Y0173300D01*
X0130746Y0173300D01*
X0128798Y0172493D01*
X0127307Y0171002D01*
X0126800Y0169778D01*
X0126293Y0171002D01*
X0124802Y0172493D01*
X0122854Y0173300D01*
X0120746Y0173300D01*
X0118798Y0172493D01*
X0117307Y0171002D01*
X0116800Y0169778D01*
X0116293Y0171002D01*
X0114802Y0172493D01*
X0112854Y0173300D01*
X0110746Y0173300D01*
X0108798Y0172493D01*
X0107307Y0171002D01*
X0106800Y0169778D01*
X0106293Y0171002D01*
X0104802Y0172493D01*
X0102854Y0173300D01*
X0100746Y0173300D01*
X0098798Y0172493D01*
X0097307Y0171002D01*
X0096800Y0169778D01*
X0096293Y0171002D01*
X0094802Y0172493D01*
X0092854Y0173300D01*
X0090746Y0173300D01*
X0088798Y0172493D01*
X0087307Y0171002D01*
X0086800Y0169778D01*
X0086293Y0171002D01*
X0084802Y0172493D01*
X0082854Y0173300D01*
X0080746Y0173300D01*
X0078798Y0172493D01*
X0077307Y0171002D01*
X0076800Y0169778D01*
X0076293Y0171002D01*
X0074802Y0172493D01*
X0072854Y0173300D01*
X0070746Y0173300D01*
X0068798Y0172493D01*
X0067241Y0170844D02*
X0006600Y0170844D01*
X0006600Y0169245D02*
X0066579Y0169245D01*
X0066500Y0167647D02*
X0006600Y0167647D01*
X0006600Y0166048D02*
X0023343Y0166048D01*
X0022200Y0164450D02*
X0006600Y0164450D01*
X0006600Y0162851D02*
X0022200Y0162851D01*
X0022200Y0161253D02*
X0006600Y0161253D01*
X0006600Y0159654D02*
X0023641Y0159654D01*
X0023752Y0156457D02*
X0006600Y0156457D01*
X0006600Y0154859D02*
X0022200Y0154859D01*
X0022200Y0153260D02*
X0006600Y0153260D01*
X0006600Y0151662D02*
X0022200Y0151662D01*
X0023232Y0150063D02*
X0006600Y0150063D01*
X0006600Y0148465D02*
X0024830Y0148465D01*
X0024161Y0146866D02*
X0006600Y0146866D01*
X0006600Y0145268D02*
X0022562Y0145268D01*
X0022200Y0143669D02*
X0006600Y0143669D01*
X0006600Y0142070D02*
X0022200Y0142070D01*
X0020878Y0140472D02*
X0006600Y0140472D01*
X0006600Y0138873D02*
X0019564Y0138873D01*
X0019400Y0137275D02*
X0006600Y0137275D01*
X0006600Y0135676D02*
X0019400Y0135676D01*
X0019400Y0134078D02*
X0006600Y0134078D01*
X0006600Y0132479D02*
X0019400Y0132479D01*
X0019400Y0130881D02*
X0006600Y0130881D01*
X0006600Y0129282D02*
X0019400Y0129282D01*
X0019400Y0127684D02*
X0006600Y0127684D01*
X0006600Y0126085D02*
X0019400Y0126085D01*
X0019400Y0124487D02*
X0006600Y0124487D01*
X0006600Y0122888D02*
X0019400Y0122888D01*
X0019400Y0121290D02*
X0006600Y0121290D01*
X0006600Y0119691D02*
X0019400Y0119691D01*
X0019400Y0118093D02*
X0006600Y0118093D01*
X0006600Y0116494D02*
X0019400Y0116494D01*
X0019400Y0114896D02*
X0006600Y0114896D01*
X0006600Y0113297D02*
X0019400Y0113297D01*
X0019400Y0111699D02*
X0006600Y0111699D01*
X0006600Y0110100D02*
X0019400Y0110100D01*
X0019400Y0108502D02*
X0017738Y0108502D01*
X0016540Y0109700D02*
X0013060Y0109700D01*
X0010600Y0107240D01*
X0010600Y0103760D01*
X0013060Y0101300D01*
X0016540Y0101300D01*
X0019000Y0103760D01*
X0019000Y0107240D01*
X0016540Y0109700D01*
X0011862Y0108502D02*
X0006600Y0108502D01*
X0006600Y0106903D02*
X0010600Y0106903D01*
X0010600Y0105305D02*
X0006600Y0105305D01*
X0006600Y0103706D02*
X0010654Y0103706D01*
X0012253Y0102108D02*
X0006600Y0102108D01*
X0006600Y0100509D02*
X0025897Y0100509D01*
X0027495Y0098911D02*
X0006600Y0098911D01*
X0006600Y0097312D02*
X0029094Y0097312D01*
X0030692Y0095714D02*
X0006600Y0095714D01*
X0006600Y0094115D02*
X0012475Y0094115D01*
X0013060Y0094700D02*
X0010600Y0092240D01*
X0010600Y0088760D01*
X0013060Y0086300D01*
X0016540Y0086300D01*
X0019000Y0088760D01*
X0019000Y0092240D01*
X0016540Y0094700D01*
X0013060Y0094700D01*
X0010877Y0092517D02*
X0006600Y0092517D01*
X0006600Y0090918D02*
X0010600Y0090918D01*
X0010600Y0089320D02*
X0006600Y0089320D01*
X0006600Y0087721D02*
X0011639Y0087721D01*
X0006600Y0086123D02*
X0040283Y0086123D01*
X0038685Y0087721D02*
X0017961Y0087721D01*
X0019000Y0089320D02*
X0037086Y0089320D01*
X0035488Y0090918D02*
X0019000Y0090918D01*
X0018723Y0092517D02*
X0033889Y0092517D01*
X0032291Y0094115D02*
X0017125Y0094115D01*
X0017347Y0102108D02*
X0024298Y0102108D01*
X0022700Y0103706D02*
X0018946Y0103706D01*
X0019000Y0105305D02*
X0021101Y0105305D01*
X0019657Y0106903D02*
X0019000Y0106903D01*
X0021800Y0108000D02*
X0021800Y0138000D01*
X0026800Y0143000D01*
X0031400Y0143669D02*
X0032200Y0143669D01*
X0032200Y0142070D02*
X0031400Y0142070D01*
X0030777Y0140472D02*
X0032823Y0140472D01*
X0034421Y0138873D02*
X0029179Y0138873D01*
X0029030Y0137275D02*
X0034570Y0137275D01*
X0032971Y0135676D02*
X0030629Y0135676D01*
X0031400Y0134078D02*
X0032200Y0134078D01*
X0032200Y0132479D02*
X0031400Y0132479D01*
X0031186Y0130881D02*
X0032414Y0130881D01*
X0034012Y0129282D02*
X0029588Y0129282D01*
X0028788Y0127800D02*
X0027000Y0127800D01*
X0027000Y0123200D01*
X0031600Y0123200D01*
X0031600Y0124988D01*
X0028788Y0127800D01*
X0028904Y0127684D02*
X0048722Y0127684D01*
X0047123Y0129282D02*
X0039588Y0129282D01*
X0038705Y0127600D02*
X0034895Y0127600D01*
X0032200Y0124905D01*
X0032200Y0121095D01*
X0034895Y0118400D01*
X0038705Y0118400D01*
X0041400Y0121095D01*
X0041400Y0124905D01*
X0038705Y0127600D01*
X0040220Y0126085D02*
X0050321Y0126085D01*
X0051919Y0124487D02*
X0041400Y0124487D01*
X0041400Y0122888D02*
X0053518Y0122888D01*
X0055116Y0121290D02*
X0041400Y0121290D01*
X0039997Y0119691D02*
X0056715Y0119691D01*
X0058313Y0118093D02*
X0024200Y0118093D01*
X0024200Y0116494D02*
X0059912Y0116494D01*
X0061510Y0114896D02*
X0024200Y0114896D01*
X0024200Y0113297D02*
X0063109Y0113297D01*
X0064707Y0111699D02*
X0024200Y0111699D01*
X0024200Y0110100D02*
X0066306Y0110100D01*
X0066500Y0108502D02*
X0058021Y0108502D01*
X0059200Y0107323D02*
X0056623Y0109900D01*
X0054800Y0109900D01*
X0054800Y0105500D01*
X0059200Y0105500D01*
X0059200Y0107323D01*
X0059200Y0106903D02*
X0066518Y0106903D01*
X0067180Y0105305D02*
X0059200Y0105305D01*
X0059200Y0105500D02*
X0054800Y0105500D01*
X0054800Y0105500D01*
X0054800Y0105500D01*
X0054800Y0101100D01*
X0056623Y0101100D01*
X0059200Y0103677D01*
X0059200Y0105500D01*
X0059200Y0103706D02*
X0068598Y0103706D01*
X0068412Y0102108D02*
X0057630Y0102108D01*
X0054800Y0102108D02*
X0054800Y0102108D01*
X0054800Y0101100D02*
X0052977Y0101100D01*
X0050400Y0103677D01*
X0050400Y0105500D01*
X0054800Y0105500D01*
X0054800Y0105500D01*
X0054800Y0105500D01*
X0054800Y0109900D01*
X0052977Y0109900D01*
X0050400Y0107323D01*
X0050400Y0105500D01*
X0054800Y0105500D01*
X0054800Y0101100D01*
X0051970Y0102108D02*
X0031086Y0102108D01*
X0029488Y0103706D02*
X0050400Y0103706D01*
X0050400Y0105305D02*
X0027889Y0105305D01*
X0026291Y0106903D02*
X0050400Y0106903D01*
X0051579Y0108502D02*
X0024692Y0108502D01*
X0021800Y0108000D02*
X0071800Y0058000D01*
X0068152Y0054152D02*
X0042789Y0054152D01*
X0042590Y0054352D02*
X0041947Y0054819D01*
X0041239Y0055180D01*
X0040483Y0055426D01*
X0039697Y0055550D01*
X0039300Y0055550D01*
X0039300Y0050500D01*
X0039300Y0050500D01*
X0044350Y0050500D01*
X0044350Y0050897D01*
X0044226Y0051683D01*
X0043980Y0052439D01*
X0043619Y0053147D01*
X0043152Y0053790D01*
X0042590Y0054352D01*
X0043213Y0055650D02*
X0044150Y0056587D01*
X0044150Y0064413D01*
X0043213Y0065350D01*
X0035387Y0065350D01*
X0034450Y0064413D01*
X0034450Y0056587D01*
X0035387Y0055650D01*
X0043213Y0055650D01*
X0043314Y0055751D02*
X0066995Y0055751D01*
X0066500Y0057349D02*
X0044150Y0057349D01*
X0044150Y0058948D02*
X0066500Y0058948D01*
X0065859Y0060546D02*
X0044150Y0060546D01*
X0044150Y0062145D02*
X0064261Y0062145D01*
X0062662Y0063743D02*
X0044150Y0063743D01*
X0043221Y0065342D02*
X0061064Y0065342D01*
X0059465Y0066940D02*
X0026682Y0066940D01*
X0026900Y0066415D02*
X0026200Y0068106D01*
X0024906Y0069400D01*
X0023215Y0070100D01*
X0015385Y0070100D01*
X0013694Y0069400D01*
X0012400Y0068106D01*
X0011700Y0066415D01*
X0011700Y0064585D01*
X0012400Y0062894D01*
X0013694Y0061600D01*
X0015385Y0060900D01*
X0016900Y0060900D01*
X0016900Y0050100D01*
X0015385Y0050100D01*
X0013694Y0049400D01*
X0012400Y0048106D01*
X0011700Y0046415D01*
X0011700Y0044585D01*
X0012400Y0042894D01*
X0013694Y0041600D01*
X0015385Y0040900D01*
X0023215Y0040900D01*
X0024906Y0041600D01*
X0026200Y0042894D01*
X0026900Y0044585D01*
X0026900Y0046415D01*
X0026200Y0048106D01*
X0024906Y0049400D01*
X0023215Y0050100D01*
X0021700Y0050100D01*
X0021700Y0060900D01*
X0023215Y0060900D01*
X0024906Y0061600D01*
X0026200Y0062894D01*
X0026900Y0064585D01*
X0026900Y0066415D01*
X0026900Y0065342D02*
X0035379Y0065342D01*
X0034450Y0063743D02*
X0026551Y0063743D01*
X0025450Y0062145D02*
X0034450Y0062145D01*
X0034450Y0060546D02*
X0021700Y0060546D01*
X0021700Y0058948D02*
X0034450Y0058948D01*
X0034450Y0057349D02*
X0021700Y0057349D01*
X0021700Y0055751D02*
X0035286Y0055751D01*
X0036010Y0054352D02*
X0035448Y0053790D01*
X0034981Y0053147D01*
X0034620Y0052439D01*
X0034374Y0051683D01*
X0034250Y0050897D01*
X0034250Y0050500D01*
X0039300Y0050500D01*
X0039300Y0050500D01*
X0039300Y0050500D01*
X0039300Y0055550D01*
X0038903Y0055550D01*
X0038117Y0055426D01*
X0037361Y0055180D01*
X0036653Y0054819D01*
X0036010Y0054352D01*
X0035811Y0054152D02*
X0021700Y0054152D01*
X0021700Y0052554D02*
X0034679Y0052554D01*
X0034259Y0050955D02*
X0021700Y0050955D01*
X0024949Y0049357D02*
X0034368Y0049357D01*
X0034374Y0049317D02*
X0034620Y0048561D01*
X0034981Y0047853D01*
X0035448Y0047210D01*
X0036010Y0046648D01*
X0036653Y0046181D01*
X0037361Y0045820D01*
X0038117Y0045574D01*
X0038903Y0045450D01*
X0039300Y0045450D01*
X0039697Y0045450D01*
X0040483Y0045574D01*
X0041239Y0045820D01*
X0041947Y0046181D01*
X0042590Y0046648D01*
X0043152Y0047210D01*
X0043619Y0047853D01*
X0043980Y0048561D01*
X0044226Y0049317D01*
X0044350Y0050103D01*
X0044350Y0050500D01*
X0039300Y0050500D01*
X0039300Y0045450D01*
X0039300Y0050500D01*
X0039300Y0050500D01*
X0034250Y0050500D01*
X0034250Y0050103D01*
X0034374Y0049317D01*
X0035050Y0047758D02*
X0026344Y0047758D01*
X0026900Y0046160D02*
X0036695Y0046160D01*
X0039300Y0046160D02*
X0039300Y0046160D01*
X0039300Y0047758D02*
X0039300Y0047758D01*
X0039300Y0049357D02*
X0039300Y0049357D01*
X0039300Y0050955D02*
X0039300Y0050955D01*
X0039300Y0052554D02*
X0039300Y0052554D01*
X0039300Y0054152D02*
X0039300Y0054152D01*
X0043921Y0052554D02*
X0059614Y0052554D01*
X0061800Y0052554D02*
X0061800Y0052554D01*
X0061800Y0050955D02*
X0061800Y0050955D01*
X0061800Y0049357D02*
X0061800Y0049357D01*
X0063986Y0052554D02*
X0070120Y0052554D01*
X0067896Y0050955D02*
X0065895Y0050955D01*
X0066669Y0049357D02*
X0067112Y0049357D01*
X0066950Y0047758D02*
X0066850Y0047758D01*
X0066512Y0046160D02*
X0067313Y0046160D01*
X0076800Y0043000D02*
X0046800Y0043000D01*
X0041800Y0038000D01*
X0041800Y0030500D01*
X0037200Y0030175D02*
X0006600Y0030175D01*
X0006600Y0031773D02*
X0013263Y0031773D01*
X0013173Y0031839D02*
X0013784Y0031395D01*
X0014457Y0031052D01*
X0015176Y0030818D01*
X0015922Y0030700D01*
X0019100Y0030700D01*
X0019100Y0035300D01*
X0019500Y0035300D01*
X0019500Y0035700D01*
X0019100Y0035700D01*
X0019100Y0040300D01*
X0015922Y0040300D01*
X0015176Y0040182D01*
X0014457Y0039948D01*
X0013784Y0039605D01*
X0013173Y0039161D01*
X0012639Y0038627D01*
X0012195Y0038016D01*
X0011852Y0037343D01*
X0011618Y0036624D01*
X0011500Y0035878D01*
X0011500Y0035700D01*
X0019100Y0035700D01*
X0019100Y0035300D01*
X0011500Y0035300D01*
X0011500Y0035122D01*
X0011618Y0034376D01*
X0011852Y0033657D01*
X0012195Y0032984D01*
X0012639Y0032373D01*
X0013173Y0031839D01*
X0011997Y0033372D02*
X0006600Y0033372D01*
X0006600Y0034970D02*
X0011524Y0034970D01*
X0011609Y0036569D02*
X0006600Y0036569D01*
X0006600Y0038167D02*
X0012305Y0038167D01*
X0014099Y0039766D02*
X0006600Y0039766D01*
X0006600Y0041364D02*
X0014264Y0041364D01*
X0012372Y0042963D02*
X0006600Y0042963D01*
X0006600Y0044561D02*
X0011710Y0044561D01*
X0011700Y0046160D02*
X0006600Y0046160D01*
X0006600Y0047758D02*
X0012256Y0047758D01*
X0013651Y0049357D02*
X0006600Y0049357D01*
X0006600Y0050955D02*
X0016900Y0050955D01*
X0016900Y0052554D02*
X0006600Y0052554D01*
X0006600Y0054152D02*
X0016900Y0054152D01*
X0016900Y0055751D02*
X0006600Y0055751D01*
X0006600Y0057349D02*
X0016900Y0057349D01*
X0016900Y0058948D02*
X0006600Y0058948D01*
X0006600Y0060546D02*
X0016900Y0060546D01*
X0013150Y0062145D02*
X0006600Y0062145D01*
X0006600Y0063743D02*
X0012049Y0063743D01*
X0011700Y0065342D02*
X0006600Y0065342D01*
X0006600Y0066940D02*
X0011918Y0066940D01*
X0012834Y0068539D02*
X0006600Y0068539D01*
X0006600Y0070137D02*
X0056268Y0070137D01*
X0057867Y0068539D02*
X0025766Y0068539D01*
X0024906Y0071600D02*
X0026200Y0072894D01*
X0026900Y0074585D01*
X0026900Y0076415D01*
X0026200Y0078106D01*
X0024906Y0079400D01*
X0023215Y0080100D01*
X0015385Y0080100D01*
X0013694Y0079400D01*
X0012400Y0078106D01*
X0011700Y0076415D01*
X0011700Y0074585D01*
X0012400Y0072894D01*
X0013694Y0071600D01*
X0015385Y0070900D01*
X0023215Y0070900D01*
X0024906Y0071600D01*
X0025041Y0071736D02*
X0054670Y0071736D01*
X0053071Y0073334D02*
X0026382Y0073334D01*
X0026900Y0074933D02*
X0051473Y0074933D01*
X0049874Y0076532D02*
X0026852Y0076532D01*
X0026175Y0078130D02*
X0048276Y0078130D01*
X0046677Y0079729D02*
X0024112Y0079729D01*
X0014488Y0079729D02*
X0006600Y0079729D01*
X0006600Y0081327D02*
X0045079Y0081327D01*
X0043480Y0082926D02*
X0006600Y0082926D01*
X0006600Y0084524D02*
X0041882Y0084524D01*
X0045473Y0087721D02*
X0051639Y0087721D01*
X0050600Y0088760D02*
X0053060Y0086300D01*
X0056540Y0086300D01*
X0059000Y0088760D01*
X0059000Y0092240D01*
X0056540Y0094700D01*
X0053060Y0094700D01*
X0050600Y0092240D01*
X0050600Y0088760D01*
X0050600Y0089320D02*
X0043874Y0089320D01*
X0042276Y0090918D02*
X0050600Y0090918D01*
X0050877Y0092517D02*
X0040677Y0092517D01*
X0039079Y0094115D02*
X0052475Y0094115D01*
X0057125Y0094115D02*
X0068190Y0094115D01*
X0068855Y0092517D02*
X0058723Y0092517D01*
X0059000Y0090918D02*
X0067272Y0090918D01*
X0066610Y0089320D02*
X0059000Y0089320D01*
X0057961Y0087721D02*
X0066500Y0087721D01*
X0066841Y0086123D02*
X0047072Y0086123D01*
X0048670Y0084524D02*
X0067781Y0084524D01*
X0069842Y0082926D02*
X0050269Y0082926D01*
X0051867Y0081327D02*
X0067632Y0081327D01*
X0066779Y0079729D02*
X0053466Y0079729D01*
X0055064Y0078130D02*
X0066500Y0078130D01*
X0066672Y0076532D02*
X0056663Y0076532D01*
X0058261Y0074933D02*
X0067372Y0074933D01*
X0069214Y0073334D02*
X0059860Y0073334D01*
X0061458Y0071736D02*
X0068041Y0071736D01*
X0066949Y0070137D02*
X0063057Y0070137D01*
X0064655Y0068539D02*
X0066500Y0068539D01*
X0066502Y0066940D02*
X0066254Y0066940D01*
X0071800Y0078000D02*
X0081800Y0068000D01*
X0081800Y0048000D01*
X0076800Y0043000D01*
X0079300Y0040500D02*
X0051800Y0040500D01*
X0046800Y0035500D01*
X0046800Y0025500D01*
X0041800Y0020500D01*
X0038575Y0023781D02*
X0020274Y0023781D01*
X0021937Y0022182D02*
X0037200Y0022182D01*
X0037200Y0020584D02*
X0023094Y0020584D01*
X0023983Y0018985D02*
X0037200Y0018985D01*
X0038408Y0017387D02*
X0024412Y0017387D01*
X0024710Y0015788D02*
X0069724Y0015788D01*
X0069812Y0015700D02*
X0071600Y0015700D01*
X0071600Y0020300D01*
X0067000Y0020300D01*
X0067000Y0018512D01*
X0069812Y0015700D01*
X0071600Y0015788D02*
X0072000Y0015788D01*
X0072000Y0015700D02*
X0073788Y0015700D01*
X0076600Y0018512D01*
X0076600Y0020300D01*
X0072000Y0020300D01*
X0072000Y0015700D01*
X0072000Y0017387D02*
X0071600Y0017387D01*
X0071600Y0018985D02*
X0072000Y0018985D01*
X0072000Y0020584D02*
X0134820Y0020584D01*
X0135746Y0020200D02*
X0133798Y0021007D01*
X0132307Y0022498D01*
X0131500Y0024446D01*
X0131500Y0026554D01*
X0132307Y0028502D01*
X0133798Y0029993D01*
X0135746Y0030800D01*
X0137854Y0030800D01*
X0139802Y0029993D01*
X0141293Y0028502D01*
X0141685Y0027556D01*
X0141703Y0027611D01*
X0142096Y0028383D01*
X0142605Y0029083D01*
X0143217Y0029695D01*
X0143917Y0030204D01*
X0144689Y0030597D01*
X0145512Y0030865D01*
X0146367Y0031000D01*
X0146616Y0031000D01*
X0146616Y0025684D01*
X0146984Y0025684D01*
X0146984Y0031000D01*
X0147233Y0031000D01*
X0148088Y0030865D01*
X0148911Y0030597D01*
X0149683Y0030204D01*
X0150383Y0029695D01*
X0150995Y0029083D01*
X0151500Y0028388D01*
X0151500Y0029863D01*
X0152437Y0030800D01*
X0161163Y0030800D01*
X0162100Y0029863D01*
X0162100Y0021137D01*
X0161163Y0020200D01*
X0152437Y0020200D01*
X0151500Y0021137D01*
X0151500Y0022612D01*
X0150995Y0021917D01*
X0150383Y0021305D01*
X0149683Y0020796D01*
X0148911Y0020403D01*
X0148088Y0020135D01*
X0147233Y0020000D01*
X0146984Y0020000D01*
X0146984Y0025316D01*
X0146616Y0025316D01*
X0146616Y0020000D01*
X0146367Y0020000D01*
X0145512Y0020135D01*
X0144689Y0020403D01*
X0143917Y0020796D01*
X0143217Y0021305D01*
X0142605Y0021917D01*
X0142096Y0022617D01*
X0141703Y0023389D01*
X0141685Y0023444D01*
X0141293Y0022498D01*
X0139802Y0021007D01*
X0137854Y0020200D01*
X0135746Y0020200D01*
X0138780Y0020584D02*
X0144334Y0020584D01*
X0146616Y0020584D02*
X0146984Y0020584D01*
X0146984Y0022182D02*
X0146616Y0022182D01*
X0146616Y0023781D02*
X0146984Y0023781D01*
X0149266Y0020584D02*
X0152054Y0020584D01*
X0151500Y0022182D02*
X0151188Y0022182D01*
X0146984Y0026978D02*
X0146616Y0026978D01*
X0146616Y0028576D02*
X0146984Y0028576D01*
X0146984Y0030175D02*
X0146616Y0030175D01*
X0143877Y0030175D02*
X0139364Y0030175D01*
X0141219Y0028576D02*
X0142237Y0028576D01*
X0149723Y0030175D02*
X0151812Y0030175D01*
X0151500Y0028576D02*
X0151363Y0028576D01*
X0161788Y0030175D02*
X0192515Y0030175D01*
X0192200Y0029415D02*
X0192200Y0021585D01*
X0192900Y0019894D01*
X0194194Y0018600D01*
X0195885Y0017900D01*
X0197715Y0017900D01*
X0199406Y0018600D01*
X0200700Y0019894D01*
X0201400Y0021585D01*
X0201400Y0029415D01*
X0200700Y0031106D01*
X0199406Y0032400D01*
X0197715Y0033100D01*
X0195885Y0033100D01*
X0194194Y0032400D01*
X0192900Y0031106D01*
X0192200Y0029415D01*
X0192200Y0028576D02*
X0162100Y0028576D01*
X0162100Y0026978D02*
X0192200Y0026978D01*
X0192200Y0025379D02*
X0162100Y0025379D01*
X0162100Y0023781D02*
X0192200Y0023781D01*
X0192200Y0022182D02*
X0162100Y0022182D01*
X0161546Y0020584D02*
X0192615Y0020584D01*
X0193809Y0018985D02*
X0076600Y0018985D01*
X0075475Y0017387D02*
X0333519Y0017387D01*
X0333220Y0015788D02*
X0073876Y0015788D01*
X0068125Y0017387D02*
X0065192Y0017387D01*
X0066400Y0018985D02*
X0067000Y0018985D01*
X0066400Y0020584D02*
X0071600Y0020584D01*
X0067000Y0022182D02*
X0066876Y0022182D01*
X0066800Y0025500D02*
X0061800Y0020500D01*
X0058575Y0023781D02*
X0055025Y0023781D01*
X0053705Y0025100D02*
X0056400Y0022405D01*
X0056400Y0018595D01*
X0053705Y0015900D01*
X0049895Y0015900D01*
X0047200Y0018595D01*
X0047200Y0022405D01*
X0049895Y0025100D01*
X0053705Y0025100D01*
X0054783Y0026978D02*
X0058817Y0026978D01*
X0057218Y0028576D02*
X0056382Y0028576D01*
X0056400Y0030175D02*
X0057200Y0030175D01*
X0057200Y0031773D02*
X0056400Y0031773D01*
X0055566Y0033372D02*
X0058166Y0033372D01*
X0057164Y0034970D02*
X0059765Y0034970D01*
X0056800Y0038000D02*
X0051800Y0033000D01*
X0051800Y0030500D01*
X0049200Y0025379D02*
X0063285Y0025379D01*
X0064783Y0026978D02*
X0064884Y0026978D01*
X0066382Y0028576D02*
X0067218Y0028576D01*
X0067200Y0030175D02*
X0066400Y0030175D01*
X0066467Y0031773D02*
X0067200Y0031773D01*
X0066800Y0035500D02*
X0061800Y0030500D01*
X0066800Y0035500D02*
X0084300Y0035500D01*
X0089300Y0040500D01*
X0089300Y0085500D01*
X0131800Y0128000D01*
X0136744Y0126085D02*
X0170380Y0126085D01*
X0169900Y0125606D02*
X0169200Y0123915D01*
X0169200Y0122085D01*
X0169900Y0120394D01*
X0171194Y0119100D01*
X0172885Y0118400D01*
X0180715Y0118400D01*
X0182406Y0119100D01*
X0183700Y0120394D01*
X0184400Y0122085D01*
X0184400Y0123915D01*
X0183700Y0125606D01*
X0182406Y0126900D01*
X0180715Y0127600D01*
X0172885Y0127600D01*
X0171194Y0126900D01*
X0169900Y0125606D01*
X0169437Y0124487D02*
X0135782Y0124487D01*
X0133848Y0122888D02*
X0169200Y0122888D01*
X0169529Y0121290D02*
X0136005Y0121290D01*
X0136836Y0119691D02*
X0170603Y0119691D01*
X0171194Y0116900D02*
X0172885Y0117600D01*
X0180715Y0117600D01*
X0182406Y0116900D01*
X0183700Y0115606D01*
X0184400Y0113915D01*
X0184400Y0112085D01*
X0183700Y0110394D01*
X0182406Y0109100D01*
X0180715Y0108400D01*
X0172885Y0108400D01*
X0171194Y0109100D01*
X0169900Y0110394D01*
X0169200Y0112085D01*
X0169200Y0113915D01*
X0169900Y0115606D01*
X0171194Y0116900D01*
X0170789Y0116494D02*
X0136913Y0116494D01*
X0137100Y0118093D02*
X0351331Y0118093D01*
X0351331Y0119691D02*
X0330497Y0119691D01*
X0329906Y0119100D02*
X0331200Y0120394D01*
X0331900Y0122085D01*
X0331900Y0123915D01*
X0331200Y0125606D01*
X0329906Y0126900D01*
X0328215Y0127600D01*
X0320385Y0127600D01*
X0318694Y0126900D01*
X0317400Y0125606D01*
X0316700Y0123915D01*
X0316700Y0122085D01*
X0317400Y0120394D01*
X0318694Y0119100D01*
X0320385Y0118400D01*
X0328215Y0118400D01*
X0329906Y0119100D01*
X0329906Y0116900D02*
X0328215Y0117600D01*
X0320385Y0117600D01*
X0318694Y0116900D01*
X0317400Y0115606D01*
X0316700Y0113915D01*
X0316700Y0112085D01*
X0317400Y0110394D01*
X0318694Y0109100D01*
X0320385Y0108400D01*
X0328215Y0108400D01*
X0329906Y0109100D01*
X0331200Y0110394D01*
X0331900Y0112085D01*
X0331900Y0113915D01*
X0331200Y0115606D01*
X0329906Y0116900D01*
X0330311Y0116494D02*
X0351331Y0116494D01*
X0351331Y0114896D02*
X0331494Y0114896D01*
X0331900Y0113297D02*
X0351331Y0113297D01*
X0351331Y0111699D02*
X0331740Y0111699D01*
X0330906Y0110100D02*
X0351331Y0110100D01*
X0351331Y0108502D02*
X0328461Y0108502D01*
X0335100Y0104240D02*
X0335100Y0100760D01*
X0336469Y0099391D01*
X0334900Y0097823D01*
X0334900Y0096000D01*
X0339300Y0096000D01*
X0343700Y0096000D01*
X0343700Y0097823D01*
X0342131Y0099391D01*
X0343500Y0100760D01*
X0343500Y0104240D01*
X0341040Y0106700D01*
X0337560Y0106700D01*
X0335100Y0104240D01*
X0335100Y0103706D02*
X0263500Y0103706D01*
X0263500Y0104240D02*
X0261040Y0106700D01*
X0257560Y0106700D01*
X0255100Y0104240D01*
X0255100Y0100760D01*
X0256469Y0099391D01*
X0254900Y0097823D01*
X0254900Y0096000D01*
X0259300Y0096000D01*
X0263700Y0096000D01*
X0263700Y0097823D01*
X0262131Y0099391D01*
X0263500Y0100760D01*
X0263500Y0104240D01*
X0262435Y0105305D02*
X0336165Y0105305D01*
X0335100Y0102108D02*
X0263500Y0102108D01*
X0263249Y0100509D02*
X0335351Y0100509D01*
X0335988Y0098911D02*
X0262612Y0098911D01*
X0263700Y0097312D02*
X0334900Y0097312D01*
X0334900Y0096000D02*
X0334900Y0094177D01*
X0337477Y0091600D01*
X0339300Y0091600D01*
X0341123Y0091600D01*
X0343700Y0094177D01*
X0343700Y0096000D01*
X0339300Y0096000D01*
X0339300Y0096000D01*
X0339300Y0096000D01*
X0339300Y0091600D01*
X0339300Y0096000D01*
X0339300Y0096000D01*
X0334900Y0096000D01*
X0334900Y0095714D02*
X0263700Y0095714D01*
X0263700Y0096000D02*
X0259300Y0096000D01*
X0259300Y0096000D01*
X0259300Y0096000D01*
X0259300Y0091600D01*
X0261123Y0091600D01*
X0263700Y0094177D01*
X0263700Y0096000D01*
X0263638Y0094115D02*
X0334962Y0094115D01*
X0336561Y0092517D02*
X0328932Y0092517D01*
X0329143Y0092448D02*
X0328424Y0092682D01*
X0327678Y0092800D01*
X0324500Y0092800D01*
X0324500Y0088200D01*
X0324100Y0088200D01*
X0324100Y0092800D01*
X0320922Y0092800D01*
X0320176Y0092682D01*
X0319457Y0092448D01*
X0318784Y0092105D01*
X0318173Y0091661D01*
X0317639Y0091127D01*
X0317195Y0090516D01*
X0316852Y0089843D01*
X0316618Y0089124D01*
X0316500Y0088378D01*
X0316500Y0088200D01*
X0324100Y0088200D01*
X0324100Y0087800D01*
X0324500Y0087800D01*
X0324500Y0088200D01*
X0332100Y0088200D01*
X0332100Y0088378D01*
X0331982Y0089124D01*
X0331748Y0089843D01*
X0331405Y0090516D01*
X0330961Y0091127D01*
X0330427Y0091661D01*
X0329816Y0092105D01*
X0329143Y0092448D01*
X0331113Y0090918D02*
X0351331Y0090918D01*
X0351331Y0089320D02*
X0331918Y0089320D01*
X0332100Y0087800D02*
X0324500Y0087800D01*
X0324500Y0083200D01*
X0327678Y0083200D01*
X0328424Y0083318D01*
X0329143Y0083552D01*
X0329816Y0083895D01*
X0330427Y0084339D01*
X0330961Y0084873D01*
X0331405Y0085484D01*
X0331748Y0086157D01*
X0331982Y0086876D01*
X0332100Y0087622D01*
X0332100Y0087800D01*
X0332100Y0087721D02*
X0351331Y0087721D01*
X0351331Y0086123D02*
X0331731Y0086123D01*
X0330612Y0084524D02*
X0351331Y0084524D01*
X0351331Y0082926D02*
X0133758Y0082926D01*
X0135819Y0084524D02*
X0170771Y0084524D01*
X0171194Y0084100D02*
X0172885Y0083400D01*
X0180715Y0083400D01*
X0182406Y0084100D01*
X0183700Y0085394D01*
X0184400Y0087085D01*
X0184400Y0088915D01*
X0183700Y0090606D01*
X0182406Y0091900D01*
X0180715Y0092600D01*
X0172885Y0092600D01*
X0171194Y0091900D01*
X0169900Y0090606D01*
X0169200Y0088915D01*
X0169200Y0087085D01*
X0169900Y0085394D01*
X0171194Y0084100D01*
X0171194Y0081900D02*
X0169900Y0080606D01*
X0169200Y0078915D01*
X0169200Y0077085D01*
X0169900Y0075394D01*
X0171194Y0074100D01*
X0172885Y0073400D01*
X0180715Y0073400D01*
X0182406Y0074100D01*
X0183700Y0075394D01*
X0184400Y0077085D01*
X0184400Y0078915D01*
X0183700Y0080606D01*
X0182406Y0081900D01*
X0180715Y0082600D01*
X0172885Y0082600D01*
X0171194Y0081900D01*
X0170622Y0081327D02*
X0135968Y0081327D01*
X0136821Y0079729D02*
X0169537Y0079729D01*
X0169200Y0078130D02*
X0137100Y0078130D01*
X0136928Y0076532D02*
X0169429Y0076532D01*
X0170362Y0074933D02*
X0136228Y0074933D01*
X0134386Y0073334D02*
X0351331Y0073334D01*
X0351331Y0071736D02*
X0330069Y0071736D01*
X0329906Y0071900D02*
X0331200Y0070606D01*
X0331900Y0068915D01*
X0331900Y0067085D01*
X0331200Y0065394D01*
X0329906Y0064100D01*
X0328215Y0063400D01*
X0320385Y0063400D01*
X0318694Y0064100D01*
X0317400Y0065394D01*
X0316700Y0067085D01*
X0316700Y0068915D01*
X0317400Y0070606D01*
X0318694Y0071900D01*
X0320385Y0072600D01*
X0328215Y0072600D01*
X0329906Y0071900D01*
X0329906Y0074100D02*
X0331200Y0075394D01*
X0331900Y0077085D01*
X0331900Y0078915D01*
X0331200Y0080606D01*
X0329906Y0081900D01*
X0328215Y0082600D01*
X0320385Y0082600D01*
X0318694Y0081900D01*
X0317400Y0080606D01*
X0316700Y0078915D01*
X0316700Y0077085D01*
X0317400Y0075394D01*
X0318694Y0074100D01*
X0320385Y0073400D01*
X0328215Y0073400D01*
X0329906Y0074100D01*
X0330738Y0074933D02*
X0351331Y0074933D01*
X0351331Y0076532D02*
X0331671Y0076532D01*
X0331900Y0078130D02*
X0351331Y0078130D01*
X0351331Y0079729D02*
X0331563Y0079729D01*
X0330478Y0081327D02*
X0351331Y0081327D01*
X0351331Y0092517D02*
X0342039Y0092517D01*
X0343638Y0094115D02*
X0351331Y0094115D01*
X0351331Y0095714D02*
X0343700Y0095714D01*
X0343700Y0097312D02*
X0351331Y0097312D01*
X0351331Y0098911D02*
X0342612Y0098911D01*
X0343249Y0100509D02*
X0351331Y0100509D01*
X0351331Y0102108D02*
X0343500Y0102108D01*
X0343500Y0103706D02*
X0351331Y0103706D01*
X0351331Y0105305D02*
X0342435Y0105305D01*
X0351331Y0106903D02*
X0137082Y0106903D01*
X0137100Y0108502D02*
X0172639Y0108502D01*
X0170194Y0110100D02*
X0136667Y0110100D01*
X0135597Y0111699D02*
X0169360Y0111699D01*
X0169200Y0113297D02*
X0134296Y0113297D01*
X0136191Y0114896D02*
X0169606Y0114896D01*
X0180961Y0108502D02*
X0222639Y0108502D01*
X0222885Y0108400D02*
X0221194Y0109100D01*
X0219900Y0110394D01*
X0219200Y0112085D01*
X0219200Y0113915D01*
X0219900Y0115606D01*
X0221194Y0116900D01*
X0222885Y0117600D01*
X0230715Y0117600D01*
X0232406Y0116900D01*
X0233700Y0115606D01*
X0234400Y0113915D01*
X0234400Y0112085D01*
X0233700Y0110394D01*
X0232406Y0109100D01*
X0230715Y0108400D01*
X0222885Y0108400D01*
X0220194Y0110100D02*
X0183406Y0110100D01*
X0184240Y0111699D02*
X0219360Y0111699D01*
X0219200Y0113297D02*
X0184400Y0113297D01*
X0183994Y0114896D02*
X0219606Y0114896D01*
X0220789Y0116494D02*
X0182811Y0116494D01*
X0182997Y0119691D02*
X0220603Y0119691D01*
X0221194Y0119100D02*
X0219900Y0120394D01*
X0219200Y0122085D01*
X0219200Y0123915D01*
X0219900Y0125606D01*
X0221194Y0126900D01*
X0222885Y0127600D01*
X0230715Y0127600D01*
X0232406Y0126900D01*
X0233700Y0125606D01*
X0234400Y0123915D01*
X0234400Y0122085D01*
X0233700Y0120394D01*
X0232406Y0119100D01*
X0230715Y0118400D01*
X0222885Y0118400D01*
X0221194Y0119100D01*
X0219529Y0121290D02*
X0184071Y0121290D01*
X0184400Y0122888D02*
X0219200Y0122888D01*
X0219437Y0124487D02*
X0184163Y0124487D01*
X0183220Y0126085D02*
X0220380Y0126085D01*
X0221194Y0129100D02*
X0222885Y0128400D01*
X0230715Y0128400D01*
X0232406Y0129100D01*
X0233700Y0130394D01*
X0234400Y0132085D01*
X0234400Y0133915D01*
X0233700Y0135606D01*
X0232406Y0136900D01*
X0230715Y0137600D01*
X0222885Y0137600D01*
X0221194Y0136900D01*
X0219900Y0135606D01*
X0219200Y0133915D01*
X0219200Y0132085D01*
X0219900Y0130394D01*
X0221194Y0129100D01*
X0221012Y0129282D02*
X0182588Y0129282D01*
X0182406Y0129100D02*
X0183700Y0130394D01*
X0184400Y0132085D01*
X0184400Y0133915D01*
X0183700Y0135606D01*
X0182406Y0136900D01*
X0180715Y0137600D01*
X0172885Y0137600D01*
X0171194Y0136900D01*
X0169900Y0135606D01*
X0169200Y0133915D01*
X0169200Y0132085D01*
X0169900Y0130394D01*
X0171194Y0129100D01*
X0172885Y0128400D01*
X0180715Y0128400D01*
X0182406Y0129100D01*
X0183901Y0130881D02*
X0219699Y0130881D01*
X0219200Y0132479D02*
X0184400Y0132479D01*
X0184333Y0134078D02*
X0219267Y0134078D01*
X0219971Y0135676D02*
X0183629Y0135676D01*
X0181500Y0137275D02*
X0222100Y0137275D01*
X0231500Y0137275D02*
X0269600Y0137275D01*
X0270385Y0137600D02*
X0268694Y0136900D01*
X0267400Y0135606D01*
X0266700Y0133915D01*
X0266700Y0132085D01*
X0267400Y0130394D01*
X0268694Y0129100D01*
X0270385Y0128400D01*
X0278215Y0128400D01*
X0279906Y0129100D01*
X0281200Y0130394D01*
X0281900Y0132085D01*
X0281900Y0133915D01*
X0281200Y0135606D01*
X0279906Y0136900D01*
X0278215Y0137600D01*
X0270385Y0137600D01*
X0267471Y0135676D02*
X0233629Y0135676D01*
X0234333Y0134078D02*
X0266767Y0134078D01*
X0266700Y0132479D02*
X0234400Y0132479D01*
X0233901Y0130881D02*
X0267199Y0130881D01*
X0268512Y0129282D02*
X0232588Y0129282D01*
X0233220Y0126085D02*
X0267880Y0126085D01*
X0267400Y0125606D02*
X0266700Y0123915D01*
X0266700Y0122085D01*
X0267400Y0120394D01*
X0268694Y0119100D01*
X0270385Y0118400D01*
X0278215Y0118400D01*
X0279906Y0119100D01*
X0281200Y0120394D01*
X0281900Y0122085D01*
X0281900Y0123915D01*
X0281200Y0125606D01*
X0279906Y0126900D01*
X0278215Y0127600D01*
X0270385Y0127600D01*
X0268694Y0126900D01*
X0267400Y0125606D01*
X0266937Y0124487D02*
X0234163Y0124487D01*
X0234400Y0122888D02*
X0266700Y0122888D01*
X0267029Y0121290D02*
X0234071Y0121290D01*
X0232997Y0119691D02*
X0268103Y0119691D01*
X0268694Y0116900D02*
X0270385Y0117600D01*
X0278215Y0117600D01*
X0279906Y0116900D01*
X0281200Y0115606D01*
X0281900Y0113915D01*
X0281900Y0112085D01*
X0281200Y0110394D01*
X0279906Y0109100D01*
X0278215Y0108400D01*
X0270385Y0108400D01*
X0268694Y0109100D01*
X0267400Y0110394D01*
X0266700Y0112085D01*
X0266700Y0113915D01*
X0267400Y0115606D01*
X0268694Y0116900D01*
X0268289Y0116494D02*
X0232811Y0116494D01*
X0233994Y0114896D02*
X0267106Y0114896D01*
X0266700Y0113297D02*
X0234400Y0113297D01*
X0234240Y0111699D02*
X0266860Y0111699D01*
X0267694Y0110100D02*
X0233406Y0110100D01*
X0230961Y0108502D02*
X0270139Y0108502D01*
X0278461Y0108502D02*
X0320139Y0108502D01*
X0317694Y0110100D02*
X0280906Y0110100D01*
X0281740Y0111699D02*
X0316860Y0111699D01*
X0316700Y0113297D02*
X0281900Y0113297D01*
X0281494Y0114896D02*
X0317106Y0114896D01*
X0318289Y0116494D02*
X0280311Y0116494D01*
X0280497Y0119691D02*
X0318103Y0119691D01*
X0317029Y0121290D02*
X0281571Y0121290D01*
X0281900Y0122888D02*
X0316700Y0122888D01*
X0316937Y0124487D02*
X0281663Y0124487D01*
X0280720Y0126085D02*
X0317880Y0126085D01*
X0318694Y0129100D02*
X0320385Y0128400D01*
X0328215Y0128400D01*
X0329906Y0129100D01*
X0331200Y0130394D01*
X0331900Y0132085D01*
X0331900Y0133915D01*
X0331200Y0135606D01*
X0329906Y0136900D01*
X0328215Y0137600D01*
X0320385Y0137600D01*
X0318694Y0136900D01*
X0317400Y0135606D01*
X0316700Y0133915D01*
X0316700Y0132085D01*
X0317400Y0130394D01*
X0318694Y0129100D01*
X0318512Y0129282D02*
X0280088Y0129282D01*
X0281401Y0130881D02*
X0317199Y0130881D01*
X0316700Y0132479D02*
X0281900Y0132479D01*
X0281833Y0134078D02*
X0316767Y0134078D01*
X0317471Y0135676D02*
X0281129Y0135676D01*
X0279000Y0137275D02*
X0319600Y0137275D01*
X0329000Y0137275D02*
X0351331Y0137275D01*
X0351331Y0138873D02*
X0341613Y0138873D01*
X0341040Y0138300D02*
X0343500Y0140760D01*
X0343500Y0144240D01*
X0341040Y0146700D01*
X0337560Y0146700D01*
X0335100Y0144240D01*
X0335100Y0140760D01*
X0337560Y0138300D01*
X0341040Y0138300D01*
X0343212Y0140472D02*
X0351331Y0140472D01*
X0351331Y0142070D02*
X0343500Y0142070D01*
X0343500Y0143669D02*
X0351331Y0143669D01*
X0351331Y0145268D02*
X0342472Y0145268D01*
X0336128Y0145268D02*
X0262472Y0145268D01*
X0263500Y0144240D02*
X0261040Y0146700D01*
X0257560Y0146700D01*
X0255100Y0144240D01*
X0255100Y0140760D01*
X0257560Y0138300D01*
X0261040Y0138300D01*
X0263500Y0140760D01*
X0263500Y0144240D01*
X0263500Y0143669D02*
X0335100Y0143669D01*
X0335100Y0142070D02*
X0263500Y0142070D01*
X0263212Y0140472D02*
X0335388Y0140472D01*
X0336987Y0138873D02*
X0261613Y0138873D01*
X0256987Y0138873D02*
X0244113Y0138873D01*
X0243540Y0138300D02*
X0246000Y0140760D01*
X0246000Y0144240D01*
X0243540Y0146700D01*
X0240060Y0146700D01*
X0237600Y0144240D01*
X0237600Y0140760D01*
X0240060Y0138300D01*
X0243540Y0138300D01*
X0245712Y0140472D02*
X0255388Y0140472D01*
X0255100Y0142070D02*
X0246000Y0142070D01*
X0246000Y0143669D02*
X0255100Y0143669D01*
X0256128Y0145268D02*
X0244972Y0145268D01*
X0238628Y0145268D02*
X0164972Y0145268D01*
X0166000Y0144240D02*
X0163540Y0146700D01*
X0160060Y0146700D01*
X0157600Y0144240D01*
X0157600Y0140760D01*
X0160060Y0138300D01*
X0163540Y0138300D01*
X0166000Y0140760D01*
X0166000Y0144240D01*
X0166000Y0143669D02*
X0237600Y0143669D01*
X0237600Y0142070D02*
X0166000Y0142070D01*
X0165712Y0140472D02*
X0237888Y0140472D01*
X0239487Y0138873D02*
X0164113Y0138873D01*
X0159487Y0138873D02*
X0137100Y0138873D01*
X0137100Y0137275D02*
X0172100Y0137275D01*
X0169971Y0135676D02*
X0136574Y0135676D01*
X0135373Y0134078D02*
X0169267Y0134078D01*
X0169200Y0132479D02*
X0134816Y0132479D01*
X0136343Y0130881D02*
X0169699Y0130881D01*
X0171012Y0129282D02*
X0137005Y0129282D01*
X0137100Y0127684D02*
X0351331Y0127684D01*
X0351331Y0129282D02*
X0330088Y0129282D01*
X0331401Y0130881D02*
X0351331Y0130881D01*
X0351331Y0132479D02*
X0331900Y0132479D01*
X0331833Y0134078D02*
X0351331Y0134078D01*
X0351331Y0135676D02*
X0331129Y0135676D01*
X0330720Y0126085D02*
X0351331Y0126085D01*
X0351331Y0124487D02*
X0331663Y0124487D01*
X0331900Y0122888D02*
X0351331Y0122888D01*
X0351331Y0121290D02*
X0331571Y0121290D01*
X0339300Y0095714D02*
X0339300Y0095714D01*
X0339300Y0094115D02*
X0339300Y0094115D01*
X0339300Y0092517D02*
X0339300Y0092517D01*
X0324500Y0092517D02*
X0324100Y0092517D01*
X0324100Y0090918D02*
X0324500Y0090918D01*
X0324500Y0089320D02*
X0324100Y0089320D01*
X0324100Y0087800D02*
X0316500Y0087800D01*
X0316500Y0087622D01*
X0316618Y0086876D01*
X0316852Y0086157D01*
X0317195Y0085484D01*
X0317639Y0084873D01*
X0318173Y0084339D01*
X0318784Y0083895D01*
X0319457Y0083552D01*
X0320176Y0083318D01*
X0320922Y0083200D01*
X0324100Y0083200D01*
X0324100Y0087800D01*
X0324100Y0087721D02*
X0324500Y0087721D01*
X0324500Y0086123D02*
X0324100Y0086123D01*
X0324100Y0084524D02*
X0324500Y0084524D01*
X0317988Y0084524D02*
X0280329Y0084524D01*
X0279906Y0084100D02*
X0281200Y0085394D01*
X0281900Y0087085D01*
X0281900Y0088915D01*
X0281200Y0090606D01*
X0279906Y0091900D01*
X0278215Y0092600D01*
X0270385Y0092600D01*
X0268694Y0091900D01*
X0267400Y0090606D01*
X0266700Y0088915D01*
X0266700Y0087085D01*
X0267400Y0085394D01*
X0268694Y0084100D01*
X0270385Y0083400D01*
X0278215Y0083400D01*
X0279906Y0084100D01*
X0279906Y0081900D02*
X0278215Y0082600D01*
X0270385Y0082600D01*
X0268694Y0081900D01*
X0267400Y0080606D01*
X0266700Y0078915D01*
X0266700Y0077085D01*
X0267400Y0075394D01*
X0268694Y0074100D01*
X0270385Y0073400D01*
X0278215Y0073400D01*
X0279906Y0074100D01*
X0281200Y0075394D01*
X0281900Y0077085D01*
X0281900Y0078915D01*
X0281200Y0080606D01*
X0279906Y0081900D01*
X0280478Y0081327D02*
X0318122Y0081327D01*
X0317037Y0079729D02*
X0281563Y0079729D01*
X0281900Y0078130D02*
X0316700Y0078130D01*
X0316929Y0076532D02*
X0281671Y0076532D01*
X0280738Y0074933D02*
X0317862Y0074933D01*
X0318531Y0071736D02*
X0280324Y0071736D01*
X0280427Y0071661D02*
X0279816Y0072105D01*
X0279143Y0072448D01*
X0278424Y0072682D01*
X0277678Y0072800D01*
X0274500Y0072800D01*
X0274500Y0068200D01*
X0274100Y0068200D01*
X0274100Y0072800D01*
X0270922Y0072800D01*
X0270176Y0072682D01*
X0269457Y0072448D01*
X0268784Y0072105D01*
X0268173Y0071661D01*
X0267639Y0071127D01*
X0267195Y0070516D01*
X0266852Y0069843D01*
X0266618Y0069124D01*
X0266500Y0068378D01*
X0266500Y0068200D01*
X0274100Y0068200D01*
X0274100Y0067800D01*
X0274500Y0067800D01*
X0274500Y0068200D01*
X0282100Y0068200D01*
X0282100Y0068378D01*
X0281982Y0069124D01*
X0281748Y0069843D01*
X0281405Y0070516D01*
X0280961Y0071127D01*
X0280427Y0071661D01*
X0281598Y0070137D02*
X0317206Y0070137D01*
X0316700Y0068539D02*
X0282074Y0068539D01*
X0282100Y0067800D02*
X0274500Y0067800D01*
X0274500Y0063200D01*
X0277678Y0063200D01*
X0278424Y0063318D01*
X0279143Y0063552D01*
X0279816Y0063895D01*
X0280427Y0064339D01*
X0280961Y0064873D01*
X0281405Y0065484D01*
X0281748Y0066157D01*
X0281982Y0066876D01*
X0282100Y0067622D01*
X0282100Y0067800D01*
X0281992Y0066940D02*
X0316760Y0066940D01*
X0317453Y0065342D02*
X0281302Y0065342D01*
X0279519Y0063743D02*
X0319556Y0063743D01*
X0329044Y0063743D02*
X0351331Y0063743D01*
X0351331Y0062145D02*
X0137244Y0062145D01*
X0137300Y0060546D02*
X0351331Y0060546D01*
X0351331Y0058948D02*
X0342292Y0058948D01*
X0343500Y0057740D02*
X0341040Y0060200D01*
X0337560Y0060200D01*
X0335100Y0057740D01*
X0335100Y0054260D01*
X0337560Y0051800D01*
X0341040Y0051800D01*
X0343500Y0054260D01*
X0343500Y0057740D01*
X0343500Y0057349D02*
X0351331Y0057349D01*
X0351331Y0055751D02*
X0343500Y0055751D01*
X0343392Y0054152D02*
X0351331Y0054152D01*
X0351331Y0052554D02*
X0341794Y0052554D01*
X0336806Y0052554D02*
X0261794Y0052554D01*
X0261040Y0051800D02*
X0263500Y0054260D01*
X0263500Y0057740D01*
X0261040Y0060200D01*
X0257560Y0060200D01*
X0255100Y0057740D01*
X0255100Y0054260D01*
X0257560Y0051800D01*
X0261040Y0051800D01*
X0263392Y0054152D02*
X0335208Y0054152D01*
X0335100Y0055751D02*
X0263500Y0055751D01*
X0263500Y0057349D02*
X0335100Y0057349D01*
X0336308Y0058948D02*
X0262292Y0058948D01*
X0256308Y0058948D02*
X0244792Y0058948D01*
X0246000Y0057740D02*
X0243540Y0060200D01*
X0240060Y0060200D01*
X0237600Y0057740D01*
X0237600Y0054260D01*
X0240060Y0051800D01*
X0243540Y0051800D01*
X0246000Y0054260D01*
X0246000Y0057740D01*
X0246000Y0057349D02*
X0255100Y0057349D01*
X0255100Y0055751D02*
X0246000Y0055751D01*
X0245892Y0054152D02*
X0255208Y0054152D01*
X0256806Y0052554D02*
X0244294Y0052554D01*
X0239306Y0052554D02*
X0164294Y0052554D01*
X0163540Y0051800D02*
X0166000Y0054260D01*
X0166000Y0057740D01*
X0163540Y0060200D01*
X0160060Y0060200D01*
X0157600Y0057740D01*
X0157600Y0054260D01*
X0160060Y0051800D01*
X0163540Y0051800D01*
X0165892Y0054152D02*
X0237708Y0054152D01*
X0237600Y0055751D02*
X0166000Y0055751D01*
X0166000Y0057349D02*
X0237600Y0057349D01*
X0238808Y0058948D02*
X0164792Y0058948D01*
X0158808Y0058948D02*
X0137300Y0058948D01*
X0137300Y0057800D02*
X0132000Y0057800D01*
X0132000Y0052500D01*
X0135737Y0052500D01*
X0136195Y0052623D01*
X0136605Y0052860D01*
X0136940Y0053195D01*
X0137177Y0053605D01*
X0137300Y0054063D01*
X0137300Y0057800D01*
X0137300Y0057349D02*
X0157600Y0057349D01*
X0157600Y0055751D02*
X0137300Y0055751D01*
X0137300Y0054152D02*
X0157708Y0054152D01*
X0159306Y0052554D02*
X0135938Y0052554D01*
X0132000Y0052554D02*
X0131600Y0052554D01*
X0131600Y0052500D02*
X0131600Y0057800D01*
X0126300Y0057800D01*
X0126300Y0054063D01*
X0126423Y0053605D01*
X0126660Y0053195D01*
X0126995Y0052860D01*
X0127405Y0052623D01*
X0127863Y0052500D01*
X0131600Y0052500D01*
X0131600Y0054152D02*
X0132000Y0054152D01*
X0132000Y0055751D02*
X0131600Y0055751D01*
X0131600Y0057349D02*
X0132000Y0057349D01*
X0126300Y0057349D02*
X0094200Y0057349D01*
X0094200Y0055751D02*
X0126300Y0055751D01*
X0126300Y0054152D02*
X0094200Y0054152D01*
X0094200Y0052554D02*
X0127662Y0052554D01*
X0139450Y0049413D02*
X0140387Y0050350D01*
X0148213Y0050350D01*
X0149150Y0049413D01*
X0149150Y0041587D01*
X0148213Y0040650D01*
X0140387Y0040650D01*
X0139450Y0041587D01*
X0139450Y0049413D01*
X0139450Y0049357D02*
X0094200Y0049357D01*
X0094200Y0050955D02*
X0351331Y0050955D01*
X0351331Y0049357D02*
X0157583Y0049357D01*
X0157590Y0049352D02*
X0156947Y0049819D01*
X0156239Y0050180D01*
X0155483Y0050426D01*
X0154697Y0050550D01*
X0154300Y0050550D01*
X0154300Y0045500D01*
X0159350Y0045500D01*
X0159350Y0045897D01*
X0159226Y0046683D01*
X0158980Y0047439D01*
X0158619Y0048147D01*
X0158152Y0048790D01*
X0157590Y0049352D01*
X0158817Y0047758D02*
X0351331Y0047758D01*
X0351331Y0046160D02*
X0159308Y0046160D01*
X0159350Y0045500D02*
X0154300Y0045500D01*
X0154300Y0045500D01*
X0154300Y0045500D01*
X0154300Y0040450D01*
X0154697Y0040450D01*
X0155483Y0040574D01*
X0156239Y0040820D01*
X0156947Y0041181D01*
X0157590Y0041648D01*
X0158152Y0042210D01*
X0158619Y0042853D01*
X0158980Y0043561D01*
X0159226Y0044317D01*
X0159350Y0045103D01*
X0159350Y0045500D01*
X0159264Y0044561D02*
X0351331Y0044561D01*
X0351331Y0042963D02*
X0158675Y0042963D01*
X0157199Y0041364D02*
X0351331Y0041364D01*
X0351331Y0039766D02*
X0094200Y0039766D01*
X0094200Y0041364D02*
X0139673Y0041364D01*
X0139450Y0042963D02*
X0094200Y0042963D01*
X0094200Y0044561D02*
X0139450Y0044561D01*
X0139450Y0046160D02*
X0094200Y0046160D01*
X0094200Y0047758D02*
X0139450Y0047758D01*
X0149150Y0047758D02*
X0149783Y0047758D01*
X0149620Y0047439D02*
X0149374Y0046683D01*
X0149250Y0045897D01*
X0149250Y0045500D01*
X0154300Y0045500D01*
X0154300Y0045500D01*
X0154300Y0045500D01*
X0154300Y0050550D01*
X0153903Y0050550D01*
X0153117Y0050426D01*
X0152361Y0050180D01*
X0151653Y0049819D01*
X0151010Y0049352D01*
X0150448Y0048790D01*
X0149981Y0048147D01*
X0149620Y0047439D01*
X0149292Y0046160D02*
X0149150Y0046160D01*
X0149250Y0045500D02*
X0149250Y0045103D01*
X0149374Y0044317D01*
X0149620Y0043561D01*
X0149981Y0042853D01*
X0150448Y0042210D01*
X0151010Y0041648D01*
X0151653Y0041181D01*
X0152361Y0040820D01*
X0153117Y0040574D01*
X0153903Y0040450D01*
X0154300Y0040450D01*
X0154300Y0045500D01*
X0149250Y0045500D01*
X0149336Y0044561D02*
X0149150Y0044561D01*
X0149150Y0042963D02*
X0149925Y0042963D01*
X0148927Y0041364D02*
X0151401Y0041364D01*
X0154300Y0041364D02*
X0154300Y0041364D01*
X0154300Y0042963D02*
X0154300Y0042963D01*
X0154300Y0044561D02*
X0154300Y0044561D01*
X0154300Y0046160D02*
X0154300Y0046160D01*
X0154300Y0047758D02*
X0154300Y0047758D01*
X0154300Y0049357D02*
X0154300Y0049357D01*
X0151017Y0049357D02*
X0149150Y0049357D01*
X0126300Y0058948D02*
X0094200Y0058948D01*
X0094200Y0060546D02*
X0126300Y0060546D01*
X0126356Y0062145D02*
X0094200Y0062145D01*
X0094200Y0063743D02*
X0128561Y0063743D01*
X0127164Y0065342D02*
X0094200Y0065342D01*
X0094200Y0066940D02*
X0126502Y0066940D01*
X0126500Y0068539D02*
X0094200Y0068539D01*
X0094200Y0070137D02*
X0126949Y0070137D01*
X0128041Y0071736D02*
X0094200Y0071736D01*
X0094200Y0073334D02*
X0129214Y0073334D01*
X0127372Y0074933D02*
X0094200Y0074933D01*
X0094200Y0076532D02*
X0126672Y0076532D01*
X0126500Y0078130D02*
X0095324Y0078130D01*
X0096923Y0079729D02*
X0126779Y0079729D01*
X0127632Y0081327D02*
X0098521Y0081327D01*
X0100120Y0082926D02*
X0129842Y0082926D01*
X0127781Y0084524D02*
X0101718Y0084524D01*
X0103317Y0086123D02*
X0126841Y0086123D01*
X0126500Y0087721D02*
X0104915Y0087721D01*
X0106514Y0089320D02*
X0126610Y0089320D01*
X0127272Y0090918D02*
X0108112Y0090918D01*
X0109711Y0092517D02*
X0128855Y0092517D01*
X0128190Y0094115D02*
X0125410Y0094115D01*
X0126590Y0095714D02*
X0127010Y0095714D01*
X0134745Y0092517D02*
X0159061Y0092517D01*
X0159977Y0091600D02*
X0157400Y0094177D01*
X0157400Y0096000D01*
X0161800Y0096000D01*
X0166200Y0096000D01*
X0166200Y0097823D01*
X0164631Y0099391D01*
X0166000Y0100760D01*
X0166000Y0104240D01*
X0163540Y0106700D01*
X0160060Y0106700D01*
X0157600Y0104240D01*
X0157600Y0100760D01*
X0158969Y0099391D01*
X0157400Y0097823D01*
X0157400Y0096000D01*
X0161800Y0096000D01*
X0161800Y0096000D01*
X0161800Y0096000D01*
X0166200Y0096000D01*
X0166200Y0094177D01*
X0163623Y0091600D01*
X0161800Y0091600D01*
X0161800Y0096000D01*
X0161800Y0096000D01*
X0161800Y0091600D01*
X0159977Y0091600D01*
X0161800Y0092517D02*
X0161800Y0092517D01*
X0161800Y0094115D02*
X0161800Y0094115D01*
X0161800Y0095714D02*
X0161800Y0095714D01*
X0166200Y0095714D02*
X0237400Y0095714D01*
X0237400Y0096000D02*
X0237400Y0094177D01*
X0239977Y0091600D01*
X0241800Y0091600D01*
X0243623Y0091600D01*
X0246200Y0094177D01*
X0246200Y0096000D01*
X0246200Y0097823D01*
X0244631Y0099391D01*
X0246000Y0100760D01*
X0246000Y0104240D01*
X0243540Y0106700D01*
X0240060Y0106700D01*
X0237600Y0104240D01*
X0237600Y0100760D01*
X0238969Y0099391D01*
X0237400Y0097823D01*
X0237400Y0096000D01*
X0241800Y0096000D01*
X0246200Y0096000D01*
X0241800Y0096000D01*
X0241800Y0096000D01*
X0241800Y0096000D01*
X0241800Y0091600D01*
X0241800Y0096000D01*
X0241800Y0096000D01*
X0237400Y0096000D01*
X0237400Y0097312D02*
X0166200Y0097312D01*
X0165112Y0098911D02*
X0238488Y0098911D01*
X0237851Y0100509D02*
X0165749Y0100509D01*
X0166000Y0102108D02*
X0237600Y0102108D01*
X0237600Y0103706D02*
X0166000Y0103706D01*
X0164935Y0105305D02*
X0238665Y0105305D01*
X0244935Y0105305D02*
X0256165Y0105305D01*
X0255100Y0103706D02*
X0246000Y0103706D01*
X0246000Y0102108D02*
X0255100Y0102108D01*
X0255351Y0100509D02*
X0245749Y0100509D01*
X0245112Y0098911D02*
X0255988Y0098911D01*
X0254900Y0097312D02*
X0246200Y0097312D01*
X0246200Y0095714D02*
X0254900Y0095714D01*
X0254900Y0096000D02*
X0254900Y0094177D01*
X0257477Y0091600D01*
X0259300Y0091600D01*
X0259300Y0096000D01*
X0259300Y0096000D01*
X0254900Y0096000D01*
X0254962Y0094115D02*
X0246138Y0094115D01*
X0244539Y0092517D02*
X0256561Y0092517D01*
X0259300Y0092517D02*
X0259300Y0092517D01*
X0259300Y0094115D02*
X0259300Y0094115D01*
X0259300Y0095714D02*
X0259300Y0095714D01*
X0262039Y0092517D02*
X0270184Y0092517D01*
X0267713Y0090918D02*
X0233613Y0090918D01*
X0233461Y0091127D02*
X0233905Y0090516D01*
X0234248Y0089843D01*
X0234482Y0089124D01*
X0234600Y0088378D01*
X0234600Y0088200D01*
X0227000Y0088200D01*
X0226600Y0088200D01*
X0226600Y0092800D01*
X0223422Y0092800D01*
X0222676Y0092682D01*
X0221957Y0092448D01*
X0221284Y0092105D01*
X0220673Y0091661D01*
X0220139Y0091127D01*
X0219695Y0090516D01*
X0219352Y0089843D01*
X0219118Y0089124D01*
X0219000Y0088378D01*
X0219000Y0088200D01*
X0226600Y0088200D01*
X0226600Y0087800D01*
X0227000Y0087800D01*
X0227000Y0088200D01*
X0227000Y0092800D01*
X0230178Y0092800D01*
X0230924Y0092682D01*
X0231643Y0092448D01*
X0232316Y0092105D01*
X0232927Y0091661D01*
X0233461Y0091127D01*
X0234418Y0089320D02*
X0266868Y0089320D01*
X0266700Y0087721D02*
X0234600Y0087721D01*
X0234600Y0087800D02*
X0227000Y0087800D01*
X0227000Y0083200D01*
X0230178Y0083200D01*
X0230924Y0083318D01*
X0231643Y0083552D01*
X0232316Y0083895D01*
X0232927Y0084339D01*
X0233461Y0084873D01*
X0233905Y0085484D01*
X0234248Y0086157D01*
X0234482Y0086876D01*
X0234600Y0087622D01*
X0234600Y0087800D01*
X0234231Y0086123D02*
X0267099Y0086123D01*
X0268271Y0084524D02*
X0233112Y0084524D01*
X0232406Y0081900D02*
X0230715Y0082600D01*
X0222885Y0082600D01*
X0221194Y0081900D01*
X0219900Y0080606D01*
X0219200Y0078915D01*
X0219200Y0077085D01*
X0219900Y0075394D01*
X0221194Y0074100D01*
X0222885Y0073400D01*
X0230715Y0073400D01*
X0232406Y0074100D01*
X0233700Y0075394D01*
X0234400Y0077085D01*
X0234400Y0078915D01*
X0233700Y0080606D01*
X0232406Y0081900D01*
X0232978Y0081327D02*
X0268122Y0081327D01*
X0267037Y0079729D02*
X0234063Y0079729D01*
X0234400Y0078130D02*
X0266700Y0078130D01*
X0266929Y0076532D02*
X0234171Y0076532D01*
X0233238Y0074933D02*
X0267862Y0074933D01*
X0268276Y0071736D02*
X0232569Y0071736D01*
X0232406Y0071900D02*
X0230715Y0072600D01*
X0222885Y0072600D01*
X0221194Y0071900D01*
X0219900Y0070606D01*
X0219200Y0068915D01*
X0219200Y0067085D01*
X0219900Y0065394D01*
X0221194Y0064100D01*
X0222885Y0063400D01*
X0230715Y0063400D01*
X0232406Y0064100D01*
X0233700Y0065394D01*
X0234400Y0067085D01*
X0234400Y0068915D01*
X0233700Y0070606D01*
X0232406Y0071900D01*
X0233894Y0070137D02*
X0267002Y0070137D01*
X0266526Y0068539D02*
X0234400Y0068539D01*
X0234340Y0066940D02*
X0266608Y0066940D01*
X0266618Y0066876D02*
X0266852Y0066157D01*
X0267195Y0065484D01*
X0267639Y0064873D01*
X0268173Y0064339D01*
X0268784Y0063895D01*
X0269457Y0063552D01*
X0270176Y0063318D01*
X0270922Y0063200D01*
X0274100Y0063200D01*
X0274100Y0067800D01*
X0266500Y0067800D01*
X0266500Y0067622D01*
X0266618Y0066876D01*
X0267298Y0065342D02*
X0233647Y0065342D01*
X0231544Y0063743D02*
X0269081Y0063743D01*
X0274100Y0063743D02*
X0274500Y0063743D01*
X0274500Y0065342D02*
X0274100Y0065342D01*
X0274100Y0066940D02*
X0274500Y0066940D01*
X0274500Y0068539D02*
X0274100Y0068539D01*
X0274100Y0070137D02*
X0274500Y0070137D01*
X0274500Y0071736D02*
X0274100Y0071736D01*
X0281501Y0086123D02*
X0316869Y0086123D01*
X0316500Y0087721D02*
X0281900Y0087721D01*
X0281732Y0089320D02*
X0316682Y0089320D01*
X0317487Y0090918D02*
X0280887Y0090918D01*
X0278416Y0092517D02*
X0319668Y0092517D01*
X0331394Y0070137D02*
X0351331Y0070137D01*
X0351331Y0068539D02*
X0331900Y0068539D01*
X0331840Y0066940D02*
X0351331Y0066940D01*
X0351331Y0065342D02*
X0331147Y0065342D01*
X0351331Y0038167D02*
X0094200Y0038167D01*
X0093763Y0036569D02*
X0351331Y0036569D01*
X0351331Y0034970D02*
X0092164Y0034970D01*
X0090566Y0033372D02*
X0351331Y0033372D01*
X0351331Y0031773D02*
X0307532Y0031773D01*
X0306906Y0032400D02*
X0308200Y0031106D01*
X0308900Y0029415D01*
X0308900Y0021585D01*
X0308200Y0019894D01*
X0306906Y0018600D01*
X0305215Y0017900D01*
X0303385Y0017900D01*
X0301694Y0018600D01*
X0300400Y0019894D01*
X0299700Y0021585D01*
X0299700Y0029415D01*
X0300400Y0031106D01*
X0301694Y0032400D01*
X0303385Y0033100D01*
X0305215Y0033100D01*
X0306906Y0032400D01*
X0308585Y0030175D02*
X0351331Y0030175D01*
X0351331Y0028576D02*
X0308900Y0028576D01*
X0308900Y0026978D02*
X0351331Y0026978D01*
X0351331Y0025379D02*
X0347763Y0025379D01*
X0350982Y0023781D02*
X0351331Y0023781D01*
X0340877Y0025379D02*
X0308900Y0025379D01*
X0308900Y0023781D02*
X0337657Y0023781D01*
X0335994Y0022182D02*
X0308900Y0022182D01*
X0308485Y0020584D02*
X0334836Y0020584D01*
X0333947Y0018985D02*
X0307290Y0018985D01*
X0301309Y0018985D02*
X0297290Y0018985D01*
X0296906Y0018600D02*
X0298200Y0019894D01*
X0298900Y0021585D01*
X0298900Y0029415D01*
X0298200Y0031106D01*
X0296906Y0032400D01*
X0295215Y0033100D01*
X0293385Y0033100D01*
X0291694Y0032400D01*
X0290400Y0031106D01*
X0289700Y0029415D01*
X0289700Y0021585D01*
X0290400Y0019894D01*
X0291694Y0018600D01*
X0293385Y0017900D01*
X0295215Y0017900D01*
X0296906Y0018600D01*
X0298485Y0020584D02*
X0300115Y0020584D01*
X0299700Y0022182D02*
X0298900Y0022182D01*
X0298900Y0023781D02*
X0299700Y0023781D01*
X0299700Y0025379D02*
X0298900Y0025379D01*
X0298900Y0026978D02*
X0299700Y0026978D01*
X0299700Y0028576D02*
X0298900Y0028576D01*
X0298585Y0030175D02*
X0300015Y0030175D01*
X0301068Y0031773D02*
X0297532Y0031773D01*
X0291068Y0031773D02*
X0210032Y0031773D01*
X0209406Y0032400D02*
X0210700Y0031106D01*
X0211400Y0029415D01*
X0211400Y0021585D01*
X0210700Y0019894D01*
X0209406Y0018600D01*
X0207715Y0017900D01*
X0205885Y0017900D01*
X0204194Y0018600D01*
X0202900Y0019894D01*
X0202200Y0021585D01*
X0202200Y0029415D01*
X0202900Y0031106D01*
X0204194Y0032400D01*
X0205885Y0033100D01*
X0207715Y0033100D01*
X0209406Y0032400D01*
X0211085Y0030175D02*
X0290015Y0030175D01*
X0289700Y0028576D02*
X0211400Y0028576D01*
X0211400Y0026978D02*
X0289700Y0026978D01*
X0289700Y0025379D02*
X0211400Y0025379D01*
X0211400Y0023781D02*
X0289700Y0023781D01*
X0289700Y0022182D02*
X0211400Y0022182D01*
X0210985Y0020584D02*
X0290115Y0020584D01*
X0291309Y0018985D02*
X0209790Y0018985D01*
X0203809Y0018985D02*
X0199790Y0018985D01*
X0200985Y0020584D02*
X0202615Y0020584D01*
X0202200Y0022182D02*
X0201400Y0022182D01*
X0201400Y0023781D02*
X0202200Y0023781D01*
X0202200Y0025379D02*
X0201400Y0025379D01*
X0201400Y0026978D02*
X0202200Y0026978D01*
X0202200Y0028576D02*
X0201400Y0028576D01*
X0201085Y0030175D02*
X0202515Y0030175D01*
X0203568Y0031773D02*
X0200032Y0031773D01*
X0193568Y0031773D02*
X0088967Y0031773D01*
X0087369Y0030175D02*
X0134236Y0030175D01*
X0132381Y0028576D02*
X0085770Y0028576D01*
X0084172Y0026978D02*
X0131675Y0026978D01*
X0131500Y0025379D02*
X0082573Y0025379D01*
X0080975Y0023781D02*
X0131775Y0023781D01*
X0132623Y0022182D02*
X0076600Y0022182D01*
X0079300Y0025500D02*
X0066800Y0025500D01*
X0057200Y0022182D02*
X0056400Y0022182D01*
X0056400Y0020584D02*
X0057200Y0020584D01*
X0057200Y0018985D02*
X0056400Y0018985D01*
X0055192Y0017387D02*
X0058408Y0017387D01*
X0048408Y0017387D02*
X0045192Y0017387D01*
X0046400Y0018985D02*
X0047200Y0018985D01*
X0047200Y0020584D02*
X0046400Y0020584D01*
X0046876Y0022182D02*
X0047200Y0022182D01*
X0048475Y0023781D02*
X0048575Y0023781D01*
X0043285Y0025379D02*
X0017054Y0025379D01*
X0010168Y0025379D02*
X0006600Y0025379D01*
X0006600Y0023781D02*
X0006948Y0023781D01*
X0006600Y0026978D02*
X0038817Y0026978D01*
X0037218Y0028576D02*
X0006600Y0028576D01*
X0019100Y0031773D02*
X0019500Y0031773D01*
X0019500Y0030700D02*
X0022678Y0030700D01*
X0023424Y0030818D01*
X0024143Y0031052D01*
X0024816Y0031395D01*
X0025427Y0031839D01*
X0025961Y0032373D01*
X0026405Y0032984D01*
X0026748Y0033657D01*
X0026982Y0034376D01*
X0027100Y0035122D01*
X0027100Y0035300D01*
X0019500Y0035300D01*
X0019500Y0030700D01*
X0019500Y0033372D02*
X0019100Y0033372D01*
X0019100Y0034970D02*
X0019500Y0034970D01*
X0019500Y0035700D02*
X0027100Y0035700D01*
X0027100Y0035878D01*
X0026982Y0036624D01*
X0026748Y0037343D01*
X0026405Y0038016D01*
X0025961Y0038627D01*
X0025427Y0039161D01*
X0024816Y0039605D01*
X0024143Y0039948D01*
X0023424Y0040182D01*
X0022678Y0040300D01*
X0019500Y0040300D01*
X0019500Y0035700D01*
X0019500Y0036569D02*
X0019100Y0036569D01*
X0019100Y0038167D02*
X0019500Y0038167D01*
X0019500Y0039766D02*
X0019100Y0039766D01*
X0024501Y0039766D02*
X0040172Y0039766D01*
X0039400Y0038167D02*
X0026295Y0038167D01*
X0026991Y0036569D02*
X0039400Y0036569D01*
X0039400Y0034970D02*
X0027076Y0034970D01*
X0026603Y0033372D02*
X0038166Y0033372D01*
X0037200Y0031773D02*
X0025337Y0031773D01*
X0024336Y0041364D02*
X0041770Y0041364D01*
X0043369Y0042963D02*
X0026228Y0042963D01*
X0026890Y0044561D02*
X0044967Y0044561D01*
X0041905Y0046160D02*
X0057088Y0046160D01*
X0056750Y0047758D02*
X0043550Y0047758D01*
X0044232Y0049357D02*
X0056931Y0049357D01*
X0057705Y0050955D02*
X0044341Y0050955D01*
X0056800Y0038000D02*
X0081800Y0038000D01*
X0086800Y0043000D01*
X0086800Y0083000D01*
X0071800Y0098000D01*
X0067010Y0095714D02*
X0037480Y0095714D01*
X0035882Y0097312D02*
X0066500Y0097312D01*
X0066500Y0098911D02*
X0034283Y0098911D01*
X0032685Y0100509D02*
X0067103Y0100509D01*
X0054800Y0103706D02*
X0054800Y0103706D01*
X0054800Y0105305D02*
X0054800Y0105305D01*
X0054800Y0106903D02*
X0054800Y0106903D01*
X0054800Y0108502D02*
X0054800Y0108502D01*
X0065101Y0118093D02*
X0066500Y0118093D01*
X0066715Y0119691D02*
X0063503Y0119691D01*
X0061904Y0121290D02*
X0065116Y0121290D01*
X0063518Y0122888D02*
X0060306Y0122888D01*
X0058707Y0124487D02*
X0061919Y0124487D01*
X0060321Y0126085D02*
X0057109Y0126085D01*
X0055510Y0127684D02*
X0058722Y0127684D01*
X0057123Y0129282D02*
X0053912Y0129282D01*
X0052313Y0130881D02*
X0055525Y0130881D01*
X0053926Y0132479D02*
X0050715Y0132479D01*
X0049116Y0134078D02*
X0052328Y0134078D01*
X0050729Y0135676D02*
X0040629Y0135676D01*
X0039030Y0137275D02*
X0049131Y0137275D01*
X0047532Y0138873D02*
X0039179Y0138873D01*
X0040777Y0140472D02*
X0045934Y0140472D01*
X0046800Y0143000D02*
X0036800Y0143000D01*
X0032562Y0145268D02*
X0031038Y0145268D01*
X0029540Y0146866D02*
X0029439Y0146866D01*
X0031800Y0148000D02*
X0046800Y0148000D01*
X0066800Y0128000D01*
X0071800Y0128000D01*
X0066800Y0133000D02*
X0046800Y0153000D01*
X0036800Y0153000D01*
X0032200Y0153260D02*
X0031400Y0153260D01*
X0031400Y0154859D02*
X0032200Y0154859D01*
X0029949Y0156457D02*
X0029848Y0156457D01*
X0028350Y0158056D02*
X0006600Y0158056D01*
X0026800Y0163000D02*
X0031800Y0158000D01*
X0046800Y0158000D01*
X0066800Y0138000D01*
X0071800Y0138000D01*
X0066800Y0143000D02*
X0046800Y0163000D01*
X0036800Y0163000D01*
X0032200Y0162851D02*
X0031400Y0162851D01*
X0031400Y0164450D02*
X0032200Y0164450D01*
X0033343Y0166048D02*
X0030257Y0166048D01*
X0031941Y0161253D02*
X0032200Y0161253D01*
X0040257Y0166048D02*
X0066872Y0166048D01*
X0067855Y0164450D02*
X0048744Y0164450D01*
X0050343Y0162851D02*
X0069662Y0162851D01*
X0067557Y0161253D02*
X0051941Y0161253D01*
X0053540Y0159654D02*
X0066748Y0159654D01*
X0066500Y0158056D02*
X0055138Y0158056D01*
X0056737Y0156457D02*
X0066702Y0156457D01*
X0067446Y0154859D02*
X0058336Y0154859D01*
X0059934Y0153260D02*
X0069394Y0153260D01*
X0067966Y0151662D02*
X0061533Y0151662D01*
X0063131Y0150063D02*
X0066918Y0150063D01*
X0066500Y0148465D02*
X0064730Y0148465D01*
X0066328Y0146866D02*
X0066533Y0146866D01*
X0066800Y0143000D02*
X0076800Y0143000D01*
X0081800Y0148000D01*
X0131800Y0148000D01*
X0135634Y0151662D02*
X0351331Y0151662D01*
X0351331Y0153260D02*
X0134206Y0153260D01*
X0136154Y0154859D02*
X0351331Y0154859D01*
X0351331Y0156457D02*
X0136898Y0156457D01*
X0137100Y0158056D02*
X0351331Y0158056D01*
X0351331Y0159654D02*
X0136852Y0159654D01*
X0136043Y0161253D02*
X0351331Y0161253D01*
X0351331Y0162851D02*
X0133938Y0162851D01*
X0135745Y0164450D02*
X0143911Y0164450D01*
X0144560Y0163800D02*
X0142100Y0166260D01*
X0142100Y0169740D01*
X0144560Y0172200D01*
X0148040Y0172200D01*
X0150500Y0169740D01*
X0150500Y0166260D01*
X0148040Y0163800D01*
X0144560Y0163800D01*
X0148689Y0164450D02*
X0183911Y0164450D01*
X0184560Y0163800D02*
X0182100Y0166260D01*
X0182100Y0169740D01*
X0184560Y0172200D01*
X0188040Y0172200D01*
X0190500Y0169740D01*
X0190500Y0166260D01*
X0188040Y0163800D01*
X0184560Y0163800D01*
X0188689Y0164450D02*
X0351331Y0164450D01*
X0351331Y0166048D02*
X0190288Y0166048D01*
X0190500Y0167647D02*
X0351331Y0167647D01*
X0351331Y0169245D02*
X0206058Y0169245D01*
X0207786Y0170844D02*
X0351331Y0170844D01*
X0351331Y0172442D02*
X0208278Y0172442D01*
X0208101Y0174041D02*
X0351331Y0174041D01*
X0351331Y0175639D02*
X0208478Y0175639D01*
X0208478Y0177238D02*
X0341748Y0177238D01*
X0338062Y0178836D02*
X0208478Y0178836D01*
X0208478Y0180435D02*
X0336228Y0180435D01*
X0334971Y0182033D02*
X0208181Y0182033D01*
X0208278Y0183632D02*
X0334048Y0183632D01*
X0333582Y0185230D02*
X0207706Y0185230D01*
X0208047Y0186829D02*
X0333220Y0186829D01*
X0333220Y0188427D02*
X0208278Y0188427D01*
X0207840Y0190026D02*
X0333361Y0190026D01*
X0333790Y0191624D02*
X0206373Y0191624D01*
X0202227Y0191624D02*
X0190500Y0191624D01*
X0190500Y0193223D02*
X0334496Y0193223D01*
X0335419Y0194821D02*
X0190418Y0194821D01*
X0189266Y0190026D02*
X0200760Y0190026D01*
X0200322Y0188427D02*
X0024710Y0188427D01*
X0024570Y0190026D02*
X0143334Y0190026D01*
X0142100Y0191624D02*
X0024141Y0191624D01*
X0023435Y0193223D02*
X0142100Y0193223D01*
X0142182Y0194821D02*
X0022512Y0194821D01*
X0074853Y0172442D02*
X0078747Y0172442D01*
X0077241Y0170844D02*
X0076359Y0170844D01*
X0084853Y0172442D02*
X0088747Y0172442D01*
X0087241Y0170844D02*
X0086359Y0170844D01*
X0094853Y0172442D02*
X0098747Y0172442D01*
X0097241Y0170844D02*
X0096359Y0170844D01*
X0104853Y0172442D02*
X0108747Y0172442D01*
X0107241Y0170844D02*
X0106359Y0170844D01*
X0114853Y0172442D02*
X0118747Y0172442D01*
X0117241Y0170844D02*
X0116359Y0170844D01*
X0124853Y0172442D02*
X0128747Y0172442D01*
X0127241Y0170844D02*
X0126359Y0170844D01*
X0134853Y0172442D02*
X0200322Y0172442D01*
X0200814Y0170844D02*
X0189396Y0170844D01*
X0190500Y0169245D02*
X0202542Y0169245D01*
X0200122Y0177238D02*
X0188977Y0177238D01*
X0190500Y0178836D02*
X0200122Y0178836D01*
X0200122Y0180435D02*
X0190500Y0180435D01*
X0190500Y0182033D02*
X0200419Y0182033D01*
X0183623Y0177238D02*
X0148977Y0177238D01*
X0150500Y0178836D02*
X0182100Y0178836D01*
X0182100Y0180435D02*
X0150500Y0180435D01*
X0150500Y0182033D02*
X0182100Y0182033D01*
X0183334Y0190026D02*
X0149266Y0190026D01*
X0150500Y0191624D02*
X0182100Y0191624D01*
X0182100Y0193223D02*
X0150500Y0193223D01*
X0150418Y0194821D02*
X0182182Y0194821D01*
X0183204Y0170844D02*
X0149396Y0170844D01*
X0150500Y0169245D02*
X0182100Y0169245D01*
X0182100Y0167647D02*
X0150500Y0167647D01*
X0150288Y0166048D02*
X0182312Y0166048D01*
X0158628Y0145268D02*
X0136405Y0145268D01*
X0137067Y0146866D02*
X0351331Y0146866D01*
X0351331Y0148465D02*
X0137100Y0148465D01*
X0136682Y0150063D02*
X0351331Y0150063D01*
X0351331Y0177238D02*
X0346891Y0177238D01*
X0350578Y0178836D02*
X0351331Y0178836D01*
X0241800Y0095714D02*
X0241800Y0095714D01*
X0241800Y0094115D02*
X0241800Y0094115D01*
X0241800Y0092517D02*
X0241800Y0092517D01*
X0239061Y0092517D02*
X0231432Y0092517D01*
X0227000Y0092517D02*
X0226600Y0092517D01*
X0226600Y0090918D02*
X0227000Y0090918D01*
X0227000Y0089320D02*
X0226600Y0089320D01*
X0226600Y0087800D02*
X0219000Y0087800D01*
X0219000Y0087622D01*
X0219118Y0086876D01*
X0219352Y0086157D01*
X0219695Y0085484D01*
X0220139Y0084873D01*
X0220673Y0084339D01*
X0221284Y0083895D01*
X0221957Y0083552D01*
X0222676Y0083318D01*
X0223422Y0083200D01*
X0226600Y0083200D01*
X0226600Y0087800D01*
X0226600Y0087721D02*
X0227000Y0087721D01*
X0227000Y0086123D02*
X0226600Y0086123D01*
X0226600Y0084524D02*
X0227000Y0084524D01*
X0220488Y0084524D02*
X0182829Y0084524D01*
X0184001Y0086123D02*
X0219369Y0086123D01*
X0219000Y0087721D02*
X0184400Y0087721D01*
X0184232Y0089320D02*
X0219182Y0089320D01*
X0219987Y0090918D02*
X0183387Y0090918D01*
X0180916Y0092517D02*
X0222168Y0092517D01*
X0220622Y0081327D02*
X0182978Y0081327D01*
X0184063Y0079729D02*
X0219537Y0079729D01*
X0219200Y0078130D02*
X0184400Y0078130D01*
X0184171Y0076532D02*
X0219429Y0076532D01*
X0220362Y0074933D02*
X0183238Y0074933D01*
X0181643Y0072448D02*
X0180924Y0072682D01*
X0180178Y0072800D01*
X0177000Y0072800D01*
X0177000Y0068200D01*
X0176600Y0068200D01*
X0176600Y0072800D01*
X0173422Y0072800D01*
X0172676Y0072682D01*
X0171957Y0072448D01*
X0171284Y0072105D01*
X0170673Y0071661D01*
X0170139Y0071127D01*
X0169695Y0070516D01*
X0169352Y0069843D01*
X0169118Y0069124D01*
X0169000Y0068378D01*
X0169000Y0068200D01*
X0176600Y0068200D01*
X0176600Y0067800D01*
X0177000Y0067800D01*
X0177000Y0068200D01*
X0184600Y0068200D01*
X0184600Y0068378D01*
X0184482Y0069124D01*
X0184248Y0069843D01*
X0183905Y0070516D01*
X0183461Y0071127D01*
X0182927Y0071661D01*
X0182316Y0072105D01*
X0181643Y0072448D01*
X0182824Y0071736D02*
X0221031Y0071736D01*
X0219706Y0070137D02*
X0184098Y0070137D01*
X0184574Y0068539D02*
X0219200Y0068539D01*
X0219260Y0066940D02*
X0184492Y0066940D01*
X0184482Y0066876D02*
X0184600Y0067622D01*
X0184600Y0067800D01*
X0177000Y0067800D01*
X0177000Y0063200D01*
X0180178Y0063200D01*
X0180924Y0063318D01*
X0181643Y0063552D01*
X0182316Y0063895D01*
X0182927Y0064339D01*
X0183461Y0064873D01*
X0183905Y0065484D01*
X0184248Y0066157D01*
X0184482Y0066876D01*
X0183802Y0065342D02*
X0219953Y0065342D01*
X0222056Y0063743D02*
X0182019Y0063743D01*
X0177000Y0063743D02*
X0176600Y0063743D01*
X0176600Y0063200D02*
X0176600Y0067800D01*
X0169000Y0067800D01*
X0169000Y0067622D01*
X0169118Y0066876D01*
X0169352Y0066157D01*
X0169695Y0065484D01*
X0170139Y0064873D01*
X0170673Y0064339D01*
X0171284Y0063895D01*
X0171957Y0063552D01*
X0172676Y0063318D01*
X0173422Y0063200D01*
X0176600Y0063200D01*
X0176600Y0065342D02*
X0177000Y0065342D01*
X0177000Y0066940D02*
X0176600Y0066940D01*
X0176600Y0068539D02*
X0177000Y0068539D01*
X0177000Y0070137D02*
X0176600Y0070137D01*
X0176600Y0071736D02*
X0177000Y0071736D01*
X0170776Y0071736D02*
X0135559Y0071736D01*
X0136651Y0070137D02*
X0169502Y0070137D01*
X0169026Y0068539D02*
X0137100Y0068539D01*
X0137098Y0066940D02*
X0169108Y0066940D01*
X0169798Y0065342D02*
X0136436Y0065342D01*
X0135039Y0063743D02*
X0171581Y0063743D01*
X0169599Y0086123D02*
X0136759Y0086123D01*
X0137100Y0087721D02*
X0169200Y0087721D01*
X0169368Y0089320D02*
X0136990Y0089320D01*
X0136328Y0090918D02*
X0170213Y0090918D01*
X0172684Y0092517D02*
X0164539Y0092517D01*
X0166138Y0094115D02*
X0237462Y0094115D01*
X0158488Y0098911D02*
X0137100Y0098911D01*
X0137100Y0097312D02*
X0157400Y0097312D01*
X0157400Y0095714D02*
X0136590Y0095714D01*
X0135410Y0094115D02*
X0157462Y0094115D01*
X0157851Y0100509D02*
X0136497Y0100509D01*
X0135188Y0102108D02*
X0157600Y0102108D01*
X0157600Y0103706D02*
X0135002Y0103706D01*
X0136420Y0105305D02*
X0158665Y0105305D01*
X0131800Y0118000D02*
X0091800Y0078000D01*
X0091800Y0038000D01*
X0079300Y0025500D01*
X0079300Y0040500D02*
X0084300Y0045500D01*
X0084300Y0075500D01*
X0071800Y0088000D01*
X0071800Y0108000D02*
X0046800Y0133000D01*
X0036800Y0133000D01*
X0033380Y0126085D02*
X0030503Y0126085D01*
X0031600Y0124487D02*
X0032200Y0124487D01*
X0032200Y0122888D02*
X0027000Y0122888D01*
X0027000Y0122800D02*
X0031600Y0122800D01*
X0031600Y0121012D01*
X0028788Y0118200D01*
X0027000Y0118200D01*
X0027000Y0122800D01*
X0027000Y0121290D02*
X0026600Y0121290D01*
X0026600Y0119691D02*
X0027000Y0119691D01*
X0030280Y0119691D02*
X0033603Y0119691D01*
X0032200Y0121290D02*
X0031600Y0121290D01*
X0027000Y0124487D02*
X0026600Y0124487D01*
X0026600Y0126085D02*
X0027000Y0126085D01*
X0027000Y0127684D02*
X0026600Y0127684D01*
X0024696Y0127684D02*
X0024200Y0127684D01*
X0024469Y0137275D02*
X0024570Y0137275D01*
X0031800Y0148000D02*
X0026800Y0153000D01*
X0031533Y0151662D02*
X0032200Y0151662D01*
X0046800Y0143000D02*
X0071800Y0118000D01*
X0076800Y0133000D02*
X0066800Y0133000D01*
X0076800Y0133000D02*
X0081800Y0138000D01*
X0131800Y0138000D01*
X0135225Y0142070D02*
X0157600Y0142070D01*
X0157600Y0143669D02*
X0134964Y0143669D01*
X0136513Y0140472D02*
X0157888Y0140472D01*
X0142312Y0166048D02*
X0136728Y0166048D01*
X0137100Y0167647D02*
X0142100Y0167647D01*
X0142100Y0169245D02*
X0137021Y0169245D01*
X0136359Y0170844D02*
X0143204Y0170844D01*
X0116500Y0098911D02*
X0116105Y0098911D01*
X0116500Y0097312D02*
X0114506Y0097312D01*
X0112908Y0095714D02*
X0117010Y0095714D01*
X0118190Y0094115D02*
X0111309Y0094115D01*
X0019300Y0065500D02*
X0019300Y0045500D01*
X0013559Y0071736D02*
X0006600Y0071736D01*
X0006600Y0073334D02*
X0012218Y0073334D01*
X0011700Y0074933D02*
X0006600Y0074933D01*
X0006600Y0076532D02*
X0011748Y0076532D01*
X0012425Y0078130D02*
X0006600Y0078130D01*
X0024710Y0014190D02*
X0333220Y0014190D01*
X0333424Y0012591D02*
X0024507Y0012591D01*
X0024079Y0010993D02*
X0333852Y0010993D01*
X0334631Y0009394D02*
X0023300Y0009394D01*
X0140977Y0022182D02*
X0142412Y0022182D01*
M02*
