G75*
%MOIN*%
%OFA0B0*%
%FSLAX25Y25*%
%IPPOS*%
%LPD*%
%AMOC8*
5,1,8,0,0,1.08239X$1,22.5*
%
%ADD10C,0.00000*%
%ADD11OC8,0.06000*%
%ADD12OC8,0.05200*%
%ADD13C,0.05000*%
%ADD14C,0.06000*%
%ADD15C,0.01000*%
%ADD16C,0.01600*%
%ADD17R,0.03962X0.03962*%
D10*
X0004948Y0001500D02*
X0004948Y0099925D01*
X0162428Y0099925D01*
X0162428Y0001500D01*
X0004948Y0001500D01*
X0008492Y0011343D02*
X0008494Y0011501D01*
X0008500Y0011659D01*
X0008510Y0011817D01*
X0008524Y0011975D01*
X0008542Y0012132D01*
X0008563Y0012289D01*
X0008589Y0012445D01*
X0008619Y0012601D01*
X0008652Y0012756D01*
X0008690Y0012909D01*
X0008731Y0013062D01*
X0008776Y0013214D01*
X0008825Y0013365D01*
X0008878Y0013514D01*
X0008934Y0013662D01*
X0008994Y0013808D01*
X0009058Y0013953D01*
X0009126Y0014096D01*
X0009197Y0014238D01*
X0009271Y0014378D01*
X0009349Y0014515D01*
X0009431Y0014651D01*
X0009515Y0014785D01*
X0009604Y0014916D01*
X0009695Y0015045D01*
X0009790Y0015172D01*
X0009887Y0015297D01*
X0009988Y0015419D01*
X0010092Y0015538D01*
X0010199Y0015655D01*
X0010309Y0015769D01*
X0010422Y0015880D01*
X0010537Y0015989D01*
X0010655Y0016094D01*
X0010776Y0016196D01*
X0010899Y0016296D01*
X0011025Y0016392D01*
X0011153Y0016485D01*
X0011283Y0016575D01*
X0011416Y0016661D01*
X0011551Y0016745D01*
X0011687Y0016824D01*
X0011826Y0016901D01*
X0011967Y0016973D01*
X0012109Y0017043D01*
X0012253Y0017108D01*
X0012399Y0017170D01*
X0012546Y0017228D01*
X0012695Y0017283D01*
X0012845Y0017334D01*
X0012996Y0017381D01*
X0013148Y0017424D01*
X0013301Y0017463D01*
X0013456Y0017499D01*
X0013611Y0017530D01*
X0013767Y0017558D01*
X0013923Y0017582D01*
X0014080Y0017602D01*
X0014238Y0017618D01*
X0014395Y0017630D01*
X0014554Y0017638D01*
X0014712Y0017642D01*
X0014870Y0017642D01*
X0015028Y0017638D01*
X0015187Y0017630D01*
X0015344Y0017618D01*
X0015502Y0017602D01*
X0015659Y0017582D01*
X0015815Y0017558D01*
X0015971Y0017530D01*
X0016126Y0017499D01*
X0016281Y0017463D01*
X0016434Y0017424D01*
X0016586Y0017381D01*
X0016737Y0017334D01*
X0016887Y0017283D01*
X0017036Y0017228D01*
X0017183Y0017170D01*
X0017329Y0017108D01*
X0017473Y0017043D01*
X0017615Y0016973D01*
X0017756Y0016901D01*
X0017895Y0016824D01*
X0018031Y0016745D01*
X0018166Y0016661D01*
X0018299Y0016575D01*
X0018429Y0016485D01*
X0018557Y0016392D01*
X0018683Y0016296D01*
X0018806Y0016196D01*
X0018927Y0016094D01*
X0019045Y0015989D01*
X0019160Y0015880D01*
X0019273Y0015769D01*
X0019383Y0015655D01*
X0019490Y0015538D01*
X0019594Y0015419D01*
X0019695Y0015297D01*
X0019792Y0015172D01*
X0019887Y0015045D01*
X0019978Y0014916D01*
X0020067Y0014785D01*
X0020151Y0014651D01*
X0020233Y0014515D01*
X0020311Y0014378D01*
X0020385Y0014238D01*
X0020456Y0014096D01*
X0020524Y0013953D01*
X0020588Y0013808D01*
X0020648Y0013662D01*
X0020704Y0013514D01*
X0020757Y0013365D01*
X0020806Y0013214D01*
X0020851Y0013062D01*
X0020892Y0012909D01*
X0020930Y0012756D01*
X0020963Y0012601D01*
X0020993Y0012445D01*
X0021019Y0012289D01*
X0021040Y0012132D01*
X0021058Y0011975D01*
X0021072Y0011817D01*
X0021082Y0011659D01*
X0021088Y0011501D01*
X0021090Y0011343D01*
X0021088Y0011185D01*
X0021082Y0011027D01*
X0021072Y0010869D01*
X0021058Y0010711D01*
X0021040Y0010554D01*
X0021019Y0010397D01*
X0020993Y0010241D01*
X0020963Y0010085D01*
X0020930Y0009930D01*
X0020892Y0009777D01*
X0020851Y0009624D01*
X0020806Y0009472D01*
X0020757Y0009321D01*
X0020704Y0009172D01*
X0020648Y0009024D01*
X0020588Y0008878D01*
X0020524Y0008733D01*
X0020456Y0008590D01*
X0020385Y0008448D01*
X0020311Y0008308D01*
X0020233Y0008171D01*
X0020151Y0008035D01*
X0020067Y0007901D01*
X0019978Y0007770D01*
X0019887Y0007641D01*
X0019792Y0007514D01*
X0019695Y0007389D01*
X0019594Y0007267D01*
X0019490Y0007148D01*
X0019383Y0007031D01*
X0019273Y0006917D01*
X0019160Y0006806D01*
X0019045Y0006697D01*
X0018927Y0006592D01*
X0018806Y0006490D01*
X0018683Y0006390D01*
X0018557Y0006294D01*
X0018429Y0006201D01*
X0018299Y0006111D01*
X0018166Y0006025D01*
X0018031Y0005941D01*
X0017895Y0005862D01*
X0017756Y0005785D01*
X0017615Y0005713D01*
X0017473Y0005643D01*
X0017329Y0005578D01*
X0017183Y0005516D01*
X0017036Y0005458D01*
X0016887Y0005403D01*
X0016737Y0005352D01*
X0016586Y0005305D01*
X0016434Y0005262D01*
X0016281Y0005223D01*
X0016126Y0005187D01*
X0015971Y0005156D01*
X0015815Y0005128D01*
X0015659Y0005104D01*
X0015502Y0005084D01*
X0015344Y0005068D01*
X0015187Y0005056D01*
X0015028Y0005048D01*
X0014870Y0005044D01*
X0014712Y0005044D01*
X0014554Y0005048D01*
X0014395Y0005056D01*
X0014238Y0005068D01*
X0014080Y0005084D01*
X0013923Y0005104D01*
X0013767Y0005128D01*
X0013611Y0005156D01*
X0013456Y0005187D01*
X0013301Y0005223D01*
X0013148Y0005262D01*
X0012996Y0005305D01*
X0012845Y0005352D01*
X0012695Y0005403D01*
X0012546Y0005458D01*
X0012399Y0005516D01*
X0012253Y0005578D01*
X0012109Y0005643D01*
X0011967Y0005713D01*
X0011826Y0005785D01*
X0011687Y0005862D01*
X0011551Y0005941D01*
X0011416Y0006025D01*
X0011283Y0006111D01*
X0011153Y0006201D01*
X0011025Y0006294D01*
X0010899Y0006390D01*
X0010776Y0006490D01*
X0010655Y0006592D01*
X0010537Y0006697D01*
X0010422Y0006806D01*
X0010309Y0006917D01*
X0010199Y0007031D01*
X0010092Y0007148D01*
X0009988Y0007267D01*
X0009887Y0007389D01*
X0009790Y0007514D01*
X0009695Y0007641D01*
X0009604Y0007770D01*
X0009515Y0007901D01*
X0009431Y0008035D01*
X0009349Y0008171D01*
X0009271Y0008308D01*
X0009197Y0008448D01*
X0009126Y0008590D01*
X0009058Y0008733D01*
X0008994Y0008878D01*
X0008934Y0009024D01*
X0008878Y0009172D01*
X0008825Y0009321D01*
X0008776Y0009472D01*
X0008731Y0009624D01*
X0008690Y0009777D01*
X0008652Y0009930D01*
X0008619Y0010085D01*
X0008589Y0010241D01*
X0008563Y0010397D01*
X0008542Y0010554D01*
X0008524Y0010711D01*
X0008510Y0010869D01*
X0008500Y0011027D01*
X0008494Y0011185D01*
X0008492Y0011343D01*
X0008492Y0090083D02*
X0008494Y0090241D01*
X0008500Y0090399D01*
X0008510Y0090557D01*
X0008524Y0090715D01*
X0008542Y0090872D01*
X0008563Y0091029D01*
X0008589Y0091185D01*
X0008619Y0091341D01*
X0008652Y0091496D01*
X0008690Y0091649D01*
X0008731Y0091802D01*
X0008776Y0091954D01*
X0008825Y0092105D01*
X0008878Y0092254D01*
X0008934Y0092402D01*
X0008994Y0092548D01*
X0009058Y0092693D01*
X0009126Y0092836D01*
X0009197Y0092978D01*
X0009271Y0093118D01*
X0009349Y0093255D01*
X0009431Y0093391D01*
X0009515Y0093525D01*
X0009604Y0093656D01*
X0009695Y0093785D01*
X0009790Y0093912D01*
X0009887Y0094037D01*
X0009988Y0094159D01*
X0010092Y0094278D01*
X0010199Y0094395D01*
X0010309Y0094509D01*
X0010422Y0094620D01*
X0010537Y0094729D01*
X0010655Y0094834D01*
X0010776Y0094936D01*
X0010899Y0095036D01*
X0011025Y0095132D01*
X0011153Y0095225D01*
X0011283Y0095315D01*
X0011416Y0095401D01*
X0011551Y0095485D01*
X0011687Y0095564D01*
X0011826Y0095641D01*
X0011967Y0095713D01*
X0012109Y0095783D01*
X0012253Y0095848D01*
X0012399Y0095910D01*
X0012546Y0095968D01*
X0012695Y0096023D01*
X0012845Y0096074D01*
X0012996Y0096121D01*
X0013148Y0096164D01*
X0013301Y0096203D01*
X0013456Y0096239D01*
X0013611Y0096270D01*
X0013767Y0096298D01*
X0013923Y0096322D01*
X0014080Y0096342D01*
X0014238Y0096358D01*
X0014395Y0096370D01*
X0014554Y0096378D01*
X0014712Y0096382D01*
X0014870Y0096382D01*
X0015028Y0096378D01*
X0015187Y0096370D01*
X0015344Y0096358D01*
X0015502Y0096342D01*
X0015659Y0096322D01*
X0015815Y0096298D01*
X0015971Y0096270D01*
X0016126Y0096239D01*
X0016281Y0096203D01*
X0016434Y0096164D01*
X0016586Y0096121D01*
X0016737Y0096074D01*
X0016887Y0096023D01*
X0017036Y0095968D01*
X0017183Y0095910D01*
X0017329Y0095848D01*
X0017473Y0095783D01*
X0017615Y0095713D01*
X0017756Y0095641D01*
X0017895Y0095564D01*
X0018031Y0095485D01*
X0018166Y0095401D01*
X0018299Y0095315D01*
X0018429Y0095225D01*
X0018557Y0095132D01*
X0018683Y0095036D01*
X0018806Y0094936D01*
X0018927Y0094834D01*
X0019045Y0094729D01*
X0019160Y0094620D01*
X0019273Y0094509D01*
X0019383Y0094395D01*
X0019490Y0094278D01*
X0019594Y0094159D01*
X0019695Y0094037D01*
X0019792Y0093912D01*
X0019887Y0093785D01*
X0019978Y0093656D01*
X0020067Y0093525D01*
X0020151Y0093391D01*
X0020233Y0093255D01*
X0020311Y0093118D01*
X0020385Y0092978D01*
X0020456Y0092836D01*
X0020524Y0092693D01*
X0020588Y0092548D01*
X0020648Y0092402D01*
X0020704Y0092254D01*
X0020757Y0092105D01*
X0020806Y0091954D01*
X0020851Y0091802D01*
X0020892Y0091649D01*
X0020930Y0091496D01*
X0020963Y0091341D01*
X0020993Y0091185D01*
X0021019Y0091029D01*
X0021040Y0090872D01*
X0021058Y0090715D01*
X0021072Y0090557D01*
X0021082Y0090399D01*
X0021088Y0090241D01*
X0021090Y0090083D01*
X0021088Y0089925D01*
X0021082Y0089767D01*
X0021072Y0089609D01*
X0021058Y0089451D01*
X0021040Y0089294D01*
X0021019Y0089137D01*
X0020993Y0088981D01*
X0020963Y0088825D01*
X0020930Y0088670D01*
X0020892Y0088517D01*
X0020851Y0088364D01*
X0020806Y0088212D01*
X0020757Y0088061D01*
X0020704Y0087912D01*
X0020648Y0087764D01*
X0020588Y0087618D01*
X0020524Y0087473D01*
X0020456Y0087330D01*
X0020385Y0087188D01*
X0020311Y0087048D01*
X0020233Y0086911D01*
X0020151Y0086775D01*
X0020067Y0086641D01*
X0019978Y0086510D01*
X0019887Y0086381D01*
X0019792Y0086254D01*
X0019695Y0086129D01*
X0019594Y0086007D01*
X0019490Y0085888D01*
X0019383Y0085771D01*
X0019273Y0085657D01*
X0019160Y0085546D01*
X0019045Y0085437D01*
X0018927Y0085332D01*
X0018806Y0085230D01*
X0018683Y0085130D01*
X0018557Y0085034D01*
X0018429Y0084941D01*
X0018299Y0084851D01*
X0018166Y0084765D01*
X0018031Y0084681D01*
X0017895Y0084602D01*
X0017756Y0084525D01*
X0017615Y0084453D01*
X0017473Y0084383D01*
X0017329Y0084318D01*
X0017183Y0084256D01*
X0017036Y0084198D01*
X0016887Y0084143D01*
X0016737Y0084092D01*
X0016586Y0084045D01*
X0016434Y0084002D01*
X0016281Y0083963D01*
X0016126Y0083927D01*
X0015971Y0083896D01*
X0015815Y0083868D01*
X0015659Y0083844D01*
X0015502Y0083824D01*
X0015344Y0083808D01*
X0015187Y0083796D01*
X0015028Y0083788D01*
X0014870Y0083784D01*
X0014712Y0083784D01*
X0014554Y0083788D01*
X0014395Y0083796D01*
X0014238Y0083808D01*
X0014080Y0083824D01*
X0013923Y0083844D01*
X0013767Y0083868D01*
X0013611Y0083896D01*
X0013456Y0083927D01*
X0013301Y0083963D01*
X0013148Y0084002D01*
X0012996Y0084045D01*
X0012845Y0084092D01*
X0012695Y0084143D01*
X0012546Y0084198D01*
X0012399Y0084256D01*
X0012253Y0084318D01*
X0012109Y0084383D01*
X0011967Y0084453D01*
X0011826Y0084525D01*
X0011687Y0084602D01*
X0011551Y0084681D01*
X0011416Y0084765D01*
X0011283Y0084851D01*
X0011153Y0084941D01*
X0011025Y0085034D01*
X0010899Y0085130D01*
X0010776Y0085230D01*
X0010655Y0085332D01*
X0010537Y0085437D01*
X0010422Y0085546D01*
X0010309Y0085657D01*
X0010199Y0085771D01*
X0010092Y0085888D01*
X0009988Y0086007D01*
X0009887Y0086129D01*
X0009790Y0086254D01*
X0009695Y0086381D01*
X0009604Y0086510D01*
X0009515Y0086641D01*
X0009431Y0086775D01*
X0009349Y0086911D01*
X0009271Y0087048D01*
X0009197Y0087188D01*
X0009126Y0087330D01*
X0009058Y0087473D01*
X0008994Y0087618D01*
X0008934Y0087764D01*
X0008878Y0087912D01*
X0008825Y0088061D01*
X0008776Y0088212D01*
X0008731Y0088364D01*
X0008690Y0088517D01*
X0008652Y0088670D01*
X0008619Y0088825D01*
X0008589Y0088981D01*
X0008563Y0089137D01*
X0008542Y0089294D01*
X0008524Y0089451D01*
X0008510Y0089609D01*
X0008500Y0089767D01*
X0008494Y0089925D01*
X0008492Y0090083D01*
X0146287Y0090083D02*
X0146289Y0090241D01*
X0146295Y0090399D01*
X0146305Y0090557D01*
X0146319Y0090715D01*
X0146337Y0090872D01*
X0146358Y0091029D01*
X0146384Y0091185D01*
X0146414Y0091341D01*
X0146447Y0091496D01*
X0146485Y0091649D01*
X0146526Y0091802D01*
X0146571Y0091954D01*
X0146620Y0092105D01*
X0146673Y0092254D01*
X0146729Y0092402D01*
X0146789Y0092548D01*
X0146853Y0092693D01*
X0146921Y0092836D01*
X0146992Y0092978D01*
X0147066Y0093118D01*
X0147144Y0093255D01*
X0147226Y0093391D01*
X0147310Y0093525D01*
X0147399Y0093656D01*
X0147490Y0093785D01*
X0147585Y0093912D01*
X0147682Y0094037D01*
X0147783Y0094159D01*
X0147887Y0094278D01*
X0147994Y0094395D01*
X0148104Y0094509D01*
X0148217Y0094620D01*
X0148332Y0094729D01*
X0148450Y0094834D01*
X0148571Y0094936D01*
X0148694Y0095036D01*
X0148820Y0095132D01*
X0148948Y0095225D01*
X0149078Y0095315D01*
X0149211Y0095401D01*
X0149346Y0095485D01*
X0149482Y0095564D01*
X0149621Y0095641D01*
X0149762Y0095713D01*
X0149904Y0095783D01*
X0150048Y0095848D01*
X0150194Y0095910D01*
X0150341Y0095968D01*
X0150490Y0096023D01*
X0150640Y0096074D01*
X0150791Y0096121D01*
X0150943Y0096164D01*
X0151096Y0096203D01*
X0151251Y0096239D01*
X0151406Y0096270D01*
X0151562Y0096298D01*
X0151718Y0096322D01*
X0151875Y0096342D01*
X0152033Y0096358D01*
X0152190Y0096370D01*
X0152349Y0096378D01*
X0152507Y0096382D01*
X0152665Y0096382D01*
X0152823Y0096378D01*
X0152982Y0096370D01*
X0153139Y0096358D01*
X0153297Y0096342D01*
X0153454Y0096322D01*
X0153610Y0096298D01*
X0153766Y0096270D01*
X0153921Y0096239D01*
X0154076Y0096203D01*
X0154229Y0096164D01*
X0154381Y0096121D01*
X0154532Y0096074D01*
X0154682Y0096023D01*
X0154831Y0095968D01*
X0154978Y0095910D01*
X0155124Y0095848D01*
X0155268Y0095783D01*
X0155410Y0095713D01*
X0155551Y0095641D01*
X0155690Y0095564D01*
X0155826Y0095485D01*
X0155961Y0095401D01*
X0156094Y0095315D01*
X0156224Y0095225D01*
X0156352Y0095132D01*
X0156478Y0095036D01*
X0156601Y0094936D01*
X0156722Y0094834D01*
X0156840Y0094729D01*
X0156955Y0094620D01*
X0157068Y0094509D01*
X0157178Y0094395D01*
X0157285Y0094278D01*
X0157389Y0094159D01*
X0157490Y0094037D01*
X0157587Y0093912D01*
X0157682Y0093785D01*
X0157773Y0093656D01*
X0157862Y0093525D01*
X0157946Y0093391D01*
X0158028Y0093255D01*
X0158106Y0093118D01*
X0158180Y0092978D01*
X0158251Y0092836D01*
X0158319Y0092693D01*
X0158383Y0092548D01*
X0158443Y0092402D01*
X0158499Y0092254D01*
X0158552Y0092105D01*
X0158601Y0091954D01*
X0158646Y0091802D01*
X0158687Y0091649D01*
X0158725Y0091496D01*
X0158758Y0091341D01*
X0158788Y0091185D01*
X0158814Y0091029D01*
X0158835Y0090872D01*
X0158853Y0090715D01*
X0158867Y0090557D01*
X0158877Y0090399D01*
X0158883Y0090241D01*
X0158885Y0090083D01*
X0158883Y0089925D01*
X0158877Y0089767D01*
X0158867Y0089609D01*
X0158853Y0089451D01*
X0158835Y0089294D01*
X0158814Y0089137D01*
X0158788Y0088981D01*
X0158758Y0088825D01*
X0158725Y0088670D01*
X0158687Y0088517D01*
X0158646Y0088364D01*
X0158601Y0088212D01*
X0158552Y0088061D01*
X0158499Y0087912D01*
X0158443Y0087764D01*
X0158383Y0087618D01*
X0158319Y0087473D01*
X0158251Y0087330D01*
X0158180Y0087188D01*
X0158106Y0087048D01*
X0158028Y0086911D01*
X0157946Y0086775D01*
X0157862Y0086641D01*
X0157773Y0086510D01*
X0157682Y0086381D01*
X0157587Y0086254D01*
X0157490Y0086129D01*
X0157389Y0086007D01*
X0157285Y0085888D01*
X0157178Y0085771D01*
X0157068Y0085657D01*
X0156955Y0085546D01*
X0156840Y0085437D01*
X0156722Y0085332D01*
X0156601Y0085230D01*
X0156478Y0085130D01*
X0156352Y0085034D01*
X0156224Y0084941D01*
X0156094Y0084851D01*
X0155961Y0084765D01*
X0155826Y0084681D01*
X0155690Y0084602D01*
X0155551Y0084525D01*
X0155410Y0084453D01*
X0155268Y0084383D01*
X0155124Y0084318D01*
X0154978Y0084256D01*
X0154831Y0084198D01*
X0154682Y0084143D01*
X0154532Y0084092D01*
X0154381Y0084045D01*
X0154229Y0084002D01*
X0154076Y0083963D01*
X0153921Y0083927D01*
X0153766Y0083896D01*
X0153610Y0083868D01*
X0153454Y0083844D01*
X0153297Y0083824D01*
X0153139Y0083808D01*
X0152982Y0083796D01*
X0152823Y0083788D01*
X0152665Y0083784D01*
X0152507Y0083784D01*
X0152349Y0083788D01*
X0152190Y0083796D01*
X0152033Y0083808D01*
X0151875Y0083824D01*
X0151718Y0083844D01*
X0151562Y0083868D01*
X0151406Y0083896D01*
X0151251Y0083927D01*
X0151096Y0083963D01*
X0150943Y0084002D01*
X0150791Y0084045D01*
X0150640Y0084092D01*
X0150490Y0084143D01*
X0150341Y0084198D01*
X0150194Y0084256D01*
X0150048Y0084318D01*
X0149904Y0084383D01*
X0149762Y0084453D01*
X0149621Y0084525D01*
X0149482Y0084602D01*
X0149346Y0084681D01*
X0149211Y0084765D01*
X0149078Y0084851D01*
X0148948Y0084941D01*
X0148820Y0085034D01*
X0148694Y0085130D01*
X0148571Y0085230D01*
X0148450Y0085332D01*
X0148332Y0085437D01*
X0148217Y0085546D01*
X0148104Y0085657D01*
X0147994Y0085771D01*
X0147887Y0085888D01*
X0147783Y0086007D01*
X0147682Y0086129D01*
X0147585Y0086254D01*
X0147490Y0086381D01*
X0147399Y0086510D01*
X0147310Y0086641D01*
X0147226Y0086775D01*
X0147144Y0086911D01*
X0147066Y0087048D01*
X0146992Y0087188D01*
X0146921Y0087330D01*
X0146853Y0087473D01*
X0146789Y0087618D01*
X0146729Y0087764D01*
X0146673Y0087912D01*
X0146620Y0088061D01*
X0146571Y0088212D01*
X0146526Y0088364D01*
X0146485Y0088517D01*
X0146447Y0088670D01*
X0146414Y0088825D01*
X0146384Y0088981D01*
X0146358Y0089137D01*
X0146337Y0089294D01*
X0146319Y0089451D01*
X0146305Y0089609D01*
X0146295Y0089767D01*
X0146289Y0089925D01*
X0146287Y0090083D01*
X0146287Y0011343D02*
X0146289Y0011501D01*
X0146295Y0011659D01*
X0146305Y0011817D01*
X0146319Y0011975D01*
X0146337Y0012132D01*
X0146358Y0012289D01*
X0146384Y0012445D01*
X0146414Y0012601D01*
X0146447Y0012756D01*
X0146485Y0012909D01*
X0146526Y0013062D01*
X0146571Y0013214D01*
X0146620Y0013365D01*
X0146673Y0013514D01*
X0146729Y0013662D01*
X0146789Y0013808D01*
X0146853Y0013953D01*
X0146921Y0014096D01*
X0146992Y0014238D01*
X0147066Y0014378D01*
X0147144Y0014515D01*
X0147226Y0014651D01*
X0147310Y0014785D01*
X0147399Y0014916D01*
X0147490Y0015045D01*
X0147585Y0015172D01*
X0147682Y0015297D01*
X0147783Y0015419D01*
X0147887Y0015538D01*
X0147994Y0015655D01*
X0148104Y0015769D01*
X0148217Y0015880D01*
X0148332Y0015989D01*
X0148450Y0016094D01*
X0148571Y0016196D01*
X0148694Y0016296D01*
X0148820Y0016392D01*
X0148948Y0016485D01*
X0149078Y0016575D01*
X0149211Y0016661D01*
X0149346Y0016745D01*
X0149482Y0016824D01*
X0149621Y0016901D01*
X0149762Y0016973D01*
X0149904Y0017043D01*
X0150048Y0017108D01*
X0150194Y0017170D01*
X0150341Y0017228D01*
X0150490Y0017283D01*
X0150640Y0017334D01*
X0150791Y0017381D01*
X0150943Y0017424D01*
X0151096Y0017463D01*
X0151251Y0017499D01*
X0151406Y0017530D01*
X0151562Y0017558D01*
X0151718Y0017582D01*
X0151875Y0017602D01*
X0152033Y0017618D01*
X0152190Y0017630D01*
X0152349Y0017638D01*
X0152507Y0017642D01*
X0152665Y0017642D01*
X0152823Y0017638D01*
X0152982Y0017630D01*
X0153139Y0017618D01*
X0153297Y0017602D01*
X0153454Y0017582D01*
X0153610Y0017558D01*
X0153766Y0017530D01*
X0153921Y0017499D01*
X0154076Y0017463D01*
X0154229Y0017424D01*
X0154381Y0017381D01*
X0154532Y0017334D01*
X0154682Y0017283D01*
X0154831Y0017228D01*
X0154978Y0017170D01*
X0155124Y0017108D01*
X0155268Y0017043D01*
X0155410Y0016973D01*
X0155551Y0016901D01*
X0155690Y0016824D01*
X0155826Y0016745D01*
X0155961Y0016661D01*
X0156094Y0016575D01*
X0156224Y0016485D01*
X0156352Y0016392D01*
X0156478Y0016296D01*
X0156601Y0016196D01*
X0156722Y0016094D01*
X0156840Y0015989D01*
X0156955Y0015880D01*
X0157068Y0015769D01*
X0157178Y0015655D01*
X0157285Y0015538D01*
X0157389Y0015419D01*
X0157490Y0015297D01*
X0157587Y0015172D01*
X0157682Y0015045D01*
X0157773Y0014916D01*
X0157862Y0014785D01*
X0157946Y0014651D01*
X0158028Y0014515D01*
X0158106Y0014378D01*
X0158180Y0014238D01*
X0158251Y0014096D01*
X0158319Y0013953D01*
X0158383Y0013808D01*
X0158443Y0013662D01*
X0158499Y0013514D01*
X0158552Y0013365D01*
X0158601Y0013214D01*
X0158646Y0013062D01*
X0158687Y0012909D01*
X0158725Y0012756D01*
X0158758Y0012601D01*
X0158788Y0012445D01*
X0158814Y0012289D01*
X0158835Y0012132D01*
X0158853Y0011975D01*
X0158867Y0011817D01*
X0158877Y0011659D01*
X0158883Y0011501D01*
X0158885Y0011343D01*
X0158883Y0011185D01*
X0158877Y0011027D01*
X0158867Y0010869D01*
X0158853Y0010711D01*
X0158835Y0010554D01*
X0158814Y0010397D01*
X0158788Y0010241D01*
X0158758Y0010085D01*
X0158725Y0009930D01*
X0158687Y0009777D01*
X0158646Y0009624D01*
X0158601Y0009472D01*
X0158552Y0009321D01*
X0158499Y0009172D01*
X0158443Y0009024D01*
X0158383Y0008878D01*
X0158319Y0008733D01*
X0158251Y0008590D01*
X0158180Y0008448D01*
X0158106Y0008308D01*
X0158028Y0008171D01*
X0157946Y0008035D01*
X0157862Y0007901D01*
X0157773Y0007770D01*
X0157682Y0007641D01*
X0157587Y0007514D01*
X0157490Y0007389D01*
X0157389Y0007267D01*
X0157285Y0007148D01*
X0157178Y0007031D01*
X0157068Y0006917D01*
X0156955Y0006806D01*
X0156840Y0006697D01*
X0156722Y0006592D01*
X0156601Y0006490D01*
X0156478Y0006390D01*
X0156352Y0006294D01*
X0156224Y0006201D01*
X0156094Y0006111D01*
X0155961Y0006025D01*
X0155826Y0005941D01*
X0155690Y0005862D01*
X0155551Y0005785D01*
X0155410Y0005713D01*
X0155268Y0005643D01*
X0155124Y0005578D01*
X0154978Y0005516D01*
X0154831Y0005458D01*
X0154682Y0005403D01*
X0154532Y0005352D01*
X0154381Y0005305D01*
X0154229Y0005262D01*
X0154076Y0005223D01*
X0153921Y0005187D01*
X0153766Y0005156D01*
X0153610Y0005128D01*
X0153454Y0005104D01*
X0153297Y0005084D01*
X0153139Y0005068D01*
X0152982Y0005056D01*
X0152823Y0005048D01*
X0152665Y0005044D01*
X0152507Y0005044D01*
X0152349Y0005048D01*
X0152190Y0005056D01*
X0152033Y0005068D01*
X0151875Y0005084D01*
X0151718Y0005104D01*
X0151562Y0005128D01*
X0151406Y0005156D01*
X0151251Y0005187D01*
X0151096Y0005223D01*
X0150943Y0005262D01*
X0150791Y0005305D01*
X0150640Y0005352D01*
X0150490Y0005403D01*
X0150341Y0005458D01*
X0150194Y0005516D01*
X0150048Y0005578D01*
X0149904Y0005643D01*
X0149762Y0005713D01*
X0149621Y0005785D01*
X0149482Y0005862D01*
X0149346Y0005941D01*
X0149211Y0006025D01*
X0149078Y0006111D01*
X0148948Y0006201D01*
X0148820Y0006294D01*
X0148694Y0006390D01*
X0148571Y0006490D01*
X0148450Y0006592D01*
X0148332Y0006697D01*
X0148217Y0006806D01*
X0148104Y0006917D01*
X0147994Y0007031D01*
X0147887Y0007148D01*
X0147783Y0007267D01*
X0147682Y0007389D01*
X0147585Y0007514D01*
X0147490Y0007641D01*
X0147399Y0007770D01*
X0147310Y0007901D01*
X0147226Y0008035D01*
X0147144Y0008171D01*
X0147066Y0008308D01*
X0146992Y0008448D01*
X0146921Y0008590D01*
X0146853Y0008733D01*
X0146789Y0008878D01*
X0146729Y0009024D01*
X0146673Y0009172D01*
X0146620Y0009321D01*
X0146571Y0009472D01*
X0146526Y0009624D01*
X0146485Y0009777D01*
X0146447Y0009930D01*
X0146414Y0010085D01*
X0146384Y0010241D01*
X0146358Y0010397D01*
X0146337Y0010554D01*
X0146319Y0010711D01*
X0146305Y0010869D01*
X0146295Y0011027D01*
X0146289Y0011185D01*
X0146287Y0011343D01*
D11*
X0099948Y0076500D03*
X0089948Y0076500D03*
X0079948Y0076500D03*
X0069948Y0076500D03*
X0069948Y0086500D03*
X0079948Y0086500D03*
X0089948Y0086500D03*
X0099948Y0086500D03*
D12*
X0105448Y0061500D03*
X0115448Y0061500D03*
X0155448Y0061500D03*
X0155448Y0031500D03*
X0115448Y0031500D03*
X0105448Y0031500D03*
X0065448Y0031500D03*
X0052948Y0031500D03*
X0012948Y0031500D03*
X0012948Y0061500D03*
X0052948Y0061500D03*
X0065448Y0061500D03*
D13*
X0079948Y0051500D03*
X0089948Y0051500D03*
X0089948Y0041500D03*
X0079948Y0041500D03*
X0024948Y0041500D03*
X0014948Y0041500D03*
X0014948Y0051500D03*
X0024948Y0051500D03*
X0142448Y0051500D03*
X0152448Y0051500D03*
X0152448Y0041500D03*
X0142448Y0041500D03*
D14*
X0099948Y0017000D02*
X0099948Y0011000D01*
X0089948Y0011000D02*
X0089948Y0017000D01*
X0079948Y0017000D02*
X0079948Y0011000D01*
X0069948Y0011000D02*
X0069948Y0017000D01*
D15*
X0069448Y0017476D02*
X0070448Y0017476D01*
X0070448Y0016478D02*
X0069448Y0016478D01*
X0069448Y0015479D02*
X0070448Y0015479D01*
X0070448Y0014500D02*
X0069448Y0014500D01*
X0069448Y0013500D01*
X0065448Y0013500D01*
X0065448Y0010646D01*
X0065559Y0009946D01*
X0065778Y0009273D01*
X0066099Y0008641D01*
X0066516Y0008068D01*
X0067016Y0007568D01*
X0067590Y0007151D01*
X0068221Y0006830D01*
X0068894Y0006611D01*
X0069448Y0006523D01*
X0069448Y0013500D01*
X0070448Y0013500D01*
X0070448Y0006523D01*
X0071002Y0006611D01*
X0071675Y0006830D01*
X0072307Y0007151D01*
X0072880Y0007568D01*
X0073380Y0008068D01*
X0073797Y0008641D01*
X0074118Y0009273D01*
X0074337Y0009946D01*
X0074448Y0010646D01*
X0074448Y0013500D01*
X0070448Y0013500D01*
X0070448Y0014500D01*
X0070448Y0021477D01*
X0071002Y0021389D01*
X0071675Y0021170D01*
X0072307Y0020849D01*
X0072880Y0020432D01*
X0073380Y0019932D01*
X0073797Y0019359D01*
X0074118Y0018727D01*
X0074337Y0018054D01*
X0074448Y0017354D01*
X0074448Y0014500D01*
X0070448Y0014500D01*
X0070448Y0014481D02*
X0075648Y0014481D01*
X0075648Y0015479D02*
X0074448Y0015479D01*
X0074448Y0016478D02*
X0075648Y0016478D01*
X0075648Y0017476D02*
X0074429Y0017476D01*
X0074200Y0018475D02*
X0075905Y0018475D01*
X0075648Y0017855D02*
X0076303Y0019436D01*
X0077512Y0020645D01*
X0079093Y0021300D01*
X0080803Y0021300D01*
X0082384Y0020645D01*
X0083593Y0019436D01*
X0084248Y0017855D01*
X0084248Y0010145D01*
X0083593Y0008564D01*
X0082384Y0007355D01*
X0080803Y0006700D01*
X0079093Y0006700D01*
X0077512Y0007355D01*
X0076303Y0008564D01*
X0075648Y0010145D01*
X0075648Y0017855D01*
X0076340Y0019473D02*
X0073713Y0019473D01*
X0072825Y0020472D02*
X0077339Y0020472D01*
X0082557Y0020472D02*
X0087339Y0020472D01*
X0087512Y0020645D02*
X0086303Y0019436D01*
X0085648Y0017855D01*
X0085648Y0010145D01*
X0086303Y0008564D01*
X0087512Y0007355D01*
X0089093Y0006700D01*
X0090803Y0006700D01*
X0092384Y0007355D01*
X0093593Y0008564D01*
X0094248Y0010145D01*
X0094248Y0017855D01*
X0093593Y0019436D01*
X0092384Y0020645D01*
X0090803Y0021300D01*
X0089093Y0021300D01*
X0087512Y0020645D01*
X0086340Y0019473D02*
X0083556Y0019473D01*
X0083991Y0018475D02*
X0085905Y0018475D01*
X0085648Y0017476D02*
X0084248Y0017476D01*
X0084248Y0016478D02*
X0085648Y0016478D01*
X0085648Y0015479D02*
X0084248Y0015479D01*
X0084248Y0014481D02*
X0085648Y0014481D01*
X0085648Y0013482D02*
X0084248Y0013482D01*
X0084248Y0012484D02*
X0085648Y0012484D01*
X0085648Y0011485D02*
X0084248Y0011485D01*
X0084248Y0010487D02*
X0085648Y0010487D01*
X0085920Y0009488D02*
X0083976Y0009488D01*
X0083519Y0008490D02*
X0086377Y0008490D01*
X0087376Y0007491D02*
X0082520Y0007491D01*
X0077376Y0007491D02*
X0072774Y0007491D01*
X0073686Y0008490D02*
X0076377Y0008490D01*
X0075920Y0009488D02*
X0074188Y0009488D01*
X0074423Y0010487D02*
X0075648Y0010487D01*
X0075648Y0011485D02*
X0074448Y0011485D01*
X0074448Y0012484D02*
X0075648Y0012484D01*
X0075648Y0013482D02*
X0074448Y0013482D01*
X0070448Y0013482D02*
X0069448Y0013482D01*
X0069448Y0012484D02*
X0070448Y0012484D01*
X0070448Y0011485D02*
X0069448Y0011485D01*
X0069448Y0010487D02*
X0070448Y0010487D01*
X0070448Y0009488D02*
X0069448Y0009488D01*
X0069448Y0008490D02*
X0070448Y0008490D01*
X0070448Y0007491D02*
X0069448Y0007491D01*
X0067122Y0007491D02*
X0024939Y0007491D01*
X0024854Y0007174D02*
X0025590Y0009921D01*
X0025590Y0012764D01*
X0024854Y0015511D01*
X0023432Y0017973D01*
X0021421Y0019984D01*
X0018959Y0021406D01*
X0016212Y0022142D01*
X0013369Y0022142D01*
X0010622Y0021406D01*
X0009448Y0020728D01*
X0009448Y0029485D01*
X0011333Y0027600D01*
X0014563Y0027600D01*
X0016848Y0029885D01*
X0016848Y0033115D01*
X0014563Y0035400D01*
X0011333Y0035400D01*
X0009448Y0033515D01*
X0009448Y0059485D01*
X0011333Y0057600D01*
X0014563Y0057600D01*
X0016848Y0059885D01*
X0016848Y0063115D01*
X0014563Y0065400D01*
X0011333Y0065400D01*
X0009448Y0063515D01*
X0009448Y0080697D01*
X0010622Y0080019D01*
X0013369Y0079283D01*
X0016212Y0079283D01*
X0018959Y0080019D01*
X0021421Y0081441D01*
X0023432Y0083452D01*
X0024854Y0085914D01*
X0025590Y0088661D01*
X0025590Y0091504D01*
X0024854Y0094251D01*
X0024176Y0095425D01*
X0143200Y0095425D01*
X0142523Y0094251D01*
X0141787Y0091504D01*
X0141787Y0088661D01*
X0142523Y0085914D01*
X0143944Y0083452D01*
X0145955Y0081441D01*
X0148417Y0080019D01*
X0151164Y0079283D01*
X0154008Y0079283D01*
X0156754Y0080019D01*
X0157928Y0080697D01*
X0157928Y0064818D01*
X0157146Y0065600D01*
X0155748Y0065600D01*
X0155748Y0061800D01*
X0155148Y0061800D01*
X0155148Y0061200D01*
X0151348Y0061200D01*
X0151348Y0059802D01*
X0153750Y0057400D01*
X0155148Y0057400D01*
X0155148Y0061200D01*
X0155748Y0061200D01*
X0155748Y0057400D01*
X0157146Y0057400D01*
X0157928Y0058182D01*
X0157928Y0034818D01*
X0157146Y0035600D01*
X0155748Y0035600D01*
X0155748Y0031800D01*
X0155148Y0031800D01*
X0155148Y0031200D01*
X0151348Y0031200D01*
X0151348Y0029802D01*
X0153750Y0027400D01*
X0155148Y0027400D01*
X0155148Y0031200D01*
X0155748Y0031200D01*
X0155748Y0027400D01*
X0157146Y0027400D01*
X0157928Y0028182D01*
X0157928Y0020728D01*
X0156754Y0021406D01*
X0154008Y0022142D01*
X0151164Y0022142D01*
X0148417Y0021406D01*
X0145955Y0019984D01*
X0143944Y0017973D01*
X0142523Y0015511D01*
X0141787Y0012764D01*
X0141787Y0009921D01*
X0142523Y0007174D01*
X0143200Y0006000D01*
X0024176Y0006000D01*
X0024854Y0007174D01*
X0024460Y0006493D02*
X0142916Y0006493D01*
X0142438Y0007491D02*
X0102520Y0007491D01*
X0102384Y0007355D02*
X0103593Y0008564D01*
X0104248Y0010145D01*
X0104248Y0017855D01*
X0103593Y0019436D01*
X0102384Y0020645D01*
X0100803Y0021300D01*
X0099093Y0021300D01*
X0097512Y0020645D01*
X0096303Y0019436D01*
X0095648Y0017855D01*
X0095648Y0010145D01*
X0096303Y0008564D01*
X0097512Y0007355D01*
X0099093Y0006700D01*
X0100803Y0006700D01*
X0102384Y0007355D01*
X0103519Y0008490D02*
X0142170Y0008490D01*
X0141903Y0009488D02*
X0103976Y0009488D01*
X0104248Y0010487D02*
X0141787Y0010487D01*
X0141787Y0011485D02*
X0104248Y0011485D01*
X0104248Y0012484D02*
X0141787Y0012484D01*
X0141979Y0013482D02*
X0104248Y0013482D01*
X0104248Y0014481D02*
X0142247Y0014481D01*
X0142514Y0015479D02*
X0104248Y0015479D01*
X0104248Y0016478D02*
X0143081Y0016478D01*
X0143657Y0017476D02*
X0104248Y0017476D01*
X0103991Y0018475D02*
X0144446Y0018475D01*
X0145444Y0019473D02*
X0103556Y0019473D01*
X0102557Y0020472D02*
X0146800Y0020472D01*
X0148658Y0021470D02*
X0070490Y0021470D01*
X0070448Y0021470D02*
X0069448Y0021470D01*
X0069448Y0021477D02*
X0068894Y0021389D01*
X0068221Y0021170D01*
X0067590Y0020849D01*
X0067016Y0020432D01*
X0066516Y0019932D01*
X0066099Y0019359D01*
X0065778Y0018727D01*
X0065559Y0018054D01*
X0065448Y0017354D01*
X0065448Y0014500D01*
X0069448Y0014500D01*
X0069448Y0021477D01*
X0069406Y0021470D02*
X0018718Y0021470D01*
X0020577Y0020472D02*
X0067071Y0020472D01*
X0066183Y0019473D02*
X0021932Y0019473D01*
X0022931Y0018475D02*
X0065696Y0018475D01*
X0065467Y0017476D02*
X0023719Y0017476D01*
X0024296Y0016478D02*
X0065448Y0016478D01*
X0065448Y0015479D02*
X0024862Y0015479D01*
X0025130Y0014481D02*
X0069448Y0014481D01*
X0065448Y0013482D02*
X0025397Y0013482D01*
X0025590Y0012484D02*
X0065448Y0012484D01*
X0065448Y0011485D02*
X0025590Y0011485D01*
X0025590Y0010487D02*
X0065473Y0010487D01*
X0065708Y0009488D02*
X0025474Y0009488D01*
X0025206Y0008490D02*
X0066210Y0008490D01*
X0069448Y0018475D02*
X0070448Y0018475D01*
X0070448Y0019473D02*
X0069448Y0019473D01*
X0069448Y0020472D02*
X0070448Y0020472D01*
X0067063Y0027600D02*
X0063833Y0027600D01*
X0061548Y0029885D01*
X0061548Y0033115D01*
X0063833Y0035400D01*
X0067063Y0035400D01*
X0069348Y0033115D01*
X0069348Y0029885D01*
X0067063Y0027600D01*
X0067923Y0028460D02*
X0102690Y0028460D01*
X0101691Y0029458D02*
X0068922Y0029458D01*
X0069348Y0030457D02*
X0101348Y0030457D01*
X0101348Y0029802D02*
X0103750Y0027400D01*
X0105148Y0027400D01*
X0105148Y0031200D01*
X0101348Y0031200D01*
X0101348Y0029802D01*
X0101348Y0031800D02*
X0105148Y0031800D01*
X0105148Y0031200D01*
X0105748Y0031200D01*
X0105748Y0027400D01*
X0107146Y0027400D01*
X0109548Y0029802D01*
X0109548Y0031200D01*
X0105748Y0031200D01*
X0105748Y0031800D01*
X0105148Y0031800D01*
X0105148Y0035600D01*
X0103750Y0035600D01*
X0101348Y0033198D01*
X0101348Y0031800D01*
X0101348Y0032454D02*
X0069348Y0032454D01*
X0069348Y0031455D02*
X0105148Y0031455D01*
X0105748Y0031455D02*
X0111548Y0031455D01*
X0111548Y0030457D02*
X0109548Y0030457D01*
X0109205Y0029458D02*
X0111974Y0029458D01*
X0111548Y0029885D02*
X0113833Y0027600D01*
X0117063Y0027600D01*
X0119348Y0029885D01*
X0119348Y0033115D01*
X0117063Y0035400D01*
X0113833Y0035400D01*
X0111548Y0033115D01*
X0111548Y0029885D01*
X0112973Y0028460D02*
X0108206Y0028460D01*
X0107208Y0027461D02*
X0153688Y0027461D01*
X0152690Y0028460D02*
X0117923Y0028460D01*
X0118922Y0029458D02*
X0151691Y0029458D01*
X0151348Y0030457D02*
X0119348Y0030457D01*
X0119348Y0031455D02*
X0155148Y0031455D01*
X0155148Y0031800D02*
X0151348Y0031800D01*
X0151348Y0033198D01*
X0153750Y0035600D01*
X0155148Y0035600D01*
X0155148Y0031800D01*
X0155148Y0032454D02*
X0155748Y0032454D01*
X0155748Y0033452D02*
X0155148Y0033452D01*
X0155148Y0034451D02*
X0155748Y0034451D01*
X0155748Y0035449D02*
X0155148Y0035449D01*
X0153599Y0035449D02*
X0107297Y0035449D01*
X0107146Y0035600D02*
X0105748Y0035600D01*
X0105748Y0031800D01*
X0109548Y0031800D01*
X0109548Y0033198D01*
X0107146Y0035600D01*
X0105748Y0035449D02*
X0105148Y0035449D01*
X0105148Y0034451D02*
X0105748Y0034451D01*
X0105748Y0033452D02*
X0105148Y0033452D01*
X0105148Y0032454D02*
X0105748Y0032454D01*
X0105748Y0030457D02*
X0105148Y0030457D01*
X0105148Y0029458D02*
X0105748Y0029458D01*
X0105748Y0028460D02*
X0105148Y0028460D01*
X0105148Y0027461D02*
X0105748Y0027461D01*
X0103688Y0027461D02*
X0054708Y0027461D01*
X0054646Y0027400D02*
X0053248Y0027400D01*
X0053248Y0031200D01*
X0052648Y0031200D01*
X0048848Y0031200D01*
X0048848Y0029802D01*
X0051250Y0027400D01*
X0052648Y0027400D01*
X0052648Y0031200D01*
X0052648Y0031800D01*
X0048848Y0031800D01*
X0048848Y0033198D01*
X0051250Y0035600D01*
X0052648Y0035600D01*
X0052648Y0031800D01*
X0053248Y0031800D01*
X0053248Y0035600D01*
X0054646Y0035600D01*
X0057048Y0033198D01*
X0057048Y0031800D01*
X0053248Y0031800D01*
X0053248Y0031200D01*
X0057048Y0031200D01*
X0057048Y0029802D01*
X0054646Y0027400D01*
X0053248Y0027461D02*
X0052648Y0027461D01*
X0052648Y0028460D02*
X0053248Y0028460D01*
X0053248Y0029458D02*
X0052648Y0029458D01*
X0052648Y0030457D02*
X0053248Y0030457D01*
X0053248Y0031455D02*
X0061548Y0031455D01*
X0061548Y0030457D02*
X0057048Y0030457D01*
X0056705Y0029458D02*
X0061974Y0029458D01*
X0062973Y0028460D02*
X0055706Y0028460D01*
X0051188Y0027461D02*
X0009448Y0027461D01*
X0009448Y0026463D02*
X0157928Y0026463D01*
X0157928Y0027461D02*
X0157208Y0027461D01*
X0155748Y0027461D02*
X0155148Y0027461D01*
X0155148Y0028460D02*
X0155748Y0028460D01*
X0155748Y0029458D02*
X0155148Y0029458D01*
X0155148Y0030457D02*
X0155748Y0030457D01*
X0151348Y0032454D02*
X0119348Y0032454D01*
X0119011Y0033452D02*
X0151602Y0033452D01*
X0152601Y0034451D02*
X0118013Y0034451D01*
X0112883Y0034451D02*
X0108295Y0034451D01*
X0109294Y0033452D02*
X0111885Y0033452D01*
X0111548Y0032454D02*
X0109548Y0032454D01*
X0103599Y0035449D02*
X0054797Y0035449D01*
X0055795Y0034451D02*
X0062883Y0034451D01*
X0061885Y0033452D02*
X0056794Y0033452D01*
X0057048Y0032454D02*
X0061548Y0032454D01*
X0068013Y0034451D02*
X0102601Y0034451D01*
X0101602Y0033452D02*
X0069011Y0033452D01*
X0076727Y0039347D02*
X0077795Y0038279D01*
X0079192Y0037700D01*
X0080704Y0037700D01*
X0082101Y0038279D01*
X0083170Y0039347D01*
X0083748Y0040744D01*
X0083748Y0042256D01*
X0083170Y0043653D01*
X0082101Y0044721D01*
X0080704Y0045300D01*
X0079192Y0045300D01*
X0077795Y0044721D01*
X0076727Y0043653D01*
X0076148Y0042256D01*
X0076148Y0040744D01*
X0076727Y0039347D01*
X0076687Y0039443D02*
X0043229Y0039443D01*
X0043229Y0038980D02*
X0043229Y0044020D01*
X0042468Y0044781D01*
X0037428Y0044781D01*
X0036667Y0044020D01*
X0036667Y0038980D01*
X0037428Y0038219D01*
X0037848Y0038219D01*
X0037848Y0034781D01*
X0037428Y0034781D01*
X0036667Y0034020D01*
X0036667Y0028980D01*
X0037428Y0028219D01*
X0042468Y0028219D01*
X0043229Y0028980D01*
X0043229Y0034020D01*
X0042468Y0034781D01*
X0042048Y0034781D01*
X0042048Y0038219D01*
X0042468Y0038219D01*
X0043229Y0038980D01*
X0042694Y0038445D02*
X0077629Y0038445D01*
X0076273Y0040442D02*
X0043229Y0040442D01*
X0043229Y0041440D02*
X0076148Y0041440D01*
X0076224Y0042439D02*
X0043229Y0042439D01*
X0043229Y0043437D02*
X0076637Y0043437D01*
X0077510Y0044436D02*
X0042813Y0044436D01*
X0037083Y0044436D02*
X0027386Y0044436D01*
X0027101Y0044721D02*
X0025704Y0045300D01*
X0024192Y0045300D01*
X0022795Y0044721D01*
X0021727Y0043653D01*
X0021148Y0042256D01*
X0021148Y0040744D01*
X0021727Y0039347D01*
X0022795Y0038279D01*
X0024192Y0037700D01*
X0025704Y0037700D01*
X0027101Y0038279D01*
X0028170Y0039347D01*
X0028748Y0040744D01*
X0028748Y0042256D01*
X0028170Y0043653D01*
X0027101Y0044721D01*
X0028259Y0043437D02*
X0036667Y0043437D01*
X0036667Y0042439D02*
X0028672Y0042439D01*
X0028748Y0041440D02*
X0036667Y0041440D01*
X0036667Y0040442D02*
X0028623Y0040442D01*
X0028209Y0039443D02*
X0036667Y0039443D01*
X0037202Y0038445D02*
X0027267Y0038445D01*
X0022629Y0038445D02*
X0017267Y0038445D01*
X0017101Y0038279D02*
X0018170Y0039347D01*
X0018748Y0040744D01*
X0018748Y0042256D01*
X0018170Y0043653D01*
X0017101Y0044721D01*
X0015704Y0045300D01*
X0014192Y0045300D01*
X0012795Y0044721D01*
X0011727Y0043653D01*
X0011148Y0042256D01*
X0011148Y0040744D01*
X0011727Y0039347D01*
X0012795Y0038279D01*
X0014192Y0037700D01*
X0015704Y0037700D01*
X0017101Y0038279D01*
X0018209Y0039443D02*
X0021687Y0039443D01*
X0021273Y0040442D02*
X0018623Y0040442D01*
X0018748Y0041440D02*
X0021148Y0041440D01*
X0021224Y0042439D02*
X0018672Y0042439D01*
X0018259Y0043437D02*
X0021637Y0043437D01*
X0022510Y0044436D02*
X0017386Y0044436D01*
X0015704Y0047700D02*
X0014192Y0047700D01*
X0012795Y0048279D01*
X0011727Y0049347D01*
X0011148Y0050744D01*
X0011148Y0052256D01*
X0011727Y0053653D01*
X0012795Y0054721D01*
X0014192Y0055300D01*
X0015704Y0055300D01*
X0017101Y0054721D01*
X0018170Y0053653D01*
X0018748Y0052256D01*
X0018748Y0050744D01*
X0018170Y0049347D01*
X0017101Y0048279D01*
X0015704Y0047700D01*
X0017252Y0048430D02*
X0022644Y0048430D01*
X0022795Y0048279D02*
X0024192Y0047700D01*
X0025704Y0047700D01*
X0027101Y0048279D01*
X0028170Y0049347D01*
X0028748Y0050744D01*
X0028748Y0052256D01*
X0028170Y0053653D01*
X0027101Y0054721D01*
X0025704Y0055300D01*
X0024192Y0055300D01*
X0022795Y0054721D01*
X0021727Y0053653D01*
X0021148Y0052256D01*
X0021148Y0050744D01*
X0021727Y0049347D01*
X0022795Y0048279D01*
X0021693Y0049429D02*
X0018203Y0049429D01*
X0018617Y0050427D02*
X0021279Y0050427D01*
X0021148Y0051426D02*
X0018748Y0051426D01*
X0018678Y0052424D02*
X0021218Y0052424D01*
X0021631Y0053423D02*
X0018265Y0053423D01*
X0017401Y0054421D02*
X0022495Y0054421D01*
X0027401Y0054421D02*
X0077495Y0054421D01*
X0077795Y0054721D02*
X0076727Y0053653D01*
X0076148Y0052256D01*
X0076148Y0050744D01*
X0076727Y0049347D01*
X0077795Y0048279D01*
X0079192Y0047700D01*
X0080704Y0047700D01*
X0080756Y0047722D01*
X0086170Y0042308D01*
X0086148Y0042256D01*
X0086148Y0040744D01*
X0086727Y0039347D01*
X0087795Y0038279D01*
X0089192Y0037700D01*
X0090704Y0037700D01*
X0092101Y0038279D01*
X0093170Y0039347D01*
X0093748Y0040744D01*
X0093748Y0042256D01*
X0093170Y0043653D01*
X0092101Y0044721D01*
X0090704Y0045300D01*
X0089192Y0045300D01*
X0089140Y0045278D01*
X0083726Y0050692D01*
X0083748Y0050744D01*
X0083748Y0052256D01*
X0083170Y0053653D01*
X0082101Y0054721D01*
X0080704Y0055300D01*
X0079192Y0055300D01*
X0077795Y0054721D01*
X0076631Y0053423D02*
X0028265Y0053423D01*
X0028678Y0052424D02*
X0076218Y0052424D01*
X0076148Y0051426D02*
X0028748Y0051426D01*
X0028617Y0050427D02*
X0076279Y0050427D01*
X0076693Y0049429D02*
X0028203Y0049429D01*
X0027252Y0048430D02*
X0077644Y0048430D01*
X0081047Y0047432D02*
X0009448Y0047432D01*
X0009448Y0048430D02*
X0012644Y0048430D01*
X0011693Y0049429D02*
X0009448Y0049429D01*
X0009448Y0050427D02*
X0011279Y0050427D01*
X0011148Y0051426D02*
X0009448Y0051426D01*
X0009448Y0052424D02*
X0011218Y0052424D01*
X0011631Y0053423D02*
X0009448Y0053423D01*
X0009448Y0054421D02*
X0012495Y0054421D01*
X0009448Y0055420D02*
X0087848Y0055420D01*
X0087848Y0055630D02*
X0087848Y0054743D01*
X0087795Y0054721D01*
X0086727Y0053653D01*
X0086148Y0052256D01*
X0086148Y0050744D01*
X0086727Y0049347D01*
X0087795Y0048279D01*
X0089192Y0047700D01*
X0090704Y0047700D01*
X0092101Y0048279D01*
X0093170Y0049347D01*
X0093748Y0050744D01*
X0093748Y0052256D01*
X0093170Y0053653D01*
X0092101Y0054721D01*
X0092048Y0054743D01*
X0092048Y0057370D01*
X0087048Y0062370D01*
X0085818Y0063600D01*
X0068863Y0063600D01*
X0067063Y0065400D01*
X0063833Y0065400D01*
X0061548Y0063115D01*
X0061548Y0059885D01*
X0063833Y0057600D01*
X0067063Y0057600D01*
X0068863Y0059400D01*
X0084078Y0059400D01*
X0087848Y0055630D01*
X0087060Y0056418D02*
X0009448Y0056418D01*
X0009448Y0057417D02*
X0051233Y0057417D01*
X0051250Y0057400D02*
X0052648Y0057400D01*
X0052648Y0061200D01*
X0048848Y0061200D01*
X0048848Y0059802D01*
X0051250Y0057400D01*
X0052648Y0057417D02*
X0053248Y0057417D01*
X0053248Y0057400D02*
X0054646Y0057400D01*
X0057048Y0059802D01*
X0057048Y0061200D01*
X0053248Y0061200D01*
X0053248Y0057400D01*
X0053248Y0058415D02*
X0052648Y0058415D01*
X0052648Y0059414D02*
X0053248Y0059414D01*
X0053248Y0060412D02*
X0052648Y0060412D01*
X0052648Y0061200D02*
X0053248Y0061200D01*
X0053248Y0061800D01*
X0052648Y0061800D01*
X0052648Y0061200D01*
X0052648Y0061411D02*
X0016848Y0061411D01*
X0016848Y0062409D02*
X0048848Y0062409D01*
X0048848Y0061800D02*
X0052648Y0061800D01*
X0052648Y0065600D01*
X0051250Y0065600D01*
X0048848Y0063198D01*
X0048848Y0061800D01*
X0048848Y0060412D02*
X0016848Y0060412D01*
X0016377Y0059414D02*
X0049236Y0059414D01*
X0050235Y0058415D02*
X0015379Y0058415D01*
X0010517Y0058415D02*
X0009448Y0058415D01*
X0009448Y0059414D02*
X0009519Y0059414D01*
X0009448Y0064406D02*
X0010339Y0064406D01*
X0009448Y0065405D02*
X0051054Y0065405D01*
X0050056Y0064406D02*
X0015557Y0064406D01*
X0016556Y0063408D02*
X0049057Y0063408D01*
X0052648Y0063408D02*
X0053248Y0063408D01*
X0053248Y0064406D02*
X0052648Y0064406D01*
X0052648Y0065405D02*
X0053248Y0065405D01*
X0053248Y0065600D02*
X0054646Y0065600D01*
X0057048Y0063198D01*
X0057048Y0061800D01*
X0053248Y0061800D01*
X0053248Y0065600D01*
X0054842Y0065405D02*
X0103554Y0065405D01*
X0103750Y0065600D02*
X0101348Y0063198D01*
X0101348Y0061800D01*
X0105148Y0061800D01*
X0105148Y0061200D01*
X0101348Y0061200D01*
X0101348Y0059802D01*
X0103750Y0057400D01*
X0105148Y0057400D01*
X0105148Y0061200D01*
X0105748Y0061200D01*
X0105748Y0057400D01*
X0107146Y0057400D01*
X0109548Y0059802D01*
X0109548Y0061200D01*
X0105748Y0061200D01*
X0105748Y0061800D01*
X0105148Y0061800D01*
X0105148Y0065600D01*
X0103750Y0065600D01*
X0105148Y0065405D02*
X0105748Y0065405D01*
X0105748Y0065600D02*
X0107146Y0065600D01*
X0109548Y0063198D01*
X0109548Y0061800D01*
X0105748Y0061800D01*
X0105748Y0065600D01*
X0105748Y0064406D02*
X0105148Y0064406D01*
X0105148Y0063408D02*
X0105748Y0063408D01*
X0105748Y0062409D02*
X0105148Y0062409D01*
X0105148Y0061411D02*
X0088007Y0061411D01*
X0087009Y0062409D02*
X0101348Y0062409D01*
X0101557Y0063408D02*
X0086010Y0063408D01*
X0089006Y0060412D02*
X0101348Y0060412D01*
X0101736Y0059414D02*
X0090004Y0059414D01*
X0091003Y0058415D02*
X0102735Y0058415D01*
X0103733Y0057417D02*
X0092001Y0057417D01*
X0092048Y0056418D02*
X0157928Y0056418D01*
X0157928Y0055420D02*
X0092048Y0055420D01*
X0092401Y0054421D02*
X0139995Y0054421D01*
X0140295Y0054721D02*
X0139227Y0053653D01*
X0138648Y0052256D01*
X0138648Y0050744D01*
X0139227Y0049347D01*
X0140295Y0048279D01*
X0141692Y0047700D01*
X0143204Y0047700D01*
X0144601Y0048279D01*
X0145670Y0049347D01*
X0146248Y0050744D01*
X0146248Y0052256D01*
X0145670Y0053653D01*
X0144601Y0054721D01*
X0143204Y0055300D01*
X0141692Y0055300D01*
X0140295Y0054721D01*
X0139131Y0053423D02*
X0093265Y0053423D01*
X0093678Y0052424D02*
X0138718Y0052424D01*
X0138648Y0051426D02*
X0093748Y0051426D01*
X0093617Y0050427D02*
X0138779Y0050427D01*
X0139193Y0049429D02*
X0093203Y0049429D01*
X0092252Y0048430D02*
X0140144Y0048430D01*
X0141692Y0045300D02*
X0140295Y0044721D01*
X0139227Y0043653D01*
X0138648Y0042256D01*
X0138648Y0040744D01*
X0139227Y0039347D01*
X0140295Y0038279D01*
X0141692Y0037700D01*
X0143204Y0037700D01*
X0144601Y0038279D01*
X0145670Y0039347D01*
X0146248Y0040744D01*
X0146248Y0042256D01*
X0145670Y0043653D01*
X0144601Y0044721D01*
X0143204Y0045300D01*
X0141692Y0045300D01*
X0140010Y0044436D02*
X0092386Y0044436D01*
X0093259Y0043437D02*
X0139137Y0043437D01*
X0138724Y0042439D02*
X0093672Y0042439D01*
X0093748Y0041440D02*
X0138648Y0041440D01*
X0138773Y0040442D02*
X0093623Y0040442D01*
X0093209Y0039443D02*
X0139187Y0039443D01*
X0140129Y0038445D02*
X0092267Y0038445D01*
X0087629Y0038445D02*
X0082267Y0038445D01*
X0083209Y0039443D02*
X0086687Y0039443D01*
X0086273Y0040442D02*
X0083623Y0040442D01*
X0083748Y0041440D02*
X0086148Y0041440D01*
X0086039Y0042439D02*
X0083672Y0042439D01*
X0083259Y0043437D02*
X0085041Y0043437D01*
X0084042Y0044436D02*
X0082386Y0044436D01*
X0083044Y0045434D02*
X0009448Y0045434D01*
X0009448Y0044436D02*
X0012510Y0044436D01*
X0011637Y0043437D02*
X0009448Y0043437D01*
X0009448Y0042439D02*
X0011224Y0042439D01*
X0011148Y0041440D02*
X0009448Y0041440D01*
X0009448Y0040442D02*
X0011273Y0040442D01*
X0011687Y0039443D02*
X0009448Y0039443D01*
X0009448Y0038445D02*
X0012629Y0038445D01*
X0009448Y0037446D02*
X0037848Y0037446D01*
X0037848Y0036448D02*
X0009448Y0036448D01*
X0009448Y0035449D02*
X0037848Y0035449D01*
X0037098Y0034451D02*
X0015513Y0034451D01*
X0016511Y0033452D02*
X0036667Y0033452D01*
X0036667Y0032454D02*
X0016848Y0032454D01*
X0016848Y0031455D02*
X0036667Y0031455D01*
X0036667Y0030457D02*
X0016848Y0030457D01*
X0016422Y0029458D02*
X0036667Y0029458D01*
X0037188Y0028460D02*
X0015423Y0028460D01*
X0010473Y0028460D02*
X0009448Y0028460D01*
X0009448Y0029458D02*
X0009474Y0029458D01*
X0009448Y0025464D02*
X0157928Y0025464D01*
X0157928Y0024466D02*
X0009448Y0024466D01*
X0009448Y0023467D02*
X0157928Y0023467D01*
X0157928Y0022469D02*
X0009448Y0022469D01*
X0009448Y0021470D02*
X0010863Y0021470D01*
X0010384Y0034451D02*
X0009448Y0034451D01*
X0009448Y0046433D02*
X0082045Y0046433D01*
X0085988Y0048430D02*
X0087644Y0048430D01*
X0086986Y0047432D02*
X0157928Y0047432D01*
X0157928Y0048430D02*
X0154752Y0048430D01*
X0154601Y0048279D02*
X0155670Y0049347D01*
X0156248Y0050744D01*
X0156248Y0052256D01*
X0155670Y0053653D01*
X0154601Y0054721D01*
X0153204Y0055300D01*
X0151692Y0055300D01*
X0150295Y0054721D01*
X0149227Y0053653D01*
X0148648Y0052256D01*
X0148648Y0050744D01*
X0149227Y0049347D01*
X0150295Y0048279D01*
X0151692Y0047700D01*
X0153204Y0047700D01*
X0154601Y0048279D01*
X0155703Y0049429D02*
X0157928Y0049429D01*
X0157928Y0050427D02*
X0156117Y0050427D01*
X0156248Y0051426D02*
X0157928Y0051426D01*
X0157928Y0052424D02*
X0156178Y0052424D01*
X0155765Y0053423D02*
X0157928Y0053423D01*
X0157928Y0054421D02*
X0154901Y0054421D01*
X0155148Y0057417D02*
X0155748Y0057417D01*
X0155748Y0058415D02*
X0155148Y0058415D01*
X0155148Y0059414D02*
X0155748Y0059414D01*
X0155748Y0060412D02*
X0155148Y0060412D01*
X0155148Y0061411D02*
X0119348Y0061411D01*
X0119348Y0062409D02*
X0151348Y0062409D01*
X0151348Y0061800D02*
X0155148Y0061800D01*
X0155148Y0065600D01*
X0153750Y0065600D01*
X0151348Y0063198D01*
X0151348Y0061800D01*
X0151348Y0060412D02*
X0119348Y0060412D01*
X0119348Y0059885D02*
X0117063Y0057600D01*
X0113833Y0057600D01*
X0111548Y0059885D01*
X0111548Y0063115D01*
X0113833Y0065400D01*
X0117063Y0065400D01*
X0119348Y0063115D01*
X0119348Y0059885D01*
X0118877Y0059414D02*
X0151736Y0059414D01*
X0152735Y0058415D02*
X0117879Y0058415D01*
X0113017Y0058415D02*
X0108161Y0058415D01*
X0107163Y0057417D02*
X0153733Y0057417D01*
X0157163Y0057417D02*
X0157928Y0057417D01*
X0155748Y0062409D02*
X0155148Y0062409D01*
X0155148Y0063408D02*
X0155748Y0063408D01*
X0155748Y0064406D02*
X0155148Y0064406D01*
X0155148Y0065405D02*
X0155748Y0065405D01*
X0157342Y0065405D02*
X0157928Y0065405D01*
X0157928Y0066403D02*
X0009448Y0066403D01*
X0009448Y0067402D02*
X0157928Y0067402D01*
X0157928Y0068400D02*
X0009448Y0068400D01*
X0009448Y0069399D02*
X0157928Y0069399D01*
X0157928Y0070397D02*
X0009448Y0070397D01*
X0009448Y0071396D02*
X0157928Y0071396D01*
X0157928Y0072394D02*
X0101923Y0072394D01*
X0101729Y0072200D02*
X0104248Y0074719D01*
X0104248Y0078281D01*
X0101729Y0080800D01*
X0098167Y0080800D01*
X0095648Y0078281D01*
X0095648Y0074719D01*
X0098167Y0072200D01*
X0101729Y0072200D01*
X0102922Y0073393D02*
X0157928Y0073393D01*
X0157928Y0074391D02*
X0103920Y0074391D01*
X0104248Y0075390D02*
X0157928Y0075390D01*
X0157928Y0076388D02*
X0104248Y0076388D01*
X0104248Y0077387D02*
X0157928Y0077387D01*
X0157928Y0078385D02*
X0104144Y0078385D01*
X0103145Y0079384D02*
X0150789Y0079384D01*
X0147789Y0080382D02*
X0102147Y0080382D01*
X0101812Y0082000D02*
X0100448Y0082000D01*
X0100448Y0086000D01*
X0099448Y0086000D01*
X0095448Y0086000D01*
X0095448Y0084636D01*
X0098084Y0082000D01*
X0099448Y0082000D01*
X0099448Y0086000D01*
X0099448Y0087000D01*
X0095448Y0087000D01*
X0095448Y0088364D01*
X0098084Y0091000D01*
X0099448Y0091000D01*
X0099448Y0087000D01*
X0100448Y0087000D01*
X0100448Y0091000D01*
X0101812Y0091000D01*
X0104448Y0088364D01*
X0104448Y0087000D01*
X0100448Y0087000D01*
X0100448Y0086000D01*
X0104448Y0086000D01*
X0104448Y0084636D01*
X0101812Y0082000D01*
X0102191Y0082379D02*
X0145017Y0082379D01*
X0144018Y0083378D02*
X0103190Y0083378D01*
X0104188Y0084376D02*
X0143410Y0084376D01*
X0142834Y0085375D02*
X0104448Y0085375D01*
X0104448Y0087372D02*
X0142132Y0087372D01*
X0141864Y0088370D02*
X0104441Y0088370D01*
X0103443Y0089369D02*
X0141787Y0089369D01*
X0141787Y0090368D02*
X0102444Y0090368D01*
X0100448Y0090368D02*
X0099448Y0090368D01*
X0099448Y0089369D02*
X0100448Y0089369D01*
X0100448Y0088370D02*
X0099448Y0088370D01*
X0099448Y0087372D02*
X0100448Y0087372D01*
X0100448Y0086373D02*
X0142400Y0086373D01*
X0146059Y0081381D02*
X0021317Y0081381D01*
X0022360Y0082379D02*
X0067988Y0082379D01*
X0068167Y0082200D02*
X0071729Y0082200D01*
X0074248Y0084719D01*
X0074248Y0088281D01*
X0071729Y0090800D01*
X0068167Y0090800D01*
X0065648Y0088281D01*
X0065648Y0084719D01*
X0068167Y0082200D01*
X0068167Y0080800D02*
X0065648Y0078281D01*
X0065648Y0074719D01*
X0068167Y0072200D01*
X0071729Y0072200D01*
X0074248Y0074719D01*
X0074248Y0078281D01*
X0071729Y0080800D01*
X0068167Y0080800D01*
X0067749Y0080382D02*
X0019588Y0080382D01*
X0016587Y0079384D02*
X0066751Y0079384D01*
X0065752Y0078385D02*
X0009448Y0078385D01*
X0009448Y0077387D02*
X0065648Y0077387D01*
X0065648Y0076388D02*
X0009448Y0076388D01*
X0009448Y0075390D02*
X0065648Y0075390D01*
X0065976Y0074391D02*
X0009448Y0074391D01*
X0009448Y0073393D02*
X0066974Y0073393D01*
X0067973Y0072394D02*
X0009448Y0072394D01*
X0009448Y0079384D02*
X0012994Y0079384D01*
X0009994Y0080382D02*
X0009448Y0080382D01*
X0023358Y0083378D02*
X0066989Y0083378D01*
X0065990Y0084376D02*
X0023966Y0084376D01*
X0024542Y0085375D02*
X0065648Y0085375D01*
X0065648Y0086373D02*
X0024977Y0086373D01*
X0025244Y0087372D02*
X0065648Y0087372D01*
X0065737Y0088370D02*
X0025512Y0088370D01*
X0025590Y0089369D02*
X0066736Y0089369D01*
X0067734Y0090368D02*
X0025590Y0090368D01*
X0025590Y0091366D02*
X0141787Y0091366D01*
X0142017Y0092365D02*
X0025359Y0092365D01*
X0025092Y0093363D02*
X0142285Y0093363D01*
X0142586Y0094362D02*
X0024790Y0094362D01*
X0024213Y0095360D02*
X0143163Y0095360D01*
X0157383Y0080382D02*
X0157928Y0080382D01*
X0157928Y0079384D02*
X0154382Y0079384D01*
X0153554Y0065405D02*
X0107342Y0065405D01*
X0108340Y0064406D02*
X0112839Y0064406D01*
X0111840Y0063408D02*
X0109339Y0063408D01*
X0109548Y0062409D02*
X0111548Y0062409D01*
X0111548Y0061411D02*
X0105748Y0061411D01*
X0105748Y0060412D02*
X0105148Y0060412D01*
X0105148Y0059414D02*
X0105748Y0059414D01*
X0105748Y0058415D02*
X0105148Y0058415D01*
X0105148Y0057417D02*
X0105748Y0057417D01*
X0109160Y0059414D02*
X0112019Y0059414D01*
X0111548Y0060412D02*
X0109548Y0060412D01*
X0102556Y0064406D02*
X0068057Y0064406D01*
X0062839Y0064406D02*
X0055840Y0064406D01*
X0056839Y0063408D02*
X0061840Y0063408D01*
X0061548Y0062409D02*
X0057048Y0062409D01*
X0057048Y0060412D02*
X0061548Y0060412D01*
X0061548Y0061411D02*
X0053248Y0061411D01*
X0053248Y0062409D02*
X0052648Y0062409D01*
X0056660Y0059414D02*
X0062019Y0059414D01*
X0063017Y0058415D02*
X0055661Y0058415D01*
X0054663Y0057417D02*
X0086062Y0057417D01*
X0085063Y0058415D02*
X0067879Y0058415D01*
X0082401Y0054421D02*
X0087495Y0054421D01*
X0086631Y0053423D02*
X0083265Y0053423D01*
X0083678Y0052424D02*
X0086218Y0052424D01*
X0086148Y0051426D02*
X0083748Y0051426D01*
X0083991Y0050427D02*
X0086279Y0050427D01*
X0086693Y0049429D02*
X0084989Y0049429D01*
X0087985Y0046433D02*
X0157928Y0046433D01*
X0157928Y0045434D02*
X0088983Y0045434D01*
X0119056Y0063408D02*
X0151557Y0063408D01*
X0152556Y0064406D02*
X0118057Y0064406D01*
X0097973Y0072394D02*
X0091923Y0072394D01*
X0091729Y0072200D02*
X0094248Y0074719D01*
X0094248Y0078281D01*
X0091729Y0080800D01*
X0088167Y0080800D01*
X0085648Y0078281D01*
X0085648Y0074719D01*
X0088167Y0072200D01*
X0091729Y0072200D01*
X0092922Y0073393D02*
X0096974Y0073393D01*
X0095976Y0074391D02*
X0093920Y0074391D01*
X0094248Y0075390D02*
X0095648Y0075390D01*
X0095648Y0076388D02*
X0094248Y0076388D01*
X0094248Y0077387D02*
X0095648Y0077387D01*
X0095752Y0078385D02*
X0094144Y0078385D01*
X0093145Y0079384D02*
X0096751Y0079384D01*
X0097749Y0080382D02*
X0092147Y0080382D01*
X0091729Y0082200D02*
X0094248Y0084719D01*
X0094248Y0088281D01*
X0091729Y0090800D01*
X0088167Y0090800D01*
X0085648Y0088281D01*
X0085648Y0084719D01*
X0088167Y0082200D01*
X0091729Y0082200D01*
X0091909Y0082379D02*
X0097705Y0082379D01*
X0096706Y0083378D02*
X0092907Y0083378D01*
X0093906Y0084376D02*
X0095708Y0084376D01*
X0095448Y0085375D02*
X0094248Y0085375D01*
X0094248Y0086373D02*
X0099448Y0086373D01*
X0099448Y0085375D02*
X0100448Y0085375D01*
X0100448Y0084376D02*
X0099448Y0084376D01*
X0099448Y0083378D02*
X0100448Y0083378D01*
X0100448Y0082379D02*
X0099448Y0082379D01*
X0095448Y0087372D02*
X0094248Y0087372D01*
X0094159Y0088370D02*
X0095455Y0088370D01*
X0096453Y0089369D02*
X0093160Y0089369D01*
X0092162Y0090368D02*
X0097452Y0090368D01*
X0087734Y0090368D02*
X0082162Y0090368D01*
X0081729Y0090800D02*
X0078167Y0090800D01*
X0075648Y0088281D01*
X0075648Y0084719D01*
X0078167Y0082200D01*
X0081729Y0082200D01*
X0084248Y0084719D01*
X0084248Y0088281D01*
X0081729Y0090800D01*
X0083160Y0089369D02*
X0086736Y0089369D01*
X0085737Y0088370D02*
X0084159Y0088370D01*
X0084248Y0087372D02*
X0085648Y0087372D01*
X0085648Y0086373D02*
X0084248Y0086373D01*
X0084248Y0085375D02*
X0085648Y0085375D01*
X0085990Y0084376D02*
X0083906Y0084376D01*
X0082907Y0083378D02*
X0086989Y0083378D01*
X0087987Y0082379D02*
X0081909Y0082379D01*
X0081729Y0080800D02*
X0078167Y0080800D01*
X0075648Y0078281D01*
X0075648Y0074719D01*
X0078167Y0072200D01*
X0081729Y0072200D01*
X0084248Y0074719D01*
X0084248Y0078281D01*
X0081729Y0080800D01*
X0082147Y0080382D02*
X0087749Y0080382D01*
X0086751Y0079384D02*
X0083145Y0079384D01*
X0084144Y0078385D02*
X0085752Y0078385D01*
X0085648Y0077387D02*
X0084248Y0077387D01*
X0084248Y0076388D02*
X0085648Y0076388D01*
X0085648Y0075390D02*
X0084248Y0075390D01*
X0083920Y0074391D02*
X0085976Y0074391D01*
X0086974Y0073393D02*
X0082922Y0073393D01*
X0081923Y0072394D02*
X0087973Y0072394D01*
X0077973Y0072394D02*
X0071923Y0072394D01*
X0072922Y0073393D02*
X0076974Y0073393D01*
X0075976Y0074391D02*
X0073920Y0074391D01*
X0074248Y0075390D02*
X0075648Y0075390D01*
X0075648Y0076388D02*
X0074248Y0076388D01*
X0074248Y0077387D02*
X0075648Y0077387D01*
X0075752Y0078385D02*
X0074144Y0078385D01*
X0073145Y0079384D02*
X0076751Y0079384D01*
X0077749Y0080382D02*
X0072147Y0080382D01*
X0071909Y0082379D02*
X0077988Y0082379D01*
X0076989Y0083378D02*
X0072907Y0083378D01*
X0073906Y0084376D02*
X0075990Y0084376D01*
X0075648Y0085375D02*
X0074248Y0085375D01*
X0074248Y0086373D02*
X0075648Y0086373D01*
X0075648Y0087372D02*
X0074248Y0087372D01*
X0074159Y0088370D02*
X0075737Y0088370D01*
X0076736Y0089369D02*
X0073160Y0089369D01*
X0072162Y0090368D02*
X0077734Y0090368D01*
X0144901Y0054421D02*
X0149995Y0054421D01*
X0149131Y0053423D02*
X0145765Y0053423D01*
X0146178Y0052424D02*
X0148718Y0052424D01*
X0148648Y0051426D02*
X0146248Y0051426D01*
X0146117Y0050427D02*
X0148779Y0050427D01*
X0149193Y0049429D02*
X0145703Y0049429D01*
X0144752Y0048430D02*
X0150144Y0048430D01*
X0151692Y0045300D02*
X0150295Y0044721D01*
X0149227Y0043653D01*
X0148648Y0042256D01*
X0148648Y0040744D01*
X0149227Y0039347D01*
X0150295Y0038279D01*
X0151692Y0037700D01*
X0153204Y0037700D01*
X0154601Y0038279D01*
X0155670Y0039347D01*
X0156248Y0040744D01*
X0156248Y0042256D01*
X0155670Y0043653D01*
X0154601Y0044721D01*
X0153204Y0045300D01*
X0151692Y0045300D01*
X0150010Y0044436D02*
X0144886Y0044436D01*
X0145759Y0043437D02*
X0149137Y0043437D01*
X0148724Y0042439D02*
X0146172Y0042439D01*
X0146248Y0041440D02*
X0148648Y0041440D01*
X0148773Y0040442D02*
X0146123Y0040442D01*
X0145709Y0039443D02*
X0149187Y0039443D01*
X0150129Y0038445D02*
X0144767Y0038445D01*
X0154767Y0038445D02*
X0157928Y0038445D01*
X0157928Y0039443D02*
X0155709Y0039443D01*
X0156123Y0040442D02*
X0157928Y0040442D01*
X0157928Y0041440D02*
X0156248Y0041440D01*
X0156172Y0042439D02*
X0157928Y0042439D01*
X0157928Y0043437D02*
X0155759Y0043437D01*
X0154886Y0044436D02*
X0157928Y0044436D01*
X0157928Y0037446D02*
X0042048Y0037446D01*
X0042048Y0036448D02*
X0157928Y0036448D01*
X0157928Y0035449D02*
X0157297Y0035449D01*
X0157928Y0021470D02*
X0156514Y0021470D01*
X0097339Y0020472D02*
X0092557Y0020472D01*
X0093556Y0019473D02*
X0096340Y0019473D01*
X0095905Y0018475D02*
X0093991Y0018475D01*
X0094248Y0017476D02*
X0095648Y0017476D01*
X0095648Y0016478D02*
X0094248Y0016478D01*
X0094248Y0015479D02*
X0095648Y0015479D01*
X0095648Y0014481D02*
X0094248Y0014481D01*
X0094248Y0013482D02*
X0095648Y0013482D01*
X0095648Y0012484D02*
X0094248Y0012484D01*
X0094248Y0011485D02*
X0095648Y0011485D01*
X0095648Y0010487D02*
X0094248Y0010487D01*
X0093976Y0009488D02*
X0095920Y0009488D01*
X0096377Y0008490D02*
X0093519Y0008490D01*
X0092520Y0007491D02*
X0097376Y0007491D01*
X0053248Y0032454D02*
X0052648Y0032454D01*
X0052648Y0033452D02*
X0053248Y0033452D01*
X0053248Y0034451D02*
X0052648Y0034451D01*
X0052648Y0035449D02*
X0053248Y0035449D01*
X0051099Y0035449D02*
X0042048Y0035449D01*
X0042798Y0034451D02*
X0050101Y0034451D01*
X0049102Y0033452D02*
X0043229Y0033452D01*
X0043229Y0032454D02*
X0048848Y0032454D01*
X0048848Y0030457D02*
X0043229Y0030457D01*
X0043229Y0031455D02*
X0052648Y0031455D01*
X0049191Y0029458D02*
X0043229Y0029458D01*
X0042709Y0028460D02*
X0050190Y0028460D01*
D16*
X0039948Y0031500D02*
X0039948Y0041500D01*
X0065448Y0061500D02*
X0084948Y0061500D01*
X0089948Y0056500D01*
X0089948Y0051500D01*
X0079948Y0051500D02*
X0089948Y0041500D01*
D17*
X0039948Y0041500D03*
X0039948Y0031500D03*
M02*
