%
M48
M72
T01C0.02362
T02C0.02400
T03C0.03200
T04C0.04000
T05C0.12598
%
T01
X39948Y31500
X39948Y41500
T02
X24948Y41500
X14948Y41500
X14948Y51500
X24948Y51500
X79948Y51500
X89948Y51500
X89948Y41500
X79948Y41500
X142448Y41500
X152448Y41500
X152448Y51500
X142448Y51500
T03
X155448Y61500
X115448Y61500
X105448Y61500
X65448Y61500
X52948Y61500
X12948Y61500
X12948Y31500
X52948Y31500
X65448Y31500
X105448Y31500
X115448Y31500
X155448Y31500
T04
X99948Y14000
X89948Y14000
X79948Y14000
X69948Y14000
X69948Y76500
X79948Y76500
X89948Y76500
X99948Y76500
X99948Y86500
X89948Y86500
X79948Y86500
X69948Y86500
T05
X14791Y11343
X14791Y90083
X152586Y90083
X152586Y11343
M30
