G75*
%MOIN*%
%OFA0B0*%
%FSLAX25Y25*%
%IPPOS*%
%LPD*%
%AMOC8*
5,1,8,0,0,1.08239X$1,22.5*
%
%ADD10C,0.00600*%
%ADD11C,0.00500*%
%ADD12C,0.00200*%
D10*
X0006011Y0031063D02*
X0006011Y0061937D01*
X0033885Y0062185D02*
X0033885Y0031063D01*
X0071011Y0031063D02*
X0071011Y0061937D01*
X0098885Y0062185D02*
X0098885Y0031063D01*
X0133511Y0031063D02*
X0133511Y0061937D01*
X0161385Y0062185D02*
X0161385Y0031063D01*
D11*
X0161228Y0030752D02*
X0149417Y0030752D01*
X0149417Y0032720D01*
X0145480Y0032720D01*
X0145480Y0030752D01*
X0133669Y0030752D01*
X0098728Y0030752D02*
X0086917Y0030752D01*
X0086917Y0032720D01*
X0082980Y0032720D01*
X0082980Y0030752D01*
X0071169Y0030752D01*
X0033728Y0030752D02*
X0021917Y0030752D01*
X0021917Y0032720D01*
X0017980Y0032720D01*
X0017980Y0030752D01*
X0006169Y0030752D01*
X0017980Y0060280D02*
X0017980Y0062248D01*
X0006169Y0062248D01*
X0017980Y0060280D02*
X0021917Y0060280D01*
X0021917Y0062248D01*
X0033728Y0062248D01*
X0071169Y0062248D02*
X0082980Y0062248D01*
X0082980Y0060280D01*
X0086917Y0060280D01*
X0086917Y0062248D01*
X0098728Y0062248D01*
X0133669Y0062248D02*
X0145480Y0062248D01*
X0145480Y0060280D01*
X0149417Y0060280D01*
X0149417Y0062248D01*
X0161228Y0062248D01*
D12*
X0004102Y0029797D02*
X0001900Y0029797D01*
X0001900Y0031265D02*
X0004102Y0031265D01*
X0003368Y0030531D01*
X0004102Y0029797D01*
X0003368Y0032374D02*
X0003368Y0033108D01*
X0003001Y0033475D01*
X0001900Y0033475D01*
X0001900Y0032374D01*
X0002267Y0032007D01*
X0002634Y0032374D01*
X0002634Y0033475D01*
X0002634Y0034217D02*
X0003368Y0034951D01*
X0003368Y0035318D01*
X0004102Y0036058D02*
X0001900Y0036058D01*
X0002634Y0036058D02*
X0003368Y0037159D01*
X0003368Y0037900D02*
X0003368Y0038267D01*
X0001900Y0038267D01*
X0001900Y0037900D02*
X0001900Y0038634D01*
X0001900Y0039373D02*
X0003368Y0039373D01*
X0003368Y0040474D01*
X0003001Y0040841D01*
X0001900Y0040841D01*
X0002267Y0041583D02*
X0001900Y0041950D01*
X0001900Y0043051D01*
X0001533Y0043051D02*
X0001166Y0042684D01*
X0001166Y0042317D01*
X0001533Y0043051D02*
X0003368Y0043051D01*
X0003368Y0041950D01*
X0003001Y0041583D01*
X0002267Y0041583D01*
X0004102Y0038267D02*
X0004469Y0038267D01*
X0001900Y0037159D02*
X0002634Y0036058D01*
X0001900Y0034217D02*
X0003368Y0034217D01*
X0003368Y0046003D02*
X0001900Y0046003D01*
X0003001Y0046003D02*
X0003001Y0047471D01*
X0003368Y0047471D02*
X0001900Y0047471D01*
X0001900Y0048213D02*
X0003368Y0048213D01*
X0003368Y0048947D02*
X0003368Y0049314D01*
X0003368Y0048947D02*
X0002634Y0048213D01*
X0003368Y0047471D02*
X0004102Y0046737D01*
X0003368Y0046003D01*
X0003001Y0050054D02*
X0003368Y0050421D01*
X0003368Y0051155D01*
X0003001Y0051522D01*
X0002634Y0051522D01*
X0002634Y0050054D01*
X0002267Y0050054D02*
X0003001Y0050054D01*
X0002267Y0050054D02*
X0001900Y0050421D01*
X0001900Y0051155D01*
X0002267Y0052264D02*
X0002634Y0052631D01*
X0002634Y0053732D01*
X0003001Y0053732D02*
X0001900Y0053732D01*
X0001900Y0052631D01*
X0002267Y0052264D01*
X0003368Y0052631D02*
X0003368Y0053365D01*
X0003001Y0053732D01*
X0066900Y0053732D02*
X0066900Y0052631D01*
X0067267Y0052264D01*
X0067634Y0052631D01*
X0067634Y0053732D01*
X0068001Y0053732D02*
X0066900Y0053732D01*
X0068001Y0053732D02*
X0068368Y0053365D01*
X0068368Y0052631D01*
X0068001Y0051522D02*
X0067634Y0051522D01*
X0067634Y0050054D01*
X0068001Y0050054D02*
X0068368Y0050421D01*
X0068368Y0051155D01*
X0068001Y0051522D01*
X0066900Y0051155D02*
X0066900Y0050421D01*
X0067267Y0050054D01*
X0068001Y0050054D01*
X0068368Y0049314D02*
X0068368Y0048947D01*
X0067634Y0048213D01*
X0066900Y0048213D02*
X0068368Y0048213D01*
X0068368Y0047471D02*
X0066900Y0047471D01*
X0068001Y0047471D02*
X0068001Y0046003D01*
X0068368Y0046003D02*
X0069102Y0046737D01*
X0068368Y0047471D01*
X0068368Y0046003D02*
X0066900Y0046003D01*
X0066900Y0043051D02*
X0066900Y0041950D01*
X0067267Y0041583D01*
X0068001Y0041583D01*
X0068368Y0041950D01*
X0068368Y0043051D01*
X0066533Y0043051D01*
X0066166Y0042684D01*
X0066166Y0042317D01*
X0066900Y0040841D02*
X0068001Y0040841D01*
X0068368Y0040474D01*
X0068368Y0039373D01*
X0066900Y0039373D01*
X0066900Y0038634D02*
X0066900Y0037900D01*
X0066900Y0038267D02*
X0068368Y0038267D01*
X0068368Y0037900D01*
X0068368Y0037159D02*
X0067634Y0036058D01*
X0066900Y0037159D01*
X0066900Y0036058D02*
X0069102Y0036058D01*
X0068368Y0035318D02*
X0068368Y0034951D01*
X0067634Y0034217D01*
X0066900Y0034217D02*
X0068368Y0034217D01*
X0068001Y0033475D02*
X0066900Y0033475D01*
X0066900Y0032374D01*
X0067267Y0032007D01*
X0067634Y0032374D01*
X0067634Y0033475D01*
X0068001Y0033475D02*
X0068368Y0033108D01*
X0068368Y0032374D01*
X0069102Y0031265D02*
X0066900Y0031265D01*
X0066900Y0029797D02*
X0069102Y0029797D01*
X0068368Y0030531D01*
X0069102Y0031265D01*
X0069102Y0038267D02*
X0069469Y0038267D01*
X0128666Y0042317D02*
X0128666Y0042684D01*
X0129033Y0043051D01*
X0130868Y0043051D01*
X0130868Y0041950D01*
X0130501Y0041583D01*
X0129767Y0041583D01*
X0129400Y0041950D01*
X0129400Y0043051D01*
X0129400Y0040841D02*
X0130501Y0040841D01*
X0130868Y0040474D01*
X0130868Y0039373D01*
X0129400Y0039373D01*
X0129400Y0038634D02*
X0129400Y0037900D01*
X0129400Y0038267D02*
X0130868Y0038267D01*
X0130868Y0037900D01*
X0130868Y0037159D02*
X0130134Y0036058D01*
X0129400Y0037159D01*
X0129400Y0036058D02*
X0131602Y0036058D01*
X0130868Y0035318D02*
X0130868Y0034951D01*
X0130134Y0034217D01*
X0129400Y0034217D02*
X0130868Y0034217D01*
X0130501Y0033475D02*
X0129400Y0033475D01*
X0129400Y0032374D01*
X0129767Y0032007D01*
X0130134Y0032374D01*
X0130134Y0033475D01*
X0130501Y0033475D02*
X0130868Y0033108D01*
X0130868Y0032374D01*
X0131602Y0031265D02*
X0129400Y0031265D01*
X0129400Y0029797D02*
X0131602Y0029797D01*
X0130868Y0030531D01*
X0131602Y0031265D01*
X0131602Y0038267D02*
X0131969Y0038267D01*
X0130868Y0046003D02*
X0129400Y0046003D01*
X0130501Y0046003D02*
X0130501Y0047471D01*
X0130868Y0047471D02*
X0129400Y0047471D01*
X0129400Y0048213D02*
X0130868Y0048213D01*
X0130134Y0048213D02*
X0130868Y0048947D01*
X0130868Y0049314D01*
X0130501Y0050054D02*
X0130868Y0050421D01*
X0130868Y0051155D01*
X0130501Y0051522D01*
X0130134Y0051522D01*
X0130134Y0050054D01*
X0129767Y0050054D02*
X0130501Y0050054D01*
X0129767Y0050054D02*
X0129400Y0050421D01*
X0129400Y0051155D01*
X0129767Y0052264D02*
X0129400Y0052631D01*
X0129400Y0053732D01*
X0130501Y0053732D01*
X0130868Y0053365D01*
X0130868Y0052631D01*
X0130134Y0052631D02*
X0130134Y0053732D01*
X0130134Y0052631D02*
X0129767Y0052264D01*
X0130868Y0047471D02*
X0131602Y0046737D01*
X0130868Y0046003D01*
M02*
